<?xml version="1.0" encoding="utf-8"?>
<!-- Generator: Adobe Illustrator 22.0.1, SVG Export Plug-In . SVG Version: 6.00 Build 0)  -->
<svg version="1.1" id="Слой_1" xmlns="http://www.w3.org/2000/svg" xmlns:xlink="http://www.w3.org/1999/xlink" x="0px" y="0px"
	 viewBox="0 0 202.2 153.6" style="enable-background:new 0 0 202.2 153.6;" xml:space="preserve">
<style type="text/css">
	.st0{fill:#FF931E;}
</style>
<g>
	<path class="st0" d="M10.9,11.7c0.2,0.1,0.4,0.2,0.6,0.2c0.2,0,0.4,0,0.6,0c0.6,0,1.2,0.1,1.8,0.2c0.6,0.1,1.1,0.3,1.6,0.6
		c0.7,0.2,1.3,0.6,1.8,1c0.6,0.4,1.1,0.8,1.6,1.3c1.5,1.5,2.6,3.4,3.1,5.6c0.1,0.8,0.2,1.6,0.1,2.4c-0.1,0.8-0.1,1.6,0,2.4
		c0.1,0.7,0.1,1.4,0,2.2c-0.1,0.7-0.1,1.4,0.1,2.1c0,0.4-0.1,0.6-0.3,0.8c-0.3,0.1-0.3,0.4-0.2,0.6c0.1,0.3,0.2,0.6,0.1,0.9
		c-0.1,0.2-0.2,0.5-0.4,0.7c-0.2,0.4-0.4,0.9-0.5,1.5c-0.1,0.3-0.2,0.6-0.4,0.9s-0.4,0.5-0.7,0.7c-0.2,0.1-0.4,0.4-0.5,0.6
		c-0.3,0.5-0.8,0.9-1.4,1.2c-0.4,0.2-0.8,0.5-1.2,0.9C16.5,39,16.2,39.5,16,40c-0.2,0.5-0.3,1-0.3,1.5c0,0.5,0.1,1,0.3,1.4
		c0.3,0.6,0.5,1.2,0.6,1.8c0,0.4,0.2,0.9,0.6,1.4c0.4,0.8,0.7,1.7,0.9,2.7c0.1,0.3,0.2,0.7,0.3,1c0.1,0.3,0.3,0.6,0.5,0.8
		c0.1,0.1,0.3,0.3,0.4,0.6c0.2,0.8,0.4,1.5,0.8,2.2c0.3,0.7,0.5,1.5,0.7,2.3c0.1,0.3,0.2,0.5,0.4,0.7c0.2,0.2,0.3,0.4,0.4,0.7
		c0.2,0.8,0.5,1.5,0.8,2.1c0.4,0.6,0.6,1.4,0.7,2.2c0,0.1,0.1,0.2,0.1,0.3c0,0.1,0.1,0.2,0.2,0.3c0.4,0.5,0.7,1,0.9,1.5
		c0.2,0.6,0.5,1.1,0.7,1.6c0,0.1,0,0.2,0.1,0.3c0.1,0.3,0.3,0.6,0.4,0.8c0.1,0.3,0.4,0.5,0.8,0.7c0.3,0.1,0.6,0.4,0.9,0.8
		c0.3,0.4,0.5,0.7,0.8,1c0.2,0.2,0.4,0.4,0.5,0.6c0.1,0.1,0.3,0.3,0.5,0.5c1.8,1.5,3.9,2.5,6.1,3c0.4,0.1,0.8,0.2,1.2,0.3
		c0.4,0.1,0.8,0.2,1.2,0.3c0.3,0,0.6,0,0.9-0.2c0.2-0.2,0.5-0.2,0.9-0.1c0.7,0.2,1.4,0,2.2-0.4c0.3-0.1,0.6-0.2,0.8-0.3
		c0.3-0.1,0.5-0.1,0.8-0.1c0.2,0,0.5-0.1,0.7-0.2c0.2-0.1,0.4-0.3,0.7-0.4c0.8-0.5,1.8-0.8,2.9-1.1c0.5-0.1,1,0,1.4,0.2
		c0.4,0.2,0.8,0.5,1,0.9c0.1,0.2,0.3,0.4,0.4,0.6c0.1,0.2,0.3,0.3,0.5,0.4v0.8c-0.2,0.1-0.2,0.3,0,0.4v0.2c-0.2,1.1-0.7,1.8-1.4,2.3
		c-0.7,0.5-1.5,0.9-2.3,1.2c-0.8,0.3-1.6,0.6-2.5,0.8c-0.8,0.2-1.7,0.4-2.5,0.7c-0.2,0.1-0.5,0.2-0.7,0.3c-0.2,0.1-0.4,0.1-0.7,0.1
		c-0.6,0-1.2,0-1.9,0.1c-0.6,0.1-1.3,0-1.9-0.1c-0.7-0.2-1.5-0.3-2.3-0.2c-0.8,0-1.6-0.2-2.3-0.6c0,0-0.1-0.1-0.1,0c0,0-0.1,0-0.1,0
		c-1.2-0.4-2.4-0.8-3.5-1.4c-1.1-0.5-2.1-1.2-3.1-2c-1-0.9-1.9-1.8-2.7-2.7c-0.9-0.9-1.7-1.9-2.4-3c-0.2-0.4-0.4-0.8-0.6-1.2
		c-0.2-0.4-0.4-0.7-0.7-1.1c-0.4-0.4-0.7-0.8-0.7-1.2c-0.1-0.3-0.2-0.6-0.3-0.9c-0.1-0.3-0.3-0.6-0.4-0.9c-0.2-0.4-0.4-0.8-0.5-1.2
		c-0.2-0.4-0.3-0.8-0.5-1.2c-0.3-0.6-0.5-1.2-0.7-1.8c-0.2-0.6-0.4-1.2-0.6-1.8c-0.5-1.2-1-2.5-1.5-3.7c-0.5-1.2-1-2.5-1.4-3.7
		c-0.1-0.4-0.3-0.7-0.5-1c-0.2-0.3-0.3-0.6-0.4-1c-0.1-1-0.4-1.9-0.9-2.7c-0.5-0.8-0.9-1.7-1.3-2.6c-0.3-0.6-0.8-0.9-1.5-0.8
		c-0.6,0.1-0.9,0.6-0.9,1.4c0,0.6,0,1.1,0,1.7c0,0.6,0,1.1,0.1,1.7c0.1,0.5,0.1,1,0,1.5c-0.1,0.5-0.1,1,0.1,1.5c0,0,0,0.1,0,0.1
		c0,0,0,0.1,0,0.1c-0.2,0.6-0.3,1.2-0.1,1.9c0.2,0.6,0.2,1.2,0.1,1.8c-0.1,0.6-0.1,1.2,0,1.8c0.1,0.7,0.1,1.4,0,2.1
		c-0.1,0.7-0.1,1.4-0.2,2.1c0,0.3-0.1,0.7-0.4,1.1c-0.3,0.4-0.6,0.7-0.9,0.9c-0.3,0.2-0.7,0.4-1.3,0.5c-1.1,0.2-2-0.1-2.9-0.8
		c-0.4-0.4-0.6-0.8-0.8-1.3c-0.1-0.5-0.2-0.9-0.2-1.5c0-0.2,0-0.5,0-0.6c0-0.2-0.1-0.4-0.3-0.6V58c0.3-0.3,0.4-0.7,0.3-1
		c-0.1-0.3-0.2-0.6-0.3-1v-0.8c0.1-0.3,0.2-0.7,0.3-1c0-0.3,0-0.7,0-1c0-0.2,0-0.5,0-0.8c0-0.3-0.1-0.6-0.3-0.8v-0.6
		c0.5-0.7,0.5-1.4,0-2.2v-0.6c0.3-0.4,0.3-0.9,0-1.4v-0.2c0.3-0.5,0.3-0.9,0-1.3v-0.9c0.2-0.3,0.2-0.7,0-1.1v-1.5
		c0.3-0.4,0.3-0.9,0-1.3v-0.9c0.1-0.2,0.1-0.4,0-0.6V37c0.1-0.4,0.2-0.7,0.3-1.1c0.1-0.3,0-0.7-0.3-1.1V34c0.3-0.7,0.3-1.2,0-1.7
		v-1.1c0.1-0.3,0.2-0.6,0.3-0.9c0-0.3,0-0.6-0.3-0.8v-0.9c0.2-0.5,0.3-0.9,0.3-1.4c0-0.5-0.1-0.9-0.3-1.4v-1.9
		c0.2-0.2,0.2-0.5,0-0.9v-0.9c0.3-0.5,0.4-1,0.3-1.4c-0.1-0.5-0.2-1-0.3-1.5v-1.9c0.2-0.3,0.3-0.6,0.3-0.9c0-0.3-0.1-0.7-0.1-1
		c0.1-0.8,0.3-1.5,0.6-2.2c0.3-0.7,0.9-1.1,1.9-1.2c0.2,0,0.4-0.1,0.6-0.2H6c1.3,0.4,2.6,0.4,3.9,0H10.9z M1.4,28.2
		c0-0.2-0.1-0.3-0.3-0.3c-0.1,0-0.2,0.1-0.2,0.4c0,0.1,0.1,0.1,0.2,0.1C1.3,28.5,1.4,28.4,1.4,28.2z M1.4,43.8
		c-0.2,0-0.3,0.1-0.2,0.3c0.1,0.3,0.3,0.5,0.6,0.4c0.1,0,0.2-0.1,0.2-0.3C2,44.1,1.9,44,1.8,44S1.5,43.9,1.4,43.8z M2.2,41.6
		c-0.1-0.2-0.2-0.3-0.4-0.3c-0.2,0-0.4,0.2-0.4,0.5c0,0.2,0.1,0.3,0.3,0.2C2.1,42,2.2,41.9,2.2,41.6z M2.7,24.1
		c-0.1-0.1-0.2-0.2-0.2-0.2c-0.2,0.1-0.3,0.2-0.2,0.3c0,0.1,0.1,0.1,0.2,0.1C2.6,24.3,2.7,24.3,2.7,24.1z M3,43.1
		c-0.2,0-0.3,0.1-0.3,0.3c0,0.2,0.1,0.4,0.4,0.4c0.2,0,0.3-0.1,0.3-0.2C3.3,43.2,3.2,43.1,3,43.1z M3.6,38.5c0-0.1-0.1-0.3-0.2-0.4
		c-0.2,0-0.3,0.1-0.4,0.3c0,0.2,0.1,0.3,0.2,0.3C3.4,38.7,3.6,38.7,3.6,38.5z M3.8,45c-0.1-0.2-0.2-0.4-0.4-0.4
		c-0.2,0-0.3,0.1-0.3,0.4c0,0.1,0.1,0.2,0.3,0.2C3.6,45.3,3.8,45.2,3.8,45z M4.1,46.1L4.1,46.1L4.1,46.1L4.1,46.1z M4.9,27.4
		c0-0.2,0-0.4-0.1-0.4c-0.1,0-0.3,0.1-0.4,0.4c-0.1,0.2,0,0.3,0.2,0.3C4.8,27.7,4.9,27.6,4.9,27.4z M5,23.6c0-0.2-0.1-0.3-0.2-0.3
		c-0.1,0.1-0.1,0.2-0.1,0.3c0,0.2,0.1,0.2,0.2,0.1C4.9,23.8,5,23.7,5,23.6C5,23.6,5,23.6,5,23.6z M5,20.8c-0.1,0-0.2,0.2-0.2,0.4
		c0,0.2,0.1,0.3,0.2,0.3c0.2,0,0.3-0.1,0.2-0.4C5.2,20.9,5.1,20.8,5,20.8z M4.9,41.9L4.9,41.9H4.8H4.9L4.9,41.9z M5.3,48.7
		c0-0.1-0.1-0.3-0.2-0.4c-0.1,0-0.3,0.1-0.4,0.3C4.8,48.9,4.8,49,5,49C5.1,49,5.2,48.9,5.3,48.7z M5.8,38.8c0,0-0.1-0.1-0.1-0.1
		v-0.1c-0.2,0-0.4,0.1-0.4,0.4c0,0.1,0,0.2,0.1,0.2C5.7,39.2,5.8,39.1,5.8,38.8z M5.7,54.1L5.6,54c-0.1,0-0.1,0-0.1,0.1
		C5.4,54.2,5.4,54.2,5.7,54.1L5.7,54.1z M6.8,30c0,0.7,0,1.1,0,1.3c0,0.2,0.3,0.6,0.6,1.2c0.4,0.5,0.7,0.9,1.1,1
		c0.3,0.2,0.8,0.2,1.5,0.1c0.1,0,0.3,0,0.4,0c0.1,0,0.3,0,0.5,0c0.8,0.2,1.7,0,2.6-0.6c0.9-0.6,1.5-1.3,1.8-2.1
		c0.4-1.4,0.5-2.9,0.4-4.2c-0.1-0.8-0.1-1.6-0.1-2.3c0-0.7,0-1.5,0.1-2.3c0-0.3-0.1-0.6-0.2-0.9c-0.8-1.3-1.9-2.1-3.2-2.5
		c-0.4-0.1-0.9-0.2-1.3-0.1c-0.4,0-0.9,0-1.4,0c-0.8-0.1-1.5,0.2-2.1,0.8c-0.6,0.6-0.9,1.3-0.9,2.1c0,1.1,0.1,2.1,0.1,3.1
		c0,1,0,2.1-0.1,3.1c0,0.2,0,0.4,0.1,0.5c0.2,0.3,0.3,0.7,0.3,1C6.9,29.3,6.8,29.6,6.8,30z M7.1,37.7c0.1-0.1,0.1-0.1-0.1-0.1
		c-0.1,0-0.1,0-0.1,0.1c0,0.1,0,0.1,0.1,0.1C7,37.7,7,37.7,7.1,37.7C7,37.7,7,37.7,7.1,37.7z M6.9,35.2l0.1,0.1
		c0.1,0.1,0.2,0,0.2-0.1c0-0.1,0-0.1-0.1-0.1C7.1,35,7,35.1,6.9,35.2z M8.6,36.9c-0.1,0.1-0.2,0.2-0.1,0.3l0.1,0.1
		c0,0,0.1-0.1,0.1-0.1C8.7,36.9,8.7,36.9,8.6,36.9z M8.6,35.5C8.6,35.5,8.6,35.5,8.6,35.5c-0.1,0.1-0.1,0.1-0.1,0.1l0.1,0.1
		C8.7,35.6,8.7,35.6,8.6,35.5L8.6,35.5z M9.6,40.8L9.6,40.8V41C9.6,40.9,9.7,40.9,9.6,40.8C9.7,40.9,9.7,40.9,9.6,40.8L9.6,40.8z
		 M10.5,38.8c-0.1-0.2-0.2-0.3-0.3-0.3c-0.2,0-0.3,0.1-0.4,0.2c0,0.1-0.1,0.3-0.2,0.4c0,0.2,0.1,0.3,0.2,0.3
		C10.2,39.4,10.4,39.2,10.5,38.8z M10,42.3c-0.2,0-0.3,0.1-0.3,0.3c0,0.2,0.1,0.4,0.3,0.4c0.3,0.1,0.4,0,0.4-0.2
		C10.4,42.4,10.3,42.3,10,42.3z M11.7,14.7c0-0.1,0-0.2-0.1-0.3c-0.1,0-0.2,0-0.2,0.1c0,0,0,0.1,0.1,0.2
		C11.6,14.7,11.7,14.7,11.7,14.7z M12.2,15.6c-0.1-0.2-0.2-0.3-0.3-0.2c-0.2,0-0.2,0.1-0.1,0.2c0,0.1,0.1,0.1,0.2,0.1
		C12.2,15.8,12.2,15.7,12.2,15.6z M12.3,34.6C12.4,34.6,12.4,34.6,12.3,34.6c0-0.1,0-0.1-0.1-0.1v0.1C12.2,34.7,12.3,34.7,12.3,34.6
		z M12.3,46.9c0.1,0,0.2-0.1,0.3-0.2c0-0.1-0.1-0.2-0.2-0.2c-0.1,0.1-0.2,0.2-0.2,0.3C12.2,46.9,12.2,46.9,12.3,46.9z M12.8,48.2
		c0-0.1-0.1-0.2-0.2-0.2s-0.2,0.1-0.2,0.2c0,0.1,0,0.1,0.1,0.1S12.8,48.3,12.8,48.2z M14.7,37.5c-0.2,0-0.4,0.1-0.4,0.3
		c-0.1,0.2,0,0.3,0.1,0.3c0.3,0.1,0.4,0,0.4-0.3C14.9,37.6,14.8,37.5,14.7,37.5z M15.8,37.4c0-0.2-0.1-0.3-0.3-0.3
		c-0.1,0-0.2,0.1-0.2,0.3c0,0.1,0.1,0.1,0.2,0.1C15.7,37.6,15.8,37.5,15.8,37.4z M16.7,24.4L16.7,24.4
		C16.6,24.5,16.7,24.5,16.7,24.4C16.8,24.5,16.8,24.5,16.7,24.4L16.7,24.4z M17.6,56.9c0-0.1-0.1-0.2-0.3-0.2
		c-0.2,0-0.4,0.1-0.4,0.3c0,0.1,0.1,0.2,0.2,0.2C17.4,57.2,17.5,57.1,17.6,56.9z M17.1,15.2C17.2,15.2,17.2,15.2,17.1,15.2
		C17.1,15.1,17.1,15.1,17.1,15.2L17.1,15.2L17.1,15.2z M18.9,35.4c-0.1-0.1-0.2-0.2-0.4-0.2c-0.2,0-0.4-0.1-0.5-0.2c0,0-0.1,0-0.1,0
		c0,0,0,0.1,0,0.1c0,0.2,0.2,0.4,0.3,0.4c0.2,0,0.3,0,0.5,0.1C18.8,35.7,18.9,35.6,18.9,35.4z M18.9,23.3c0.1,0,0.2-0.1,0.2-0.2
		c0.1-0.2,0-0.4-0.3-0.4c-0.2-0.1-0.3,0-0.3,0.1C18.5,23.1,18.6,23.2,18.9,23.3z M19.7,65.6L19.7,65.6l-0.2-0.1v0.1
		C19.6,65.6,19.6,65.6,19.7,65.6z M20.5,22.8l-0.1-0.1c-0.1,0-0.2,0-0.1,0.1c0,0,0.1,0.1,0.1,0.1C20.4,22.8,20.5,22.8,20.5,22.8z
		 M21,25.1c0.1,0,0.1-0.1,0.1-0.2s0-0.2-0.1-0.2c-0.1,0-0.2,0.1-0.2,0.2S20.9,25.1,21,25.1z M21.7,60.7c0.1,0,0.1-0.1,0.1-0.2
		c0,0,0-0.1-0.1-0.1c-0.2,0-0.2,0.1-0.1,0.2C21.6,60.6,21.7,60.6,21.7,60.7z M22.2,63.9L22.2,63.9L22.2,63.9L22.2,63.9z M23.3,71.9
		c-0.1-0.2-0.2-0.3-0.3-0.3c-0.1,0.1-0.2,0.2-0.1,0.2c0,0.2,0.1,0.4,0.3,0.4C23.2,72.2,23.3,72.1,23.3,71.9z M25.5,67.5
		c-0.1,0-0.1,0-0.1,0.1c0,0.1,0,0.2,0.1,0.1c0,0,0.1,0,0.1-0.1v-0.1C25.6,67.6,25.5,67.6,25.5,67.5C25.5,67.6,25.5,67.6,25.5,67.5z
		 M25.5,69.6L25.5,69.6L25.5,69.6L25.5,69.6z M29.4,75.7l-0.1,0.1l0.1,0.1L29.4,75.7C29.5,75.7,29.4,75.7,29.4,75.7z M33.7,75
		c-0.1,0-0.2,0-0.2,0.1c0,0.2,0.1,0.3,0.2,0.3s0.2,0,0.2-0.1C34,75,33.9,75,33.7,75z M36.8,76.3L36.8,76.3L36.8,76.3L36.8,76.3z
		 M39.7,74.2c0-0.2-0.1-0.3-0.2-0.2l-0.2,0.2c0,0.2,0.1,0.3,0.2,0.3S39.7,74.4,39.7,74.2z M42.9,76.8c0-0.3-0.1-0.4-0.4-0.3
		c-0.1,0-0.2,0.1-0.2,0.2c0.1,0.2,0.2,0.4,0.4,0.4C42.8,77.1,42.9,77,42.9,76.8z M43.2,75.8L43.2,75.8
		C43.2,75.7,43.1,75.7,43.2,75.8L43.2,75.8z M45.1,72.9c0-0.1-0.2-0.2-0.4-0.2c-0.1,0-0.2,0-0.2,0.1c0.1,0.2,0.2,0.3,0.4,0.3
		C45,73,45,73,45,73C45,72.9,45,72.9,45.1,72.9z M46.7,74.2C46.7,74.2,46.7,74.2,46.7,74.2v0.1V74.2L46.7,74.2z M47.7,73.2
		C47.7,73.2,47.6,73.2,47.7,73.2L47.7,73.2C47.6,73.3,47.7,73.3,47.7,73.2z"/>
	<path class="st0" d="M75.2,38.8c0,16.7-10.2,25.6-22.5,25.6c-12.8,0-21.8-9.9-21.8-24.6c0-15.4,9.6-25.5,22.5-25.5
		C66.6,14.3,75.2,24.4,75.2,38.8z M37.5,39.6c0,10.4,5.6,19.7,15.5,19.7c9.9,0,15.6-9.1,15.6-20.2c0-9.6-5-19.7-15.5-19.7
		C42.7,19.4,37.5,28.9,37.5,39.6z"/>
	<path class="st0" d="M77.8,35.4v-0.9c0.4-0.3,0.4-0.7,0-1.1v-0.6c0.2-0.1,0.3-0.2,0.2-0.4c-0.1-0.5-0.1-1-0.1-1.5
		c0-0.5,0.1-1,0.1-1.5c0-0.2-0.1-0.3-0.2-0.3v-0.9c0.3-0.3,0.3-0.7,0-1.1v-0.6c0.2-0.2,0.3-0.5,0.3-0.6c0-0.2-0.1-0.4-0.3-0.6v-1.5
		c0.3-0.2,0.4-0.5,0.4-0.6c0-0.2-0.2-0.4-0.4-0.6v-0.4c0.2-0.1,0.3-0.2,0.3-0.4c0-0.2,0-0.3,0-0.5C78,20.1,78,19.3,78,18.5
		c0-0.7,0-1.5,0-2.3c0-0.1,0-0.3,0-0.4s-0.1-0.3-0.2-0.4v-0.2c0.1-0.1,0.2-0.3,0.2-0.5c0-0.2,0.1-0.3,0.2-0.5
		c0.1-0.4,0.3-0.8,0.6-1.1c0.2-0.4,0.6-0.6,0.9-0.7c0.4-0.1,0.8-0.1,1.2-0.1c0.4,0,0.8,0,1.2,0.1c0.5,0.2,1,0.4,1.4,0.8
		c0.4,0.3,0.7,0.8,0.8,1.4c0.1,0.7,0.4,1.3,0.7,1.9c0.3,0.6,0.6,1.2,0.8,1.8c0.4,1.1,0.8,2.1,1.3,3.1c0.5,1,0.8,2,1,3.1
		c0,0.3,0.1,0.6,0.3,0.9c0.1,0.3,0.2,0.6,0.1,0.9c0.5,0.2,0.8,0.5,0.8,0.9c0.1,0.4,0.2,0.8,0.3,1.2c0.2,0.6,0.5,1.1,0.7,1.7
		c0.2,0.6,0.5,1.1,0.6,1.8c0.2,0.7,0.5,1.3,0.8,1.9c0.4,0.6,0.7,1.3,0.9,1.9c0.1,0.2,0.2,0.5,0.3,0.7c0.1,0.2,0.3,0.4,0.5,0.4
		c0.3,0,0.5-0.1,0.6-0.4c0.1-0.2,0.2-0.5,0.5-0.6c0,0,0.1-0.1,0.1-0.3c0.3-0.8,0.6-1.7,0.8-2.5c0.2-0.9,0.6-1.7,1.2-2.4
		c0.1-0.2,0.1-0.4,0.1-0.5c0-0.3,0.1-0.7,0.4-1.2c0.3-0.5,0.5-1,0.6-1.5c0.1-0.5,0.3-1,0.6-1.5c0.1-0.3,0.3-0.7,0.3-1
		c0.1-0.3,0.2-0.6,0.5-0.9c0.2-0.3,0.3-0.5,0.3-0.6c0.1-0.9,0.3-1.7,0.7-2.4c0.4-0.7,0.7-1.5,0.9-2.3c0.1-0.3,0.2-0.6,0.3-0.9
		c0.1-0.3,0.3-0.6,0.4-0.9c0.2-0.5,0.5-1,0.8-1.5c0.3-0.5,0.5-1,0.6-1.6c0-0.2,0.1-0.3,0.3-0.5c0.1-0.1,0.3-0.3,0.5-0.4
		c0.2-0.2,0.5-0.3,0.8-0.3c0.3,0,0.5-0.2,0.8-0.4h0.9c0.1,0.2,0.3,0.3,0.6,0.3c1,0.1,1.6,0.6,1.9,1.5c0.4,1.2,0.5,2.4,0.3,3.5
		c0,0.3-0.1,0.6-0.1,0.9c0,0.3,0,0.6,0.1,0.9c0.2,1.2,0.2,2.3,0,3.4c-0.1,0.3-0.1,0.6-0.1,0.9c0,0.3,0.1,0.6,0.1,0.9
		c0.1,0.4,0.1,0.7,0.1,0.9c-0.1,0.5-0.1,1.1-0.1,1.6c0,0.6,0,1.1,0,1.7c0,0.3,0,0.7,0.1,1c0.1,0.3,0.1,0.7,0,1
		c-0.1,1.1-0.1,2.2,0,3.4c0,0.3,0.1,0.7,0.1,1c0,0.4,0,0.7-0.1,1.1c-0.1,0.4-0.1,0.8-0.1,1.1c0,0.4,0,0.7,0,1.1
		c-0.1,0.7-0.1,1.5,0.1,2.2c0.1,0.8,0,1.5-0.4,2.2c0,0.1,0,0.3,0.1,0.4c0.3,0.4,0.5,0.8,0.5,1.1s0,0.7-0.1,1.1
		c-0.1,0.4-0.1,0.8-0.1,1.2c0,0.4,0,0.8,0,1.2c0,1.4,0.1,2.9,0,4.4c0,1.5,0,2.9,0.2,4.4c0,0.7,0.1,1.3,0.1,1.9c0,0.6,0,1.2-0.1,1.9
		c-0.1,1.1-0.4,1.9-0.9,2.5c-0.5,0.6-1.3,0.9-2.4,1c-0.4,0-0.8,0-1.2-0.3c-0.4-0.2-0.8-0.5-1.1-0.9c-0.3-0.4-0.6-0.8-0.8-1.2
		c-0.2-0.4-0.3-0.8-0.2-1.2c0.1-0.7,0.1-1.4,0-2.1c-0.1-0.7-0.1-1.4,0-2.1c0-0.2,0.1-0.5,0-0.8c0-0.3-0.1-0.5-0.1-0.8
		c-0.1-0.7-0.1-1.4-0.1-2.1c0-0.7,0.1-1.4,0.2-2.1c0-0.3,0.1-0.7,0.1-1c0-0.3,0-0.6-0.1-0.9c-0.2-0.5-0.2-1.2,0-1.9
		c0-0.1,0-0.2,0-0.3c0-0.1,0-0.3,0-0.4c0-1,0-2-0.1-3.1c-0.1-1,0-2.1,0.2-3.1c0-0.2,0-0.4-0.1-0.6c-0.1-0.3-0.2-0.6-0.1-0.9
		c0.1-0.2,0.1-0.4,0.1-0.6c0-0.2,0-0.4,0-0.6c0-0.6-0.3-0.9-0.8-0.9c-0.5,0-0.8,0.2-0.9,0.8c0,0.7-0.3,1.3-0.6,1.9
		c-0.4,0.6-0.6,1.2-0.7,1.9c-0.1,0.3-0.2,0.7-0.4,1c-0.2,0.3-0.3,0.7-0.5,1c-0.3,0.5-0.5,1.1-0.6,1.7c-0.1,0.6-0.3,1.2-0.6,1.8
		c-0.1,0.4-0.3,0.7-0.5,1c-0.2,0.3-0.4,0.7-0.5,1c-0.3,0.8-0.7,1.4-1.2,1.9c-0.3,0.3-0.7,0.5-1,0.5c-0.3,0.1-0.7,0.1-1.1,0.1
		c-0.4,0-0.8-0.1-1.2-0.4c-0.4-0.3-0.7-0.5-0.9-0.8c-0.2-0.2-0.5-0.6-0.6-0.9c-0.2-0.4-0.3-0.8-0.4-1.2c-0.1-0.6-0.3-1.2-0.6-1.7
		c-0.3-0.5-0.5-1-0.6-1.6c-0.2-1-0.6-1.9-1-2.7c-0.5-0.8-0.8-1.7-1-2.7c-0.1-0.2-0.2-0.5-0.3-0.8c-0.1-0.3-0.2-0.5-0.3-0.8
		c-0.1-0.2-0.2-0.4-0.3-0.5c-0.1-0.2-0.3-0.3-0.4-0.5c-0.2-0.2-0.5-0.3-0.8-0.2c-0.2,0.1-0.3,0.3-0.3,0.6c0,0.3-0.1,0.6-0.1,0.9
		c0,0.3,0,0.6,0,0.9c0,0.5,0,0.9,0.1,1.4c0.1,0.5,0.1,0.9,0,1.3c-0.1,1-0.2,1.9-0.1,2.9c0.1,1,0.1,1.9,0.1,2.9c0,0.3,0,0.6-0.1,0.9
		c-0.1,0.3-0.1,0.6,0,0.8c0.2,0.8,0.3,1.5,0,2.3c-0.2,0.8-0.2,1.5,0.1,2.2c0,0.1,0,0.2-0.1,0.2c-0.1,0.3-0.2,0.7-0.2,1
		c0,0.3,0.1,0.7,0.2,1c0.1,0.6,0.2,1.2,0.1,1.7c-0.1,0.6-0.1,1.2-0.1,1.7c0,0.4,0,0.8-0.1,1.2c-0.1,0.4-0.1,0.8,0,1.2
		c0,0.2,0,0.5-0.1,0.7c0,0.2-0.2,0.4-0.4,0.5c-0.3,0.2-0.7,0.5-1,0.7c-0.3,0.2-0.7,0.4-1,0.5c-0.6,0.2-1.3,0.2-2,0
		c-0.7-0.3-1.2-0.7-1.4-1.3c-0.1-0.2-0.2-0.5-0.2-0.8c0-0.3-0.2-0.5-0.5-0.6v-1.3c0.1-0.4,0.2-0.9,0.1-1.3c0-0.5,0-0.9,0.1-1.3
		c0-0.2,0-0.4-0.2-0.6v-1.1c0.1-0.5,0.2-1,0.3-1.4c0.1-0.5,0-1-0.3-1.5V51c0.3-0.2,0.3-0.5,0-0.9v-0.9c0.2-0.2,0.2-0.5,0-0.9v-0.9
		c0.2-0.1,0.3-0.4,0.3-0.6c0-1.2,0-2.4,0-3.7c0-0.2,0-0.4,0-0.6c0-0.2-0.1-0.4-0.3-0.6v-3c0.1-0.3,0.2-0.6,0.3-0.9
		c0.1-0.3,0-0.6-0.3-0.9v-0.6C78.2,36.1,78.2,35.7,77.8,35.4z M78.8,51C78.7,51,78.7,51,78.8,51l-0.1-0.1c-0.1,0-0.1,0.1-0.1,0.2
		l0.1,0.1C78.7,51.2,78.8,51.1,78.8,51z M78.6,46.9L78.6,46.9L78.6,46.9L78.6,46.9z M79.3,22.8c0-0.1,0-0.2-0.1-0.2
		c-0.1,0-0.2,0-0.2,0.1c0,0.1,0.1,0.2,0.2,0.2C79.3,23,79.3,22.9,79.3,22.8z M79.4,53.6c-0.1,0.1-0.2,0.2-0.2,0.2
		c0,0.1,0.1,0.2,0.2,0.2s0.2-0.1,0.2-0.2L79.4,53.6z M79.4,41.9L79.3,42l0.1,0.1c0,0,0-0.1,0-0.1C79.4,42,79.4,42,79.4,41.9
		L79.4,41.9z M80.1,24.8c0-0.2-0.1-0.3-0.2-0.3c-0.3,0-0.4,0.1-0.3,0.4c0,0.2,0.1,0.3,0.2,0.2C80,25.1,80.1,25,80.1,24.8z
		 M80.4,49.2C80.3,49.2,80.3,49.2,80.4,49.2c-0.1-0.1-0.1-0.1-0.1-0.1l-0.1,0.1c-0.1,0.1,0,0.2,0.1,0.2L80.4,49.2z M80.7,60.6
		c0-0.1-0.1-0.1-0.2-0.1l-0.1,0.1c-0.1,0.1,0,0.2,0.1,0.2C80.5,60.7,80.6,60.7,80.7,60.6z M80.7,50.3L80.7,50.3l-0.1-0.1h-0.1
		l-0.1,0.1c-0.1,0.1-0.1,0.2,0.1,0.2C80.7,50.5,80.7,50.4,80.7,50.3z M80.9,30.8c0-0.2-0.1-0.3-0.2-0.3s-0.2,0.1-0.2,0.3
		c0,0,0,0.1,0.1,0.2C80.8,31,80.9,31,80.9,30.8z M81.4,37.9c-0.1-0.2-0.2-0.3-0.4-0.2c-0.3,0-0.4,0.1-0.4,0.4c0,0.1,0,0.2,0.1,0.2
		c0.1,0,0.2,0,0.3,0C81.2,38.3,81.4,38.2,81.4,37.9z M80.8,51.6c0-0.1,0-0.1-0.1-0.1c-0.1,0-0.2,0-0.2,0.1c0,0.1,0,0.1,0.1,0.1
		C80.7,51.8,80.8,51.7,80.8,51.6z M80.8,13.6c0-0.1,0-0.2-0.1-0.2c0,0,0,0.1-0.1,0.1c0,0-0.1,0-0.1,0.1l0.1,0.1
		C80.7,13.8,80.8,13.8,80.8,13.6z M81.1,16.6l-0.1-0.1l-0.1,0.1C80.9,16.6,80.9,16.6,81.1,16.6L81.1,16.6z M81.6,29
		c-0.3,0.1-0.5,0.2-0.4,0.4c0,0.3,0.1,0.5,0.3,0.4c0.2,0,0.4,0,0.5,0.1c0.2,0,0.3-0.1,0.3-0.2c0-0.2-0.2-0.4-0.4-0.4
		C81.9,29.2,81.7,29.2,81.6,29z M81.8,22.1L81.7,22c-0.1-0.1-0.2-0.1-0.3,0c0,0,0,0.1,0,0.1c0,0,0,0.1,0,0.1
		C81.6,22.2,81.7,22.2,81.8,22.1z M81.9,40.6c0.2-0.1,0.3-0.2,0.3-0.4c0-0.2-0.1-0.2-0.3-0.1c-0.2,0-0.4,0.1-0.4,0.3
		C81.6,40.5,81.7,40.6,81.9,40.6z M81.6,46.2l-0.1,0.1c0,0,0.1,0.1,0.1,0.1c0,0,0.1,0,0.1,0.1c0,0,0-0.1,0-0.1c0,0,0-0.1,0-0.1
		C81.8,46.2,81.7,46.2,81.6,46.2z M81.9,31.5c0-0.1-0.1-0.2,0-0.3c0-0.1,0-0.1-0.1-0.2h-0.1c0,0.1,0,0.2,0.1,0.2
		C81.8,31.4,81.9,31.4,81.9,31.5c0,0,0.1,0.1,0.1,0.2c0,0.3,0.1,0.4,0.4,0.3c0.1-0.1,0.1-0.2,0.1-0.3c0-0.1-0.2-0.2-0.4-0.2H81.9z
		 M81.9,43.8c-0.1,0-0.2,0-0.2,0.1c0,0.1,0,0.1,0.1,0.1c0.1,0,0.2,0,0.3-0.1C82,44,82,43.9,81.9,43.8z M81.9,42.2
		c-0.1,0-0.2,0-0.1,0.1c0,0,0.1,0,0.1,0c0,0,0.1,0,0.1-0.1C82,42.3,81.9,42.3,81.9,42.2C81.9,42.2,81.9,42.2,81.9,42.2z M81.9,21
		c-0.1,0.1-0.2,0.2-0.1,0.2c0,0.1,0,0.1,0.1,0.1c0.1,0,0.1-0.1,0.1-0.2L81.9,21z M82,27.1c0,0,0.1,0,0.1-0.1c0,0-0.1,0-0.1,0
		c0,0,0,0-0.1,0l-0.1,0.1C81.9,27.1,82,27.1,82,27.1z M82.1,18.4c0.2,0.1,0.3,0,0.3-0.1l-0.1-0.1C82.2,18.1,82.1,18.2,82.1,18.4
		L82,18.5v0.1C82.1,18.5,82.1,18.5,82.1,18.4z M83.1,24.4c0-0.1-0.1-0.2-0.2-0.2s-0.2,0-0.2,0.1c0,0.2,0,0.3,0.2,0.3
		C83,24.6,83.1,24.6,83.1,24.4z M83.1,35.4c0,0-0.1,0-0.1-0.1l-0.1,0.1c0,0.1,0,0.1,0.1,0.1C83.1,35.4,83.1,35.4,83.1,35.4z
		 M83.2,23c0.2,0,0.3-0.1,0.3-0.2c0.1-0.2,0-0.3-0.2-0.3c-0.2,0-0.3,0.1-0.3,0.2C83,22.9,83.1,23,83.2,23z M83.4,50.7
		C83.4,50.6,83.4,50.6,83.4,50.7l-0.1-0.2l-0.1,0.1L83.4,50.7z M83.4,56.9c0,0-0.1,0-0.1,0.1c0,0,0.1,0,0.1,0c0,0,0,0,0.1,0
		c0,0,0.1,0,0.1-0.1V57C83.5,56.9,83.4,56.9,83.4,56.9z M83.3,59.8c0,0,0.1-0.1,0.1-0.1c0-0.1,0-0.2-0.1-0.1V59.8L83.3,59.8z
		 M83.6,24.6H84c0.2-0.1,0.3-0.2,0.2-0.2c0,0-0.1-0.1-0.3-0.1L83.6,24.6z M84,18.5L84,18.5c0.1,0,0-0.1-0.1-0.2
		c-0.1,0-0.2,0-0.1,0.1C83.9,18.5,83.9,18.5,84,18.5z M83.9,56L83.9,56L83.9,56L83.9,56z M86,27.9l-0.1-0.1c-0.2,0-0.5,0.1-0.7,0.1
		c-0.2,0-0.4,0-0.6,0.1c-0.2,0.1-0.4,0.3-0.5,0.5c-0.2,0.2-0.2,0.4,0,0.6c0.1,0.1,0.3,0.2,0.5,0.1c0.3-0.1,0.5-0.2,0.6-0.5
		c0.1-0.2,0.3-0.3,0.6-0.4C85.9,28.2,86,28.1,86,27.9z M84.4,21c0.1-0.1,0.1-0.1-0.1-0.1c-0.1-0.1-0.2-0.1-0.2,0.1
		c0,0.1,0,0.1,0.1,0.1C84.3,21.2,84.4,21.1,84.4,21z M85.9,33.9c0-0.1-0.2-0.2-0.4-0.4c-0.1,0-0.2-0.1-0.3,0c-0.1,0-0.1,0.1,0,0.2
		c0,0.1,0.1,0.2,0.4,0.3C85.7,34,85.8,34,85.9,33.9z M85.8,30.7c-0.1,0.1-0.1,0.1,0.1,0.1s0.3,0,0.4-0.1c0,0,0.1,0,0-0.1
		c0,0-0.1-0.1-0.1-0.1C86,30.4,85.8,30.5,85.8,30.7z M86.4,26.8c0-0.2-0.1-0.3-0.2-0.3S86,26.6,86,26.8c0,0.2,0.1,0.3,0.2,0.3
		S86.4,27,86.4,26.8z M86.2,32.8c0-0.1-0.1-0.1-0.2-0.1v0.1C86.1,32.7,86.2,32.7,86.2,32.8c0,0.1,0,0.3,0,0.4c0,0.1,0.1,0.2,0.4,0.2
		c0.2,0,0.3-0.2,0.2-0.4C86.7,32.7,86.5,32.6,86.2,32.8z M87.4,28.2c0.1-0.1,0-0.3-0.2-0.4c-0.1-0.1-0.3,0-0.4,0.1
		c-0.1,0.2,0,0.3,0.2,0.4C87.2,28.5,87.3,28.5,87.4,28.2z M88,36.8c0-0.2,0-0.4-0.3-0.4c-0.2-0.1-0.4,0-0.5,0.2
		c-0.1,0.2,0,0.4,0.2,0.4c0.1,0.1,0.3,0.1,0.3,0C87.8,37,87.9,36.9,88,36.8z M88.5,35.2c-0.1-0.2-0.2-0.3-0.3-0.3
		c-0.2,0-0.3,0.1-0.3,0.3c0,0.2,0.1,0.3,0.4,0.3C88.3,35.5,88.4,35.4,88.5,35.2z M88.3,31c0,0-0.1-0.1-0.2-0.1c-0.1,0-0.2,0-0.1,0.1
		l0.1,0.1L88.3,31z M88.9,28.9v-0.1l-0.1-0.1h-0.1c-0.1,0.1-0.1,0.2,0,0.2H88.9L88.9,28.9z M89.5,41.8L89.5,41.8v-0.1
		C89.4,41.7,89.4,41.7,89.5,41.8z M90,38c-0.1,0.1-0.2,0.1-0.4,0c-0.1-0.1-0.2-0.1-0.2,0.1c0,0.4,0.2,0.6,0.6,0.6
		c0.3,0,0.4-0.1,0.4-0.4C90.4,37.9,90.2,37.9,90,38z M89.7,33.6L89.7,33.6c0-0.1-0.1-0.1-0.1-0.1L89.7,33.6L89.7,33.6z M91.9,35.7
		C91.8,35.7,91.8,35.7,91.9,35.7c-0.1-0.1-0.1-0.1-0.1-0.1l-0.1,0.1c0,0,0.1,0.1,0.1,0.1L91.9,35.7z M91.9,41.8
		c0.1-0.1,0.1-0.2,0.1-0.2c0,0-0.1-0.1-0.1-0.1c0,0-0.1,0-0.2,0.1C91.7,41.6,91.7,41.7,91.9,41.8z M91.9,43.5
		c-0.2,0-0.3,0.1-0.2,0.3c0,0.2,0.1,0.3,0.3,0.3c0.1,0,0.2-0.1,0.2-0.3C92.2,43.6,92.1,43.5,91.9,43.5z M92.7,44.1
		c0.1-0.1,0.1-0.2,0.1-0.3l-0.1-0.1h-0.1c-0.1,0.1-0.1,0.2-0.1,0.3C92.5,44.2,92.6,44.2,92.7,44.1z M93.7,42L93.7,42
		C93.6,42.1,93.6,42.1,93.7,42C93.7,42.1,93.7,42.1,93.7,42z M94.6,48.1c0.1,0,0.2,0,0.1-0.1c0-0.1,0-0.1-0.1-0.1s-0.2,0-0.2,0.1
		C94.4,48,94.5,48.1,94.6,48.1z M95.8,40.9c0-0.2-0.1-0.4-0.3-0.5c-0.1,0-0.2,0-0.3,0.3c0,0.3,0.1,0.5,0.3,0.5
		C95.7,41.2,95.8,41.1,95.8,40.9z M95.5,48.1L95.4,48c-0.1,0-0.2,0-0.2,0.1c0,0,0,0.1,0.1,0.2C95.4,48.3,95.4,48.2,95.5,48.1z
		 M96.2,37.7c0.1,0,0.2-0.1,0.2-0.3c0-0.2-0.1-0.2-0.3-0.1c-0.2,0-0.3,0.1-0.2,0.2C95.9,37.6,96,37.7,96.2,37.7z M97.5,41.7
		c-0.1,0-0.2,0.1-0.3,0.1c-0.1,0-0.3,0-0.4,0c-0.2,0-0.4,0-0.5,0c-0.2,0.1-0.3,0.2-0.3,0.4c0.1,0.4,0.4,0.5,0.9,0.4
		c0.4-0.1,0.7-0.2,0.9-0.4c0.2-0.1,0.3-0.2,0.2-0.4C97.8,41.7,97.7,41.6,97.5,41.7z M96.6,40.4v-0.1c-0.2,0-0.3,0-0.3,0.2v0.1
		c0.1,0,0.2,0,0.2,0C96.5,40.5,96.5,40.4,96.6,40.4z M96.5,43.4l0.1-0.1v-0.1c-0.1,0-0.2,0-0.2,0.1C96.5,43.3,96.5,43.4,96.5,43.4z
		 M96.8,36.4l-0.1-0.1c0,0,0,0.1-0.1,0.1L96.8,36.4C96.8,36.5,96.8,36.4,96.8,36.4z M96.9,34.4c0,0.2,0.1,0.3,0.2,0.3
		c0.2,0,0.3-0.1,0.3-0.3c0-0.1,0-0.2-0.2-0.2C97,34.2,96.9,34.2,96.9,34.4z M98.1,36.2c0-0.1-0.1-0.2-0.2-0.2s-0.2,0.1-0.2,0.2
		c0,0.1,0.1,0.1,0.2,0.1S98.1,36.3,98.1,36.2z M98.4,28.7c0.3-0.1,0.4-0.2,0.4-0.4c0-0.1-0.1-0.2-0.3-0.2c-0.3,0.1-0.4,0.2-0.4,0.4
		C98.2,28.7,98.3,28.8,98.4,28.7z M98.9,33.3c0-0.2-0.1-0.3-0.3-0.3l-0.1,0.1c-0.1,0.2,0,0.3,0.2,0.3C98.9,33.4,98.9,33.4,98.9,33.3
		z M99,39.5L99,39.5h-0.1c0,0,0,0.1,0,0.1C98.9,39.7,98.9,39.6,99,39.5C99,39.6,99,39.6,99,39.5z M100.4,37.7c0-0.1,0-0.1-0.1-0.1
		l-0.1,0.1c-0.1,0.1,0,0.2,0.1,0.2C100.4,37.8,100.4,37.8,100.4,37.7C100.4,37.8,100.4,37.8,100.4,37.7z M101.2,32.2
		c0-0.2-0.1-0.4-0.4-0.4c-0.2,0-0.4,0.1-0.4,0.4c0,0.3,0.1,0.4,0.4,0.4C100.9,32.7,101.1,32.5,101.2,32.2z M101.2,26.6
		c-0.1-0.2-0.2-0.3-0.4-0.2c-0.1,0-0.2,0.1-0.2,0.3c0,0.2,0.1,0.3,0.4,0.3C101.1,27,101.2,26.9,101.2,26.6z M101,21.5
		c0.1,0,0.1,0,0-0.1c0,0,0-0.1-0.1-0.1c0,0,0,0.1,0,0.1c0,0,0,0,0,0.1C100.9,21.5,101,21.5,101,21.5z M101.4,24.8
		c0.1,0,0.2-0.1,0.2-0.3c0-0.1-0.1-0.1-0.2-0.1c-0.2,0-0.3,0.2-0.2,0.4C101.2,24.9,101.3,24.9,101.4,24.8z M102.9,31.6
		c0-0.2,0-0.3-0.1-0.3c-0.2,0-0.4,0.1-0.4,0.3c0,0.2-0.1,0.3-0.3,0.4c0,0.1,0,0.2,0.1,0.1C102.6,32,102.8,31.8,102.9,31.6z
		 M102.7,21.3c0-0.2-0.2-0.3-0.4-0.3l-0.1,0.1l-0.1,0.1c0,0.1,0.1,0.2,0.2,0.2C102.6,21.4,102.6,21.4,102.7,21.3z M103.5,23.3
		c0-0.1-0.2-0.3-0.5-0.4c0,0-0.1,0-0.1,0c0,0,0,0.1,0,0.1c0,0.1,0.1,0.2,0.1,0.4c0,0.1,0.2,0.2,0.4,0.1
		C103.5,23.5,103.6,23.4,103.5,23.3z M103,35.8L103,35.8L103,35.8C102.9,35.8,102.9,35.9,103,35.8L103,35.8z M103.6,32.8
		c0-0.1-0.2-0.1-0.4-0.1c-0.2,0-0.3,0.1-0.2,0.2c0,0.1,0.2,0.1,0.4,0.1C103.5,33,103.6,32.9,103.6,32.8z M103.6,21.9
		c0.1,0,0.2-0.1,0.4-0.4c0-0.1,0-0.2-0.1-0.2c-0.1,0-0.2,0.1-0.3,0.1s-0.1,0.1-0.1,0.2C103.3,21.7,103.4,21.8,103.6,21.9z
		 M103.8,36.8L103.8,36.8l-0.1-0.1l-0.1,0.1C103.7,36.9,103.7,36.9,103.8,36.8z M104.4,44.4c0-0.2-0.2-0.3-0.4-0.3
		c-0.1,0-0.1,0.1-0.1,0.2c0.1,0.2,0.2,0.4,0.4,0.4C104.3,44.7,104.4,44.6,104.4,44.4z M104.6,30.4c-0.1-0.1-0.2-0.2-0.2-0.3
		c0-0.1-0.1-0.2-0.2-0.3c-0.1,0-0.2,0-0.2,0c0,0,0,0.1,0,0.2c0,0.1,0.1,0.3,0.1,0.4c0,0.1,0.1,0.2,0.3,0.2
		C104.5,30.7,104.6,30.6,104.6,30.4z M104.1,22.8L104.1,22.8c-0.1-0.1-0.1,0-0.1,0H104.1L104.1,22.8z M104.3,48.2
		c0.1,0,0.2-0.1,0.2-0.2l-0.1-0.1c-0.1,0-0.2,0-0.2,0.1C104.1,48.1,104.1,48.2,104.3,48.2z M104.3,40.8L104.3,40.8
		c-0.1,0-0.1,0.1-0.1,0.1L104.3,40.8L104.3,40.8z M104.5,19.3c0,0-0.1-0.1-0.1-0.1c0,0-0.1,0-0.1,0.1c0,0.1,0,0.1,0.1,0.1
		C104.4,19.4,104.5,19.4,104.5,19.3z M104.5,52.2L104.5,52.2c-0.2-0.1-0.2,0-0.1,0.1L104.5,52.2L104.5,52.2z M104.9,33.9
		c0.1-0.2,0-0.3-0.2-0.3c-0.2,0-0.3,0.1-0.3,0.2c0,0.2,0.1,0.3,0.2,0.3C104.8,34.1,104.9,34.1,104.9,33.9z M104.8,26.2
		c-0.2,0-0.3,0-0.3,0.1c0,0.1,0.1,0.1,0.2,0.1s0.2,0,0.2-0.1L104.8,26.2z M104.9,28.4C104.9,28.3,104.9,28.3,104.9,28.4L104.9,28.4
		C104.9,28.4,104.9,28.4,104.9,28.4z M105.4,31.8c0.1,0,0.2-0.1,0.3-0.1c0.1,0,0.2-0.1,0.2-0.3c0-0.2-0.2-0.4-0.5-0.4
		c-0.3,0-0.4,0.1-0.4,0.4C104.9,31.6,105.1,31.8,105.4,31.8z M105.1,35.4C105.1,35.3,105.1,35.3,105.1,35.4c0-0.1,0-0.1,0-0.1
		c0,0-0.1,0-0.1,0v0.1H105.1z M105.6,14.5c0,0-0.1-0.1-0.1-0.1c0,0,0-0.1-0.1-0.1c-0.1,0-0.2,0.1-0.3,0.3c0,0.1,0.1,0.2,0.2,0.2
		C105.4,14.8,105.5,14.7,105.6,14.5z M105.8,32.8c0-0.2-0.1-0.3-0.2-0.3c-0.3,0-0.4,0.1-0.3,0.4c0,0.2,0.1,0.4,0.3,0.4
		C105.7,33.3,105.8,33.1,105.8,32.8z M105.3,54.8c0,0-0.1,0.1-0.1,0.1c0,0,0.1,0.1,0.2,0.1c0,0,0.1,0,0.1-0.1
		C105.5,54.8,105.4,54.8,105.3,54.8z M105.5,42.1L105.5,42.1L105.5,42.1L105.5,42.1z M105.5,24.3L105.5,24.3
		C105.5,24.4,105.6,24.4,105.5,24.3c0.1,0.1,0.1,0.1,0.1,0C105.6,24.3,105.6,24.3,105.5,24.3L105.5,24.3z M105.5,30
		c0.2-0.2,0.4-0.4,0.6-0.5c0.1-0.1,0.2-0.3,0.1-0.4c0-0.1-0.1-0.1-0.2-0.1c-0.2,0-0.4,0.1-0.4,0.4L105.5,30L105.5,30z M105.6,34.1
		L105.6,34.1c0.2,0.1,0.2,0,0.2-0.1l-0.1-0.1C105.6,34,105.6,34,105.6,34.1z M105.8,16.6C105.8,16.6,105.8,16.6,105.8,16.6
		c0.1,0,0.2,0,0.2,0l-0.1-0.1C105.8,16.5,105.8,16.5,105.8,16.6z M106.9,22.1c-0.1-0.3-0.3-0.4-0.5-0.4c-0.1,0-0.2,0-0.3,0
		c-0.1,0-0.1,0-0.1,0.2c0,0.2,0.2,0.4,0.5,0.5C106.7,22.5,106.8,22.4,106.9,22.1z M106.2,34.3L106.2,34.3L106.2,34.3L106.2,34.3
		C106.3,34.4,106.2,34.3,106.2,34.3z M106.6,61.1c-0.1-0.2-0.2-0.2-0.4-0.1c-0.1,0-0.1,0.1-0.1,0.2c0,0.1,0.1,0.2,0.3,0.2
		C106.6,61.3,106.6,61.2,106.6,61.1z M106.4,30.2c-0.1,0-0.2,0-0.2,0.1l0.1,0.1L106.4,30.2L106.4,30.2z M106.5,31.8L106.5,31.8
		c-0.1-0.1-0.1,0-0.1,0H106.5C106.4,31.8,106.4,31.8,106.5,31.8z M106.8,39.8c0-0.2-0.1-0.3-0.3-0.3c-0.1,0.1-0.2,0.2-0.2,0.3
		c0,0.2,0.1,0.4,0.3,0.4C106.8,40.1,106.8,40,106.8,39.8z M106.4,25.8L106.4,25.8L106.4,25.8L106.4,25.8z M106.6,20.2
		c0.1,0,0.1,0,0.1-0.1c0-0.1,0-0.1-0.1-0.1c-0.1-0.1-0.1-0.1-0.1,0.1C106.6,20.1,106.6,20.2,106.6,20.2z M106.8,36.4
		c0,0,0-0.1-0.1-0.1l-0.1,0.1c0,0,0,0.1,0,0.1c0,0,0,0,0,0.1L106.8,36.4z M107.1,52.6c-0.1-0.1-0.2-0.1-0.3-0.1
		c-0.1,0.1-0.1,0.2-0.1,0.2c0,0.1,0.1,0.1,0.2,0.1S107.1,52.8,107.1,52.6z M107.1,30.1c0-0.1,0-0.2-0.1-0.2c-0.1,0-0.2,0.1-0.2,0.2
		c0,0,0.1,0.1,0.1,0.1C106.9,30.1,107,30.1,107.1,30.1z M108.1,43.9c0-0.3-0.1-0.4-0.4-0.3c-0.1,0-0.2,0-0.4,0s-0.2,0-0.3,0.2
		c0,0.2,0.2,0.3,0.5,0.3C107.9,44.2,108.1,44.1,108.1,43.9z M107.6,35.8c0.2-0.1,0.3-0.2,0.2-0.4c0-0.1-0.1-0.2-0.2-0.2
		c-0.2,0-0.3,0.1-0.3,0.4C107.3,35.7,107.4,35.8,107.6,35.8z M107.9,15c0.1,0,0.2-0.1,0.2-0.2c0-0.1,0-0.2-0.1-0.2
		c-0.2,0-0.3,0.1-0.3,0.2S107.8,15,107.9,15z M107.7,23.9L107.7,23.9L107.7,23.9L107.7,23.9z M108.7,26.1c0-0.2-0.1-0.3-0.2-0.3
		c-0.1,0-0.2,0-0.2,0.2c0,0.1,0.1,0.2,0.2,0.3C108.6,26.4,108.7,26.3,108.7,26.1z M108.7,50.3L108.7,50.3L108.7,50.3
		C108.8,50.3,108.8,50.4,108.7,50.3c0,0.1,0,0.1,0.1,0.1C108.8,50.4,108.8,50.4,108.7,50.3C108.8,50.3,108.8,50.3,108.7,50.3z"/>
	<path class="st0" d="M116.4,56.4v-0.9c0.2-0.4,0.3-0.9,0.3-1.3c-0.1-0.5-0.1-0.9,0-1.3c0-0.3,0-0.7,0.1-1c0-0.3,0-0.6-0.3-0.9v-1.9
		c0.2-0.2,0.2-0.5,0-0.6v-1.1c0.3-0.3,0.3-0.7,0-1.1v-1.7c0.5-0.6,0.5-1.2,0-1.9V42c0.3-0.3,0.4-0.7,0.3-1c-0.1-0.3-0.2-0.6-0.3-0.9
		v-0.9c0.2-0.2,0.3-0.5,0.4-0.6c0-0.2-0.1-0.4-0.4-0.6v-0.4c0.2-0.2,0.3-0.3,0.2-0.4c0-0.4-0.1-0.9,0-1.3c0-0.4,0-0.8,0-1.2
		c0-0.1-0.1-0.3-0.2-0.4v-0.2c0.1-0.2,0.2-0.5,0.2-0.6c0-0.2,0-0.4-0.2-0.6v-1.7c0.4-1,0.4-1.8,0-2.6v-3c0.2-0.1,0.3-0.4,0.2-0.6
		c0-0.4,0-0.8,0-1.2c0-0.4,0.1-0.8,0.1-1.2c0-0.4,0.1-0.8,0.1-1.2c0-0.4,0.1-0.8,0.3-1.2c0.3-0.9,0.8-1.8,1.4-2.8
		c0.2-0.3,0.4-0.7,0.6-1c0.2-0.3,0.4-0.6,0.7-0.9c0.2-0.2,0.5-0.3,0.7-0.4s0.5-0.2,0.6-0.4c1-1.1,2.2-1.7,3.7-1.8
		c0.2,0,0.4-0.1,0.6-0.1c0.2,0,0.3-0.1,0.4-0.3h1.1c0,0.1,0,0.2,0,0.3c0,0.1,0.1,0.2,0.2,0.1c0.2-0.1,0.5-0.1,0.7-0.1
		s0.4-0.1,0.6-0.3h0.4c0.1,0.2,0.4,0.3,0.7,0.3c0.9,0.2,1.8,0.5,2.5,0.9c0.8,0.4,1.6,0.8,2.4,1.2c0.2,0,0.4,0.2,0.5,0.4
		c0.1,0.2,0.3,0.4,0.5,0.6c0.2,0.2,0.3,0.3,0.5,0.5c0.7,0.7,1.2,1.4,1.5,2.3c0.3,0.9,0.6,1.8,0.9,2.7c0.2,0.7,0.3,1.4,0.2,2.1
		c-0.1,0.7-0.1,1.4-0.1,2.1c0,0.6-0.1,1.2-0.1,1.8c0,0.6,0,1.2,0.1,1.8c0.1,1,0.2,1.9,0,2.9c-0.1,1-0.1,2,0.2,2.9
		c-0.2,0.7-0.3,1.4-0.2,2.1c0.1,0.7,0.1,1.4,0.1,2.1c0,0.4,0,0.8-0.1,1.2s0,0.9,0.1,1.3c0,0.3,0,0.6-0.1,0.9c-0.1,0.5-0.1,0.9,0,1.4
		c0.1,0.8,0.2,1.6,0.1,2.4c0,0.8,0,1.6,0.1,2.4c0,0.4,0,0.9-0.1,1.3c-0.1,0.4-0.2,0.8-0.1,1.2c0,0.3,0.1,0.7,0.1,1
		c0,0.3,0,0.7-0.1,1c-0.1,0.3-0.1,0.6,0,0.8c0.3,0.7,0.3,1.4,0.2,2.2c-0.2,0.7-0.2,1.4-0.1,2.2c0,0.4,0,0.8,0,1.2
		c0,0.4-0.1,0.8-0.1,1.3c0,0.3-0.1,0.7-0.1,1c0,0.4-0.2,0.7-0.4,0.9c-0.3,0.3-0.6,0.6-0.8,0.9c-0.3,0.3-0.6,0.5-1,0.6h-0.2
		c-0.1-0.2-0.2-0.3-0.4-0.3c-0.2,0-0.3,0-0.5,0c-0.9,0-1.6-0.4-2.2-1c-0.6-0.6-0.9-1.4-0.9-2.2c0-1.4,0.1-2.8,0.1-4.1
		c0-1.3,0-2.7-0.1-4.1c0-0.4,0-0.8,0-1.2s0-0.8,0.1-1.2c0.1-0.4,0.1-0.6,0.1-0.8c0-0.1-0.1-0.3-0.3-0.7c0-0.1-0.1-0.2-0.1-0.3
		c0-0.1-0.1-0.2-0.1-0.3c-0.1-0.7-0.4-1.2-0.9-1.4c-0.5-0.3-1-0.5-1.6-0.6c-0.8-0.2-1.6-0.3-2.4-0.1c-0.8,0.1-1.5,0.2-2.3,0.3
		c-0.1,0-0.2,0.1-0.2,0.1c0,0-0.1,0.1-0.1,0.1c-0.3,0.5-0.6,1.1-0.9,1.7c-0.3,0.6-0.4,1.2-0.2,1.9c0,0.1,0,0.2-0.1,0.3
		c-0.2,0.3-0.3,0.6-0.3,0.9c0,0.3,0.1,0.6,0.2,1c0.1,0.5,0,0.8-0.3,1.1c-0.1,0.1-0.2,0.2-0.3,0.3c-0.1,0.1-0.1,0.2,0,0.4
		c0.5,0.5,0.7,1.1,0.6,1.7c-0.1,0.6-0.2,1.2-0.4,1.8c0,0.2,0,0.4,0,0.6c0.2,0.5,0.3,1.1,0.3,1.7c0,0.6-0.1,1.2-0.1,1.7
		c0,0.5-0.2,1-0.7,1.5c-0.5,0.5-0.9,0.8-1.4,0.9c-0.6,0.1-1.1,0.1-1.6,0.1c-0.5,0-1-0.2-1.5-0.6c-0.2-0.2-0.4-0.4-0.6-0.6
		c-0.1-0.2-0.3-0.4-0.4-0.7c-0.2-0.7-0.3-1.4-0.3-2.2c0-0.7,0.1-1.4,0.2-2.2c0.1,0,0.2,0,0.2-0.1c0,0-0.1,0.1-0.2,0.1
		c-0.1-0.1-0.1-0.3-0.1-0.5C116.7,56.6,116.6,56.5,116.4,56.4z M116.9,42l0.1-0.1c0,0,0-0.1-0.1-0.2c-0.1,0-0.1,0-0.1,0.1
		C116.9,41.9,116.9,41.9,116.9,42z M117.1,55.7L117.1,55.7L117.1,55.7c0,0,0,0.1,0,0.1c0,0,0,0.1,0,0.1c0,0.2,0.1,0.3,0.2,0.3
		c0.1,0.1,0.2,0.1,0.2-0.1c0.1-0.1,0.1-0.3-0.1-0.4c0,0-0.1-0.1-0.1-0.1C117.2,55.7,117.1,55.7,117.1,55.7z M118,47.4
		c-0.1-0.1-0.2-0.2-0.3-0.1c-0.1,0-0.2,0.1-0.2,0.2s0.1,0.2,0.3,0.2C117.9,47.7,118,47.6,118,47.4z M117.9,38.4
		c0-0.1-0.1-0.1-0.2-0.1h-0.1l-0.1,0.1c0,0,0,0.1,0.1,0.2C117.8,38.5,117.9,38.5,117.9,38.4z M118,22c-0.2,0.1-0.3,0.2-0.3,0.3
		l0.1,0.1C117.9,22.3,118,22.2,118,22h0.3l-0.1-0.1c0,0-0.1,0-0.1,0C118.1,22,118.1,22,118,22z M118.3,59.9c-0.1,0-0.1,0.1-0.1,0.2
		c0,0.1,0.1,0.2,0.3,0.2c0.2,0,0.3-0.1,0.1-0.2C118.6,59.9,118.5,59.8,118.3,59.9z M118.9,32.8c0-0.1,0-0.2-0.1-0.2
		c-0.1,0-0.2-0.1-0.3-0.1c-0.2-0.1-0.3-0.1-0.3,0c0,0.1,0.2,0.3,0.5,0.4C118.8,32.9,118.9,32.8,118.9,32.8z M118.7,25.4l0.1-0.1
		c0-0.1,0-0.1-0.1-0.1h-0.1C118.6,25.3,118.6,25.4,118.7,25.4z M118.9,41.3c0,0,0.1,0,0.1-0.1c0,0,0-0.1,0-0.1c0,0-0.1,0-0.1,0
		l-0.1,0.1C118.8,41.3,118.8,41.3,118.9,41.3z M119,18c0,0-0.1-0.1-0.1-0.1l-0.1,0.1C118.9,18,118.9,18.1,119,18L119,18z M119.3,57
		c0-0.1,0-0.2-0.1-0.2c-0.1,0-0.1,0-0.1,0.1c0,0,0,0.1,0.1,0.2C119.2,57.2,119.3,57.1,119.3,57z M119.3,54.5c0,0,0-0.1,0-0.1
		c0,0,0-0.1,0-0.1l-0.1,0.1c0,0.1,0,0.1,0.1,0.1H119.3z M119.4,28c-0.1,0-0.2,0-0.3,0.1c0,0.2,0.1,0.3,0.2,0.2c0.1,0,0.2,0,0.2-0.1
		L119.4,28z M119.8,37.6c-0.1-0.2-0.2-0.3-0.4-0.2c-0.1,0.1-0.1,0.2-0.1,0.2c-0.1,0.1,0,0.2,0.2,0.2
		C119.7,37.8,119.8,37.7,119.8,37.6z M119.4,52.4c0,0,0,0.1,0,0.1c0,0,0,0.1,0,0.1c0.1,0,0.2,0,0.2-0.1c0-0.1,0-0.2-0.1-0.2
		C119.5,52.3,119.5,52.4,119.4,52.4C119.5,52.4,119.5,52.4,119.4,52.4z M119.7,47c0,0,0,0.1-0.1,0.1c-0.1,0.1,0,0.2,0.1,0.2l0.1-0.1
		L119.7,47z M119.8,16.4c0,0.2,0.1,0.2,0.2,0.1c0.1,0,0.2,0,0.2-0.1c0-0.2-0.1-0.3-0.3-0.2C119.9,16.2,119.8,16.3,119.8,16.4z
		 M120.4,53.4l-0.1-0.1c-0.1,0-0.1,0-0.1,0.1v0.1c0,0,0.1,0,0.1,0C120.3,53.4,120.3,53.4,120.4,53.4z M120.5,32.7L120.5,32.7
		c-0.1-0.1-0.2-0.1-0.2-0.1C120.2,32.7,120.3,32.8,120.5,32.7C120.4,32.7,120.4,32.7,120.5,32.7z M120.7,23.2
		C120.7,23.2,120.7,23.2,120.7,23.2c-0.1-0.1-0.1-0.1-0.1-0.1c-0.1-0.1-0.1,0-0.1,0.1c0,0.1,0,0.2,0.1,0.2
		C120.6,23.4,120.6,23.3,120.7,23.2z M120.7,39.4l-0.1-0.1c-0.1,0-0.2,0-0.2,0.1c0,0.1,0,0.1,0.1,0.1
		C120.6,39.5,120.7,39.4,120.7,39.4C120.7,39.4,120.7,39.4,120.7,39.4z M120.7,45.6c0-0.1,0-0.1-0.1-0.1c-0.1-0.1-0.2-0.1-0.2,0v0.1
		c0,0,0,0.1,0.1,0.1s0.1,0,0.1,0C120.7,45.7,120.7,45.6,120.7,45.6z M121.7,33.5c0.1,0,0.2,0,0.3,0.1c0.1,0,0.2,0,0.2-0.2
		c0-0.3-0.2-0.4-0.4-0.3c-0.2,0.1-0.4,0.1-0.5-0.1c0-0.1-0.1-0.1-0.2-0.1c-0.1,0-0.1,0.1-0.1,0.2c0,0.2,0.1,0.4,0.3,0.4
		C121.3,33.5,121.5,33.5,121.7,33.5z M121.2,30.6l0.1,0.1l0.1-0.1c0-0.1,0-0.1-0.1-0.1C121.2,30.5,121.2,30.6,121.2,30.6z
		 M121.3,36.6L121.3,36.6c-0.1,0.2,0,0.2,0,0.2c0.1,0,0.1,0,0.1-0.1C121.5,36.7,121.4,36.6,121.3,36.6z M122,39.2
		c0-0.3-0.1-0.4-0.4-0.4c-0.2,0-0.3,0.1-0.3,0.4c0.1,0.3,0.2,0.5,0.4,0.5C121.9,39.6,122,39.5,122,39.2z M121.5,42.8
		c0.2,0,0.3-0.1,0.3-0.3s0-0.3,0.1-0.4c0,0,0-0.1,0-0.1c0,0-0.1,0-0.1,0c-0.1,0.1-0.2,0.2-0.3,0.3c-0.1,0.1-0.2,0.2-0.2,0.4
		L121.5,42.8z M121.6,46.7L121.6,46.7L121.6,46.7L121.6,46.7z M122,58L122,58l-0.1-0.1C121.8,58.1,121.8,58.1,122,58L122,58z
		 M122.3,38.3L122.3,38.3v0.1V38.3z M123.2,39.2c0.2,0,0.3-0.1,0.3-0.4c0-0.2-0.1-0.3-0.4-0.3c-0.2,0-0.3,0.2-0.3,0.5
		C122.9,39.2,123,39.2,123.2,39.2z M132,24.6c0.2-1.9-0.3-3.5-1.7-4.8c-0.7-0.8-1.6-1.1-2.6-1c-1,0.1-1.8,0.3-2.5,0.8
		c-0.7,0.5-1.3,1.1-1.7,1.8c-0.4,0.7-0.6,1.5-0.5,2.4c0,0.5,0,1.1-0.1,1.6c0,0.6,0,1.1,0.1,1.6c0.1,0.5,0.1,1,0,1.5
		c-0.2,0.5-0.2,1,0,1.6c0.3,1.2,0.3,2.4,0,3.7c-0.1,0.2-0.1,0.5,0,0.7c0.1,0.2,0.2,0.5,0.2,0.8c0,0.3,0,0.5,0,0.8
		c0,0.4,0,0.8,0.1,1.1c0.1,0.4,0.3,0.7,0.6,0.9c0.5,0.4,1,0.7,1.5,1c0.5,0.3,1.1,0.3,1.8,0.1c0.1,0,0.4,0,0.6,0.1
		c0.9,0.1,1.7,0,2.3-0.4c0.6-0.4,1.2-0.9,1.8-1.6c0.1-0.1,0.2-0.2,0.2-0.4c0-0.2,0-0.3,0-0.5c0-0.4-0.1-0.8-0.1-1.2s0-0.8,0-1.2
		c0.1-0.9,0.2-1.8,0.2-2.7c0-0.9,0-1.8,0-2.7c0-0.7-0.1-1.4-0.1-2.1C132,26,132,25.3,132,24.6z M123.6,15.7
		C123.6,15.6,123.5,15.6,123.6,15.7c-0.1-0.1-0.1,0-0.1,0C123.4,15.7,123.4,15.8,123.6,15.7C123.5,15.7,123.5,15.7,123.6,15.7z
		 M124.2,16.6c0.1,0,0.2-0.1,0.2-0.3c0-0.1-0.1-0.2-0.3-0.2c-0.1,0-0.2,0.1-0.2,0.3C123.9,16.6,124,16.6,124.2,16.6z M124.3,44.6
		L124.3,44.6L124.3,44.6L124.3,44.6z M125.1,13.9c-0.2,0-0.3,0.2-0.3,0.4c0.1,0.2,0.2,0.3,0.3,0.3c0.2,0,0.3-0.1,0.2-0.4
		C125.3,14,125.2,13.9,125.1,13.9z M125,41.4c-0.1,0.1-0.2,0.2-0.2,0.3c0,0.2,0.1,0.3,0.4,0.3c0.1,0,0.2-0.1,0.2-0.2
		C125.4,41.5,125.2,41.4,125,41.4z M125.1,17.9L125.1,17.9L125.1,17.9L125.1,17.9z M125.6,17.1c-0.1,0-0.2,0-0.2,0.1
		c0,0.1,0.1,0.2,0.2,0.2c0.1,0,0.1-0.1,0.1-0.2C125.7,17.1,125.7,17.1,125.6,17.1z M126.1,15l-0.2-0.2c-0.1,0-0.1,0.1-0.1,0.2
		c0,0,0.1,0.1,0.1,0.1c0,0,0,0.1,0.1,0.1c0,0,0.1-0.1,0.1-0.1C126,15.1,126,15,126.1,15z M126.7,44.8c0-0.1-0.1-0.2-0.3-0.3
		c-0.1,0-0.1,0-0.1,0.1c0,0.1,0,0.2,0.1,0.3C126.6,44.9,126.7,44.9,126.7,44.8z M126.5,14.1v0.1C126.5,14.3,126.6,14.2,126.5,14.1
		L126.5,14.1z M126.9,40.7c0-0.2,0-0.3-0.1-0.3c-0.1,0-0.2,0.1-0.2,0.2c0,0.1,0,0.2,0.1,0.2c0,0,0.1,0,0.1-0.1
		C126.8,40.7,126.8,40.7,126.9,40.7z M127.6,15.8L127.6,15.8L127.6,15.8L127.6,15.8z M128.2,14.5L128.2,14.5l-0.1-0.1v0.1H128.2z
		 M128.7,17.9c-0.1-0.1-0.2-0.2-0.4-0.2c-0.1,0.1-0.1,0.2-0.1,0.3c0,0.2,0.1,0.2,0.3,0.1C128.6,18.1,128.7,18.1,128.7,17.9z
		 M131.1,38.7c-0.1,0-0.1,0.2-0.1,0.4c0,0.2,0.1,0.3,0.3,0.2c0.1,0,0.1-0.1,0.1-0.2c0-0.1,0-0.2,0-0.3
		C131.2,38.8,131.2,38.7,131.1,38.7z M131.3,41.5c0.2-0.1,0.3-0.2,0.4-0.2c0.1-0.1,0.1-0.1,0-0.1s-0.1,0-0.2,0
		c-0.2,0-0.3,0.1-0.4,0.2L131.3,41.5z M131.5,40.8L131.5,40.8l-0.1-0.1C131.3,40.8,131.3,40.8,131.5,40.8L131.5,40.8z M132,42
		c-0.2,0-0.3,0.1-0.4,0.3v0.1c0.3,0,0.5-0.1,0.5-0.3L132,42z M132.6,45.9c0.2,0,0.3-0.1,0.3-0.2c0-0.1,0-0.3-0.2-0.4
		c-0.2,0-0.3,0.1-0.3,0.3C132.4,45.7,132.4,45.8,132.6,45.9z M132.6,16.3L132.6,16.3L132.6,16.3L132.6,16.3z M132.7,46.9
		c-0.1,0-0.2,0-0.2,0.1c0,0.1,0.1,0.2,0.2,0.2c0.1,0,0.2-0.1,0.2-0.2C132.9,46.9,132.8,46.9,132.7,46.9z M133.1,31.2
		c-0.1-0.2-0.2-0.3-0.2-0.3c-0.1,0-0.2,0.1-0.2,0.2c0,0.2,0.1,0.3,0.2,0.2C133,31.4,133.1,31.3,133.1,31.2z M133.5,16.5
		c0,0-0.1-0.1-0.1-0.1c-0.1,0-0.1,0.1-0.1,0.2c0,0,0.1,0.1,0.1,0.1C133.5,16.7,133.5,16.6,133.5,16.5z M133.8,33.3
		c0.1,0,0.2-0.1,0.3-0.1s0.1,0,0.1-0.1c0-0.1-0.1-0.2-0.3-0.1c-0.2,0-0.4,0.1-0.4,0.2C133.5,33.2,133.6,33.3,133.8,33.3z
		 M133.8,43.6c-0.1-0.1-0.2-0.1-0.2-0.1l-0.1,0.1c0,0.1,0,0.2,0.1,0.2C133.7,43.8,133.8,43.8,133.8,43.6z M134.3,40.8
		c-0.1-0.2-0.2-0.3-0.4-0.3c-0.1,0-0.2,0.1-0.2,0.3c0,0.2,0.1,0.3,0.2,0.3C134.1,41.1,134.2,41,134.3,40.8z M134,27.8L134,27.8
		l-0.1-0.1c0,0-0.1,0-0.1,0C133.8,27.8,133.8,27.8,134,27.8L134,27.8z M133.9,55.9C133.9,55.8,133.9,55.8,133.9,55.9L133.9,55.9
		L133.9,55.9z M134.3,23.8v0.1C134.3,23.9,134.4,23.9,134.3,23.8L134.3,23.8L134.3,23.8z M134.5,36.1L134.5,36.1l0.1-0.1L134.5,36.1
		L134.5,36.1z M134.6,49L134.6,49L134.6,49L134.6,49z M134.9,56.2c0.1,0.1,0.2,0,0.2-0.1c0-0.1,0-0.1-0.1-0.1
		c-0.1-0.1-0.2-0.1-0.2,0.1C134.8,56.1,134.8,56.2,134.9,56.2z M135.4,31.3c-0.1-0.1-0.2-0.1-0.3-0.1l-0.1,0.1c0,0.1,0,0.2,0.1,0.2
		C135.4,31.5,135.4,31.5,135.4,31.3z M135.3,58.8c0.1-0.1,0.1-0.1-0.1-0.1h-0.1v0.1H135.3z M135.4,18c0.1,0.1,0.2,0,0.2-0.1
		l-0.1-0.1c-0.1,0-0.2,0-0.2,0.1C135.2,17.9,135.2,18,135.4,18z M135.4,37.4c0,0,0.1-0.1,0.1-0.2c0,0-0.1-0.1-0.1-0.1
		c0,0-0.1,0.1-0.1,0.2C135.4,37.4,135.4,37.4,135.4,37.4z M135.7,42.4c0,0,0-0.1-0.1-0.1c0,0,0,0.1-0.1,0.1l0.1,0.1
		C135.7,42.6,135.7,42.6,135.7,42.4z M136.4,40.6c0-0.2-0.1-0.3-0.3-0.3c-0.2,0-0.3,0.1-0.3,0.3c0,0.2,0.2,0.3,0.4,0.3
		C136.4,40.9,136.4,40.8,136.4,40.6z M136,19.6c0.1,0,0.2,0,0.2-0.1c0,0,0-0.1,0-0.1c0,0,0-0.1,0-0.1c-0.1,0-0.2,0.1-0.2,0.2
		C136,19.5,136,19.5,136,19.6z M137.3,43.2c-0.1,0-0.2,0-0.2,0.1c-0.1,0.2,0,0.3,0.1,0.3c0.1,0.1,0.2,0.1,0.2-0.1
		C137.5,43.4,137.4,43.3,137.3,43.2z M137.2,31.5c0,0,0.1,0.1,0.1,0.1v-0.1c0,0,0-0.1-0.1-0.1C137.3,31.4,137.3,31.5,137.2,31.5
		C137.2,31.5,137.2,31.5,137.2,31.5z M137.7,30.7c0,0,0.1-0.1,0.2-0.1s0.1,0,0-0.1c0,0,0-0.1-0.1-0.1c0,0-0.1,0-0.1,0
		c-0.2,0-0.3,0.1-0.3,0.2C137.4,30.6,137.5,30.7,137.7,30.7z M137.9,57.9l0.1-0.1c0.1-0.1,0.1-0.2,0-0.2c0,0-0.1,0-0.2,0.1
		c0,0,0,0.1,0,0.1C137.9,57.8,137.9,57.8,137.9,57.9z M138.1,38.2V38c-0.1,0-0.1,0-0.1,0.1L138.1,38.2L138.1,38.2z M138.1,28.5
		L138.1,28.5c0,0.2,0,0.2,0.1,0.1C138.2,28.6,138.1,28.6,138.1,28.5z"/>
	<path class="st0" d="M164.5,63.6h-1.1c-0.2-0.3-0.5-0.6-0.9-0.8c-1.2-0.8-1.8-1.9-1.9-3.4c0-0.8-0.2-1.5-0.6-2
		c-0.5-0.7-0.8-1.5-0.9-2.3c-0.1-0.8-0.4-1.6-0.8-2.3c-0.2-0.5-0.5-1.2-0.7-2c-0.1-0.5-0.2-1-0.3-1.5c-0.1-0.5-0.4-0.9-0.8-1.3
		c-0.1-0.2-0.2-0.5-0.2-0.9c-0.1-0.4,0-0.6,0.4-0.6c0.2,0,0.3-0.1,0.2-0.2l-0.1-0.1c-0.5,0-0.9-0.3-1-0.6c-0.1-0.4-0.3-0.7-0.4-1
		c-0.4-1.1-0.8-2.1-1.1-3.2c-0.4-1.1-0.7-2.1-1-3.2c-0.1-0.4-0.4-0.6-0.7-0.6c-0.5,0.1-0.7,0.3-0.7,0.6c0.1,0.7,0.1,1.4,0.1,2.1
		c0,0.7,0,1.4,0,2.1c0,0.4,0.1,0.9,0.2,1.3c0.1,0.4,0,0.8-0.3,1.3c0,0.1,0,0.2,0.1,0.3c0.2,0.4,0.3,0.7,0.3,1c0,0.3-0.1,0.6-0.3,1
		c-0.1,0.2-0.1,0.5-0.1,0.6c0,0.2,0.1,0.4,0.2,0.6c0.1,0.3,0.2,0.7,0.2,1c0,0.3,0,0.7-0.1,1c-0.1,0.2-0.1,0.5-0.1,0.7
		c0,0.2,0,0.4,0,0.7l0.2,4.3c0,0.6,0,1.2-0.1,1.8c-0.1,0.6-0.2,1.2-0.1,1.8c0,1.5-0.6,2.6-1.9,3.2c-0.7,0.3-1.4,0.4-2.1,0.2
		c-0.7-0.2-1.3-0.6-1.7-1.2c-0.4-0.6-0.7-1.3-0.7-1.9c0-0.7,0-1.3,0-2c0-0.2,0-0.5,0-0.8c0-0.3-0.1-0.5-0.3-0.8v-0.4
		c0.1-0.1,0.2-0.3,0.2-0.6v-5.6c0-0.1-0.1-0.3-0.2-0.4v-2.2v-0.2V46c0.3-0.3,0.3-0.6,0-0.9v-0.8c0.1-0.1,0.2-0.3,0.2-0.4
		c0-0.5,0-1,0-1.4c0-0.5,0-1,0-1.4c0-0.3-0.1-0.5-0.3-0.6v-0.9c0.2,0,0.4,0,0.5,0.1c0.2,0.1,0.3,0,0.3-0.2c0-0.2,0-0.3-0.1-0.3
		c-0.4-0.1-0.6-0.3-0.6-0.5c0-0.3,0.1-0.5,0.1-0.8c0-0.4,0-0.9,0.1-1.3c0-0.4,0-0.8-0.3-1.2v-1.5c0.2-0.3,0.2-0.7,0-1.1v-1.3
		c0.1-0.1,0.2-0.2,0.3-0.4c0-0.1,0.1-0.3,0.3-0.4c0.2-0.1,0.3-0.2,0.2-0.3c0-0.1-0.2-0.2-0.4-0.1h-0.4v-1.1c0.1,0,0.1,0,0.1-0.1
		c0.2-0.9,0.3-1.8,0.2-2.7c-0.1-0.9-0.1-1.8-0.2-2.7l-0.1-0.1v-0.6c0.1-0.2,0.2-0.4,0.2-0.6s0.1-0.4,0.3-0.5
		c0.1-0.1,0.2-0.3,0.1-0.4c-0.2-0.2-0.3-0.5-0.3-0.7c0-0.2,0-0.5,0-0.7c0-0.1-0.1-0.2-0.1-0.3c0-0.1-0.1-0.2-0.2-0.3v-0.8
		c0.4-0.3,0.4-0.7,0-1.1v-0.6c0.2-0.2,0.3-0.5,0.3-0.8c0-0.3,0-0.6,0-0.8c0-0.8,0.2-1.5,0.6-2c0.5-0.6,1.1-1,1.7-1.2
		c0.6-0.2,1.3-0.1,2.1,0.3c0.1,0,0.3,0.1,0.6,0.1c0.1,0.1,0.2,0.2,0.4,0.3c0.1,0.1,0.2,0.2,0.3,0.3c0.2,0.7,0.5,1.3,0.9,1.9
		c0.4,0.6,0.6,1.3,0.7,2.1c0,0.2,0.1,0.5,0.1,0.7c0,0.2,0.1,0.5,0.3,0.7c0.5,1,0.9,1.9,1.2,3c0.2,1,0.6,2,1.2,3
		c0,0.1,0.1,0.2,0.1,0.4c0.1,0.2,0.1,0.3-0.1,0.5c-0.2,0.1-0.3,0.3-0.3,0.5c0,0.1,0,0.2,0.1,0.3c0.1,0,0.2,0,0.3,0
		c0.1,0,0.2,0,0.3,0c0.1,0,0.1,0.1,0.1,0.2c0,0.4,0.1,0.8,0.4,1.1c0.2,0.3,0.4,0.7,0.5,1c0.1,0.5,0.3,0.9,0.4,1.4
		c0.1,0.5,0.3,0.9,0.4,1.4c0.3,1,0.6,1.9,1,2.7c0.4,0.8,0.7,1.7,1,2.7c0,0.2,0.1,0.4,0.3,0.6c0.1,0.2,0.2,0.3,0.3,0.5
		c0.2,0.3,0.4,0.3,0.6-0.1c0,0,0.1-0.1,0.1-0.2c0-0.1,0-0.1,0.1-0.2c0.1-0.7,0.2-1.3,0.1-2s0-1.3,0.1-2c0-0.1,0.1-0.3,0.1-0.5
		c0-0.2,0-0.4,0-0.5c-0.2-1.1-0.3-2.2-0.2-3.2c0.1-1.1,0.1-2.1,0-3.2c0-0.6,0-1.2,0-1.7c0.1-0.6,0-1.2-0.2-1.7
		c-0.1-0.1-0.1-0.3,0-0.5c0.1-0.5,0.2-0.9,0.2-1.4c0-0.5,0-0.9,0-1.5c0-0.9,0-1.8,0-2.7c0-0.9,0-1.8,0.1-2.7
		c0.1-1.1,0.1-2.1,0.1-3.2c0-1.1,0.1-2.1,0.5-3.2c0.5-1.2,1.3-2.4,2.3-3.4c1-1.1,2.3-2,3.8-2.7c0.4-0.2,0.9-0.3,1.3-0.4
		c0.5-0.1,0.9-0.2,1.3-0.4h1.5c0.1,0,0.2,0.1,0.3,0.1c0.1,0,0.2,0,0.3,0.1c0.6,0.1,1.2,0.4,1.7,0.8c0.5,0.4,0.8,0.9,1.1,1.5
		c0.4,1.2,0.1,2.2-0.8,3c0,0-0.1,0.1-0.1,0.1c0,0-0.1,0.1-0.2,0.2c-0.3,0.3-0.6,0.5-1,0.6c-0.4,0.1-0.8,0.2-1.2,0.2
		c-0.2,0-0.5,0-0.7,0s-0.4,0.1-0.6,0.2c-0.4,0.2-0.8,0.5-1.1,0.7c-0.4,0.2-0.7,0.5-1,0.8c-0.5,0.4-0.8,1.1-0.9,1.9
		c-0.1,0.8-0.1,1.5-0.1,2.3c0,0.7,0,1.5,0.1,2.2c0,0.2,0.1,0.5,0,0.6c0,0.2-0.1,0.4-0.1,0.6c0,0.2-0.1,0.5-0.1,0.8
		c0,0.3,0,0.5,0,0.8c0.1,0.7,0.1,1.4,0,2.1c-0.1,0.7,0,1.4,0.1,2.2c0,0.1,0.1,0.2,0,0.3c0,0.1,0,0.2,0,0.3c0,0.6,0,1.2-0.1,1.7
		c-0.1,0.6-0.1,1.2,0,1.7c0.1,0.7,0.2,1.4,0,2.1c-0.1,0.7-0.1,1.4,0.2,2.1c0,0.1,0,0.2-0.1,0.2c-0.2,0.5-0.3,1.1-0.2,1.6
		c0,0.6,0.1,1.1,0.2,1.6c0.1,0.4,0.1,0.7,0,0.9c-0.2,0.8-0.3,1.7-0.2,2.5c0.1,0.9,0.1,1.7,0,2.5c-0.1,1-0.1,1.9-0.1,2.9
		c0,1,0.1,2,0.2,2.9c0.1,0.4,0.1,0.8,0,1.2c-0.2,0.7-0.2,1.4-0.1,2.2c0.1,0.7,0.1,1.4,0.1,2.2c-0.1,0.7-0.1,1.4,0.1,2.2
		c0.1,0.7,0.1,1.4-0.2,2.2c0,0.1,0,0.3,0,0.4c0,0.1,0.1,0.2,0.1,0.3c0.1,0.2,0.1,0.5,0.1,0.8c-0.1,0.2-0.1,0.5-0.1,0.7
		c0,0.2,0.1,0.5,0.1,0.7c0,0.5,0,1,0.1,1.5c0,0.5,0,1-0.3,1.5c-0.3,0.7-0.5,1.3-0.8,1.7c-0.2,0.4-0.9,0.6-1.9,0.6
		C164.7,63.4,164.6,63.4,164.5,63.6z M146.3,45.5L146.3,45.5L146.3,45.5L146.3,45.5z M146.8,18.9c-0.1,0-0.3,0.1-0.4,0.4
		c0,0.2,0.1,0.3,0.2,0.3c0.2,0,0.3,0,0.4-0.3C147.1,19.1,147,19,146.8,18.9z M146.7,36.8c0,0,0-0.1-0.1-0.1c0,0-0.1,0-0.1,0.1
		C146.5,36.8,146.5,36.9,146.7,36.8c-0.1,0.1-0.1,0.1,0,0.1C146.7,36.9,146.7,36.8,146.7,36.8z M147.6,22.3c0-0.2-0.1-0.3-0.3-0.3
		c-0.2,0.1-0.4,0.3-0.4,0.6c0,0.2,0.1,0.2,0.2,0.1C147.5,22.7,147.6,22.5,147.6,22.3z M147.3,13.8L147.3,13.8
		c-0.1-0.1-0.2-0.1-0.2-0.1v0.1H147.3z M147.5,33.8c0-0.1,0-0.2-0.1-0.2c-0.1,0.1-0.2,0.1-0.2,0.1v0.1c0,0,0,0.1,0.1,0.1
		C147.3,33.9,147.3,33.8,147.5,33.8C147.4,33.8,147.5,33.8,147.5,33.8z M147.7,46.1c0.1,0,0.1,0,0.1-0.1c0.1-0.1,0.1-0.2-0.1-0.2
		h-0.1l-0.1,0.1C147.5,45.9,147.6,46,147.7,46.1z M148,16.5c0,0-0.1-0.1-0.1-0.1c0,0,0,0.1,0,0.1c0,0,0,0,0,0.1l0.1,0.1
		C148.1,16.6,148.1,16.6,148,16.5z M149.5,48.6c0-0.1-0.1-0.1-0.2-0.1c-0.1,0-0.1,0-0.1,0.1c-0.1,0.1-0.1,0.2,0.1,0.2
		C149.3,48.8,149.4,48.7,149.5,48.6z M149.2,23.4L149.2,23.4L149.2,23.4L149.2,23.4z M149.5,44.1c0-0.1,0-0.2-0.1-0.3
		c0,0-0.1,0-0.2,0.1c0,0.2,0,0.3,0.1,0.4C149.4,44.4,149.5,44.3,149.5,44.1z M149.5,41.1L149.5,41.1L149.5,41.1c0-0.1,0-0.2-0.1-0.3
		h-0.1l-0.1,0.1C149.2,40.9,149.3,41,149.5,41.1z M149.7,53c0-0.2-0.1-0.3-0.2-0.2c-0.2,0-0.3,0.2-0.3,0.4c0,0.1,0.1,0.2,0.1,0.2
		c0,0,0,0,0.1,0C149.6,53.4,149.7,53.2,149.7,53z M149.7,27.1c-0.2,0.1-0.3,0.2-0.3,0.3c0,0.1,0.1,0.1,0.2,0.1
		c0.1,0.1,0.2,0,0.2-0.2C149.8,27.2,149.8,27.2,149.7,27.1z M150.3,36.1c0-0.1,0-0.2-0.1-0.2c-0.1,0-0.2,0-0.3,0.1
		c0,0.1,0,0.2,0.1,0.2C150.2,36.3,150.3,36.2,150.3,36.1z M150.6,30L150.6,30c0-0.2-0.1-0.2-0.1-0.1c0,0,0,0,0,0.1
		C150.5,29.9,150.5,30,150.6,30z M151,40.7c-0.1,0.1-0.2,0.2-0.1,0.2c0,0.2,0.1,0.3,0.2,0.3c0.1,0,0.1-0.1,0.1-0.2
		C151.2,40.8,151.1,40.7,151,40.7z M151,29.2c0.1,0,0.2,0,0.2-0.1c0,0,0-0.1,0-0.1c0,0,0-0.1,0-0.1c-0.1,0-0.2,0-0.2,0.1
		C151,29.1,151,29.2,151,29.2z M151.3,60.5l-0.2-0.2l-0.2,0.2c0,0.1,0.1,0.2,0.2,0.2C151.3,60.7,151.3,60.6,151.3,60.5z M151.6,46.4
		c0-0.1-0.1-0.1-0.3-0.1c-0.2,0.1-0.3,0.2-0.2,0.3c0,0.1,0.1,0.2,0.3,0.2C151.6,46.8,151.6,46.6,151.6,46.4z M151.8,21.5
		c0-0.3-0.1-0.4-0.3-0.4c-0.2,0-0.3,0.1-0.3,0.4c0.1,0.2,0.2,0.4,0.4,0.4C151.8,21.8,151.8,21.7,151.8,21.5z M151.3,37.4L151.3,37.4
		L151.3,37.4L151.3,37.4z M152.4,35.4c0-0.2-0.1-0.2-0.3-0.1c-0.2,0-0.4,0.1-0.4,0.3c0,0.2,0.1,0.3,0.4,0.3
		C152.3,35.8,152.4,35.7,152.4,35.4z M152.6,30.6c0-0.3-0.1-0.4-0.4-0.3c-0.1,0-0.2,0-0.3,0c-0.1,0-0.1,0-0.1,0.2c0,0.1,0,0.3,0,0.4
		s0.1,0.2,0.3,0.2c0.1,0,0.2,0,0.2-0.1C152.5,30.8,152.6,30.7,152.6,30.6z M152.1,26.1C152.1,26,152.1,26,152.1,26.1
		c0-0.1,0-0.1,0-0.1V26.1L152.1,26.1z M152.8,33.7c-0.2,0-0.2,0.1-0.1,0.3c0,0.1,0,0.2,0.1,0.2c0.1,0,0.2,0,0.3,0
		c0.1,0,0.2-0.1,0.2-0.2C153.1,33.7,153,33.6,152.8,33.7z M153.6,36.9c0-0.2-0.1-0.3-0.3-0.3c-0.1,0-0.2,0.1-0.2,0.3
		c0,0.1,0.1,0.2,0.2,0.2C153.3,37.2,153.4,37.1,153.6,36.9z M153.3,26.9c0,0,0.1-0.1,0.1-0.1c0,0,0-0.1,0-0.1c0,0,0,0,0-0.1
		c0,0,0,0.1,0,0.1s0,0,0,0.1C153.2,26.9,153.2,26.9,153.3,26.9z M154.8,35.9c0,0-0.1,0-0.1,0c0,0-0.1,0-0.1,0V36c0,0,0,0.1,0.1,0.1
		C154.7,36,154.8,36,154.8,35.9z M155.3,29.2c-0.1,0-0.2-0.1-0.3-0.1c-0.1,0-0.2,0-0.2,0.2c0,0.1,0,0.2,0,0.3c0,0.1,0.1,0.2,0.2,0.3
		c0.1,0,0.3,0,0.4-0.1c0.1-0.1,0.1-0.2,0.1-0.3C155.4,29.3,155.3,29.2,155.3,29.2L155.3,29.2z M154.9,37.2v0.1c0,0,0.1,0,0.1-0.1
		L154.9,37.2L154.9,37.2z M155.2,32c0,0,0.1-0.1,0.2-0.2c0.1-0.1,0.1-0.2-0.1-0.2c-0.2,0-0.3,0-0.3,0.2
		C155,31.9,155.1,31.9,155.2,32z M155.4,40.9l-0.1,0.1c0,0.1,0,0.2,0.1,0.3c0.1,0,0.1,0,0.1-0.1C155.6,41,155.5,40.9,155.4,40.9z
		 M155.6,26.3c-0.1,0-0.2,0.1-0.2,0.2c0,0.2,0,0.2,0.1,0.1c0.1,0,0.2,0,0.2-0.1C155.7,26.4,155.7,26.3,155.6,26.3z M155.9,40.2
		L155.9,40.2L155.9,40.2L155.9,40.2L155.9,40.2z M156.2,29.4L156.2,29.4L156.2,29.4L156.2,29.4z M156.2,35.9L156.2,35.9
		c-0.1,0-0.1,0.1,0,0.1c0,0,0,0.1,0,0.1l0.1-0.1C156.3,35.9,156.3,35.9,156.2,35.9z M159.3,37.3C159.2,37.3,159.2,37.3,159.3,37.3
		l-0.1-0.1c-0.1,0-0.2,0.1-0.2,0.1c0,0-0.1,0-0.2,0.1c-0.1,0.1,0,0.1,0.1,0.1C159,37.4,159.2,37.4,159.3,37.3z M158.8,36.1
		C158.9,36.1,158.9,36.1,158.8,36.1c0.1,0.1,0.1,0.1,0.1,0.1c0.1,0,0.1,0,0.1-0.1l-0.1-0.1C158.9,35.9,158.8,35.9,158.8,36.1z
		 M159.7,46c0-0.1-0.1-0.2-0.1-0.3c0-0.1-0.1-0.1-0.3-0.2c-0.2-0.1-0.3,0-0.3,0.1c0,0.2,0,0.4,0.3,0.5c0.1,0,0.2,0,0.2,0
		C159.6,46.2,159.6,46.2,159.7,46z M159.3,51.9c0,0,0,0.1,0,0.1c0.1,0,0.2,0,0.2-0.1c0-0.1,0-0.2-0.1-0.2l-0.1,0.1
		C159.3,51.8,159.3,51.9,159.3,51.9z M160.5,45.9C160.5,45.9,160.5,45.9,160.5,45.9l-0.1-0.1C160.2,46,160.3,46,160.5,45.9
		L160.5,45.9z M160.7,53.1c0,0.1-0.1,0.1-0.2,0.1c-0.1,0-0.1,0-0.1,0.1c0,0-0.1,0.1,0,0.1c0,0,0.1,0,0.2,0c0.2,0,0.3-0.1,0.4-0.2
		C160.8,53.1,160.8,53.1,160.7,53.1z M160.6,40.9c0-0.1,0-0.2-0.1-0.2h-0.1l-0.1,0.1c-0.1,0.1-0.1,0.2,0.1,0.2
		C160.5,41,160.6,41,160.6,40.9C160.6,40.9,160.6,40.9,160.6,40.9z M160.6,39c-0.1,0-0.2,0-0.2,0.1c0,0.2,0.1,0.3,0.2,0.4l0.2-0.2
		C160.8,39.1,160.7,39,160.6,39z M161.4,39.4c0,0-0.1,0.1-0.1,0.1c0,0.1,0,0.1,0.1,0c0,0,0.1,0,0.1-0.1
		C161.5,39.4,161.5,39.4,161.4,39.4z M161.9,47.3c-0.3,0-0.4,0.1-0.3,0.4c0,0.3,0.1,0.6,0.4,0.6c0.3,0,0.4-0.2,0.3-0.6
		C162.3,47.4,162.1,47.3,161.9,47.3z M161.8,43L161.8,43c0-0.1-0.1-0.1-0.1-0.1C161.5,42.9,161.6,43,161.8,43L161.8,43z M162.3,42.3
		l-0.1-0.1c-0.1-0.1-0.2-0.1-0.2,0.1c0,0.1,0,0.1,0.1,0.1s0.1,0,0.1,0C162.2,42.3,162.2,42.3,162.3,42.3z M162.6,34.4
		c-0.1-0.2-0.2-0.2-0.4-0.1c0,0-0.1,0.1-0.1,0.1c0,0.1,0.1,0.1,0.3,0.1C162.6,34.6,162.6,34.5,162.6,34.4z M162.5,56
		C162.5,56,162.5,55.9,162.5,56l-0.1-0.1C162.3,56,162.3,56.1,162.5,56L162.5,56z M162.4,30.7L162.4,30.7L162.4,30.7L162.4,30.7z
		 M163,49.8c0.2-0.3,0.2-0.5,0.1-0.6c-0.1,0.1-0.2,0.1-0.4,0.1c-0.2,0-0.2,0.1-0.2,0.3c0,0.1,0,0.3,0.1,0.3
		C162.7,49.9,162.8,49.8,163,49.8L163,49.8z M162.9,45.5c0-0.2-0.1-0.3-0.3-0.2c-0.1,0.1-0.1,0.2-0.1,0.3c0.1,0.1,0.2,0.2,0.4,0.1
		C163.1,45.7,163.1,45.6,162.9,45.5z M162.9,58.8c-0.1,0-0.2,0-0.2-0.1V59c0,0,0.1,0,0.1,0.1C162.9,58.9,162.9,58.9,162.9,58.8z
		 M163.5,55.9c0-0.2-0.1-0.4-0.4-0.4c-0.2,0-0.4,0.1-0.4,0.4c0,0.2,0.1,0.4,0.4,0.4C163.4,56.2,163.5,56.1,163.5,55.9z M163.4,9.3
		c0.2,0,0.3-0.1,0.3-0.2c0-0.2-0.1-0.3-0.2-0.3c-0.2,0-0.3,0.1-0.3,0.2C163.2,9.2,163.3,9.3,163.4,9.3z M163.3,41.5L163.3,41.5
		L163.3,41.5L163.3,41.5z M163.5,38.2L163.5,38.2c0,0.1,0,0.2,0,0.2C163.6,38.4,163.6,38.4,163.5,38.2L163.5,38.2L163.5,38.2z
		 M163.7,23L163.7,23c0.1-0.2,0-0.2,0-0.2h-0.1C163.7,22.9,163.7,22.9,163.7,23z M163.9,28.3v-0.1c0,0-0.1,0-0.1,0c0,0,0,0-0.1,0
		L163.9,28.3L163.9,28.3z M164.2,7.5c0-0.1,0-0.2-0.1-0.2l-0.1,0.1c0,0.1,0,0.2,0.1,0.3C164.1,7.6,164.2,7.6,164.2,7.5z M163.9,47.4
		C163.9,47.5,163.9,47.5,163.9,47.4c-0.1,0.1-0.1,0.1-0.1,0.1l0.1,0.1C164,47.7,164,47.6,163.9,47.4C164,47.5,164,47.4,163.9,47.4z
		 M164.6,41.5c-0.1-0.1-0.2-0.2-0.2-0.2c-0.1,0-0.2,0-0.2,0.1c-0.1,0.1,0,0.2,0.1,0.2c0,0,0.1-0.1,0.1-0.1S164.5,41.5,164.6,41.5z
		 M165.3,20.7c0-0.2-0.1-0.4-0.4-0.4c-0.2,0-0.3,0.1-0.3,0.3c0,0.2,0.1,0.4,0.4,0.4C165.2,21.1,165.3,21,165.3,20.7z M165.2,33
		c-0.3,0-0.5,0.1-0.4,0.4c0,0.2,0.1,0.4,0.4,0.4c0.2-0.1,0.4-0.2,0.4-0.4C165.5,33.1,165.4,33,165.2,33z M165.6,25.6l-0.1,0.1
		C165.5,25.6,165.6,25.5,165.6,25.6c0-0.1,0.1-0.1,0.1-0.1C165.7,25.5,165.6,25.5,165.6,25.6z M165.5,36.6L165.5,36.6l-0.1,0.2h0.1
		V36.6z M166.1,14.4v0.1V14.4L166.1,14.4z M166.4,11.4L166.4,11.4c0.1,0,0.1,0,0.1-0.1c0,0,0-0.1-0.1-0.1c-0.1-0.1-0.1-0.1-0.1,0.1
		C166.3,11.4,166.3,11.4,166.4,11.4z M166.6,6.7L166.6,6.7L166.6,6.7L166.6,6.7z M167.1,42.8l-0.1-0.1c-0.1,0-0.1,0-0.1,0.1
		c0,0.1,0,0.1,0.1,0.1C167.1,43,167.1,43,167.1,42.8z M167.4,8.1c-0.1,0-0.2,0-0.2,0.1c-0.1,0.1,0,0.1,0.1,0.1
		c0.2,0.1,0.3,0,0.3-0.1C167.5,8.2,167.4,8.1,167.4,8.1z M167.8,6.9c0.2,0,0.3,0,0.3-0.1c0-0.2-0.1-0.4-0.2-0.4
		c-0.2-0.1-0.3,0-0.3,0.1C167.6,6.8,167.7,6.9,167.8,6.9z"/>
	<path class="st0" d="M185.7,12.1h0.9c0,0.1,0.1,0.1,0.2,0h0.2c0.3,0.3,0.8,0.5,1.3,0.5c0.7,0,1.3,0.2,1.8,0.5
		c0.5,0.3,1,0.6,1.6,0.8c0.2,0.1,0.4,0.3,0.4,0.7c0,0.1,0.1,0.2,0.3,0.1c0.2,0,0.4,0,0.5,0.1c0.4,0.4,0.8,0.8,1.1,1.2
		c0.4,0.4,0.7,0.8,1,1.2c0.4,0.7,0.7,1.4,0.9,2.1c0.1,0.7,0.4,1.4,0.6,2.1c0,0.1,0.1,0.2,0,0.3c0,0.1,0,0.2,0,0.3
		c0,0.5-0.1,1-0.1,1.4c0,0.5,0,1,0.1,1.5c0.2,0.8,0.2,1.5-0.2,2.2c-0.4,0.6-0.9,1.1-1.5,1.5c-0.9,0.6-1.8,0.6-2.7,0.1
		c-0.8-0.4-1.4-1.1-1.9-1.9c0,0,0-0.1,0-0.1c0,0,0-0.1,0-0.1c0.1-0.5,0.1-0.9,0-1.4s-0.1-0.9,0-1.4c0.2-0.7,0.2-1.3-0.1-1.9
		c-0.2-0.6-0.6-1.1-1.1-1.5c-0.5-0.5-1.1-0.9-1.8-1.3c-0.6-0.3-1.4-0.4-2.3-0.2c-1,0.2-1.9,0.7-2.6,1.3c-0.7,0.6-1,1.4-1,2.5
		c0,0.8,0,1.7,0,2.5c0,0.9,0.2,1.7,0.6,2.5c0.3,0.8,0.6,1.7,0.9,2.6c0,0.1,0.1,0.2,0.1,0.3s0.1,0.1,0.2,0.1c0.3,0,0.5,0.2,0.6,0.3
		c0.1,0.2,0.3,0.3,0.4,0.5c0.4,0.6,0.8,1.1,1.3,1.5c0.5,0.4,1,0.9,1.5,1.4c0.8,0.7,1.6,1.4,2.4,2.1c0.8,0.6,1.6,1.4,2.3,2.2
		c0.6,0.7,1.1,1.3,1.7,2c0.5,0.7,0.9,1.5,1.2,2.4c0.1,0.2,0.1,0.4,0.1,0.5c0,0.1-0.2,0.1-0.4,0.2c0.1,0.2,0.3,0.3,0.5,0.3
		c0.2,0,0.4,0,0.5,0.2c0.1,0.2,0.1,0.3,0.1,0.4c0,0.4,0.1,0.8,0.3,1.2c0.1,0.4,0.3,0.7,0.4,1.1c0.1,0.4,0.2,0.9,0.3,1.3
		c0.1,0.4,0.2,0.8,0.2,1.3c0,0.5,0,0.9,0.1,1.4c0,0.4,0.1,0.9,0.2,1.3v1.1c-0.1,0.2-0.2,0.5-0.3,0.8c0,0.3-0.1,0.5-0.1,0.8
		c-0.1,0.7-0.2,1.3-0.4,2c-0.2,0.7-0.5,1.3-1,1.8c-0.1,0.1-0.2,0.3-0.3,0.4c-0.1,0.1-0.2,0.3-0.3,0.5c-0.4,0.8-0.9,1.5-1.6,1.9
		c-0.7,0.5-1.4,0.9-2.1,1.4c-0.7,0.4-1.5,0.7-2.4,0.9c-0.9,0.1-1.7,0.2-2.6,0.1c-0.6,0-1.2,0-1.9-0.1c-0.6-0.1-1.2-0.3-1.8-0.7
		c-0.3-0.2-0.6-0.3-1-0.4c-0.4-0.1-0.7-0.2-1-0.4c-0.2-0.1-0.5-0.2-0.8-0.4c-0.3-0.2-0.3-0.5-0.1-1c0-0.1,0-0.2-0.1-0.3
		c-0.1-0.1-0.2-0.1-0.3,0c-0.1,0.1-0.3,0.1-0.4,0c-0.1-0.1-0.2-0.1-0.3-0.2c-0.4-0.2-0.8-0.5-1-0.9c-0.2-0.3-0.4-0.7-0.7-1.1
		c-0.2-0.4-0.5-0.9-0.6-1.4c-0.2-0.5-0.4-1-0.5-1.5c-0.1-0.4-0.2-0.8-0.3-1.2c-0.1-0.4-0.1-0.8,0-1.2c0.1-0.2,0.2-0.5,0.2-0.7
		c0-0.2,0-0.5,0-0.7c-0.1-0.4-0.1-0.9-0.1-1.3c0-0.4,0.1-0.8,0.1-1.3c0-0.6,0.3-1.1,0.9-1.4c0.7-0.4,1.4-0.6,2.3-0.6
		c0.8,0,1.6,0.2,2.4,0.7c0.8,0.6,1.2,1.2,1.3,1.9c0.1,0.7,0.2,1.5,0.3,2.2c0,0.2,0,0.3-0.1,0.4c-0.1,0-0.2,0.1-0.3,0.2
		c-0.5,0.3-0.6,0.8-0.4,1.4c0.1,0.5,0.4,1,0.7,1.4s0.7,0.8,1.2,1.1c0.7,0.5,1.5,0.7,2.3,0.6c0.8,0,1.6-0.2,2.4-0.4
		c0.2-0.1,0.4-0.2,0.5-0.3c0.1-0.1,0.3-0.1,0.6-0.1c0.2,0,0.3-0.1,0.2-0.4c-0.1-0.2-0.1-0.5,0-0.6c0.4-0.7,0.7-1.5,0.9-2.3
		c0.2-0.8,0.2-1.6,0.1-2.6c-0.2-0.9-0.4-1.8-0.6-2.7c-0.2-0.9-0.6-1.7-1.2-2.6c-0.4-0.7-0.6-1.3-0.8-1.8l-0.1-0.3l-0.2,0.1
		c0,0-0.2,0-0.4-0.1c-0.4-0.3-0.7-0.7-1-1c-0.3-0.4-0.6-0.7-0.9-1c-0.3-0.3-0.6-0.6-0.9-0.9c-0.3-0.3-0.6-0.6-1-0.9
		c-0.9-0.8-1.8-1.5-2.7-2.3c-0.9-0.8-1.6-1.7-2.2-2.8c0-0.1-0.1-0.2-0.3-0.3c-0.5-0.3-0.8-0.8-0.9-1.4c-0.1-0.5-0.2-0.9-0.4-1.2
		c-0.2-0.4-0.4-0.8-0.5-1.1c-0.1-0.4-0.2-0.8-0.2-1.2v-0.1v0.2c-0.3-0.2-0.5-0.5-0.5-0.9c0-0.5-0.1-0.9-0.2-1.4
		c-0.1-0.5-0.1-0.9,0-1.4c0-0.5-0.1-0.9-0.4-1.2v-1.5c0.2-0.1,0.3-0.3,0.3-0.6c0-0.4,0-0.8,0.1-1.2c0.1-0.4,0.3-0.8,0.4-1.2
		c0.1-0.4,0.3-0.8,0.5-1.2c0.2-0.4,0.4-0.8,0.5-1.3c0.1-0.4,0.3-0.7,0.7-1.1c0.6-0.5,1.1-1,1.6-1.5c0.5-0.5,1.1-0.9,1.8-1.3
		c0.2-0.1,0.4-0.2,0.6-0.3c0.2-0.1,0.4-0.1,0.7,0c0.1,0,0.3-0.1,0.4-0.4c0.1-0.2,0.3-0.4,0.6-0.4c0.3,0,0.7-0.1,1-0.1
		c0.3,0,0.7,0,1.1,0c0.1,0,0.3,0,0.5,0S185.6,12.3,185.7,12.1z M175.5,26.1c0,0.1,0.1,0.2,0.2,0.2c0.1,0,0.1-0.1,0.1-0.2
		c0-0.1,0-0.2,0-0.2c0,0-0.1,0-0.1,0C175.7,25.9,175.6,26,175.5,26.1z M176.3,49.6c0,0,0-0.1,0.1-0.1h-0.2v0.1
		C176.1,49.6,176.2,49.6,176.3,49.6z M176.5,23.5c-0.1,0-0.1,0-0.1-0.1c0,0-0.1,0.1-0.1,0.2c0,0,0.1,0,0.1,0.1c0,0,0-0.1,0-0.1
		C176.5,23.6,176.5,23.6,176.5,23.5z M177.5,55.7c0-0.1,0-0.2,0-0.3c0-0.1-0.1-0.1-0.2-0.1c-0.1,0-0.2,0.1-0.2,0.4
		c0,0.2,0.1,0.4,0.3,0.4c0.1,0,0.1,0,0.1-0.1C177.5,55.8,177.5,55.8,177.5,55.7z M177.7,30c0.2,0,0.4-0.1,0.4-0.3
		c0.1-0.2,0-0.3-0.2-0.3c-0.2,0.1-0.4,0.2-0.4,0.4C177.4,30,177.5,30,177.7,30z M177.8,22.2c-0.2,0-0.3,0.1-0.2,0.3
		c0,0.2,0.1,0.3,0.2,0.5c0.1,0.1,0.2,0.2,0.3,0.3c0,0,0.1,0,0.3-0.1c0.1-0.1,0.2-0.2,0.1-0.3C178.3,22.4,178.1,22.2,177.8,22.2z
		 M177.7,17.4c0,0,0.1-0.1,0.1-0.1C177.7,17.3,177.7,17.3,177.7,17.4C177.7,17.4,177.7,17.4,177.7,17.4z M177.9,53.7l0.1-0.1
		c0.1-0.1,0.1-0.2-0.1-0.2c-0.1-0.1-0.2-0.1-0.2,0.1C177.8,53.6,177.8,53.7,177.9,53.7z M178,51.5L178,51.5c-0.1-0.2-0.1-0.1-0.1,0
		v0.1C177.9,51.6,178,51.5,178,51.5z M178,24.2L178,24.2l0.1-0.1l-0.1-0.1C178,24.1,178,24.1,178,24.2z M178.5,25.6
		C178.5,25.7,178.5,25.7,178.5,25.6c-0.1,0.1-0.1,0.1-0.1,0.1c0,0.1,0,0.2,0.1,0.1l0.1-0.1c0,0-0.1,0-0.1,0
		C178.6,25.6,178.5,25.6,178.5,25.6z M178.8,27.4c0.1-0.2,0.1-0.4-0.1-0.4c-0.1,0-0.2,0.1-0.1,0.3c0,0.1,0,0.2-0.1,0.3
		c-0.1,0.1-0.1,0.2,0,0.2c0.2,0,0.3,0,0.3-0.1C178.8,27.6,178.8,27.5,178.8,27.4z M179,19.9c-0.1-0.1-0.2-0.2-0.2-0.1
		c0,0-0.1,0-0.1,0.1c0,0.2,0,0.2,0.1,0.1C178.9,20,179,20,179,19.9z M178.8,49.8L178.8,49.8L178.8,49.8L178.8,49.8z M179.1,15.3
		l-0.1,0.1c0,0.1,0,0.1,0.1,0.1c0.1,0.1,0.1,0,0.1-0.1C179.1,15.4,179.1,15.4,179.1,15.3z M179.2,31.8c0,0-0.1-0.1-0.1-0.1
		c0,0-0.1,0.1-0.1,0.1c0,0.2,0.1,0.2,0.2,0.1V31.8z M179.1,23.1L179.1,23.1V23V23.1L179.1,23.1z M179.4,56.7c0.1,0,0.2-0.1,0.2-0.2
		c0-0.1-0.1-0.2-0.3-0.3c-0.2,0-0.3,0.1-0.2,0.3C179.1,56.7,179.2,56.7,179.4,56.7z M179.3,26.3c0,0,0,0.1,0,0.1c0,0,0,0.1,0,0.1
		c0.1,0,0.2,0,0.2,0.1v-0.1L179.3,26.3z M179.6,54.8L179.6,54.8l-0.1-0.1c0,0,0,0.1,0,0.1C179.5,54.9,179.5,54.9,179.6,54.8
		C179.5,54.8,179.5,54.8,179.6,54.8z M179.9,29.1c-0.1,0.1-0.1,0.2-0.1,0.2c0,0.1,0,0.1,0.1,0.1c0.1,0.1,0.2,0.1,0.2-0.1
		C180,29.3,180,29.2,179.9,29.1z M180.4,51.4l-0.1,0.1v0.1L180.4,51.4L180.4,51.4z M180.7,14.7c0-0.2-0.1-0.3-0.2-0.3
		c0,0-0.1,0-0.2,0.1c0,0.2,0.1,0.4,0.3,0.4C180.7,14.9,180.7,14.8,180.7,14.7z M180.8,24.6C180.7,24.6,180.7,24.6,180.8,24.6
		c-0.1,0.1-0.1,0.1-0.1,0.1c0,0,0,0.1,0.1,0.1L180.8,24.6L180.8,24.6z M182.1,32.2c0-0.1-0.1-0.2-0.3-0.3c-0.2,0-0.3,0.1-0.3,0.4
		c0,0.2,0.1,0.3,0.2,0.2C182,32.5,182.1,32.4,182.1,32.2z M181.7,14.9L181.7,14.9h0.2l-0.1-0.1C181.7,14.8,181.7,14.8,181.7,14.9z
		 M181.9,59.8c0.1,0,0.2-0.1,0.2-0.3c0.1-0.2,0-0.3-0.3-0.3c-0.1,0-0.2,0.1-0.2,0.3C181.7,59.7,181.7,59.8,181.9,59.8z M182.8,57.1
		C182.9,57.1,182.9,57.1,182.8,57.1c0.1,0.1,0.1,0.1,0.1,0.1l0.1-0.1c0,0,0-0.1,0-0.1c0,0,0,0,0-0.1L182.8,57.1z M183.2,37.4
		c0-0.1-0.1-0.2-0.2-0.2l-0.1,0.1l-0.1,0.1c0,0,0,0.1,0.1,0.2C183.1,37.6,183.1,37.5,183.2,37.4z M183.6,58.4L183.6,58.4
		C183.6,58.7,183.7,58.7,183.6,58.4L183.6,58.4L183.6,58.4z M183.6,36.5L183.6,36.5L183.6,36.5L183.6,36.5z M184,15.8
		c0,0-0.1,0-0.1-0.1l-0.1,0.1C183.8,15.7,183.8,15.8,184,15.8L184,15.8z M184,34.3c-0.1,0-0.2,0-0.2,0.1s0,0.2,0.1,0.2
		c0.1,0,0.2-0.1,0.2-0.2C184.3,34.3,184.2,34.3,184,34.3z M184.6,59.3c0-0.2-0.1-0.3-0.3-0.3c-0.1,0-0.2,0.1-0.2,0.2
		c0,0.2,0.1,0.3,0.2,0.3C184.5,59.5,184.6,59.5,184.6,59.3z M184.8,36.3C184.8,36.2,184.8,36.2,184.8,36.3l-0.1-0.1
		c0,0-0.1,0-0.1,0.1C184.7,36.2,184.8,36.2,184.8,36.3z M185.7,58.2c0-0.1,0-0.1-0.1-0.1c0,0-0.1,0-0.1-0.1c-0.1,0-0.3,0.1-0.4,0.4
		c0,0-0.1,0.1,0,0.1c0,0,0.1,0,0.2,0c0.1,0,0.2-0.1,0.2-0.1C185.5,58.3,185.6,58.3,185.7,58.2z M186.8,16.3c0-0.1,0-0.2,0.1-0.3
		c0.1-0.1,0-0.2-0.3-0.2c-0.2,0-0.3,0.2-0.3,0.5s0.1,0.4,0.3,0.4c0.2,0,0.3,0,0.2-0.1C186.8,16.5,186.8,16.4,186.8,16.3z
		 M187.2,13.5c-0.1,0-0.1,0.1-0.1,0.2l0.2,0.2c0.1,0.1,0.1,0,0.1-0.1C187.4,13.6,187.3,13.5,187.2,13.5z M187.2,37.6
		c-0.1,0-0.1,0.1-0.1,0.2c0.1,0.1,0.2,0.1,0.2,0.1c0.2,0,0.2-0.1,0.1-0.2C187.3,37.5,187.3,37.5,187.2,37.6z M188.4,57.8
		c-0.1,0.1-0.2,0.2-0.1,0.3c0,0.2,0.1,0.2,0.2,0.1c0.1-0.1,0.1-0.2,0.1-0.2C188.6,57.9,188.6,57.8,188.4,57.8z M188.6,14.5v-0.2
		h-0.1L188.6,14.5L188.6,14.5z M188.7,44.9L188.7,44.9L188.7,44.9L188.7,44.9z M189.1,37.7C189,37.7,189,37.7,189.1,37.7v0.1
		c0.1,0.1,0.1,0.1,0.1-0.1C189.2,37.7,189.1,37.7,189.1,37.7z M189.4,44.2c0-0.1-0.1-0.2-0.2-0.2c0,0-0.1,0-0.1,0.1
		c-0.1,0.1,0,0.2,0.1,0.2C189.4,44.4,189.4,44.3,189.4,44.2z M189.4,61.1c0,0-0.1-0.1-0.1-0.1c0,0,0-0.1-0.1-0.1c0,0,0,0.1,0,0.1
		s0,0,0,0.1c0,0,0,0.1,0.1,0.1C189.3,61.2,189.4,61.2,189.4,61.1C189.4,61.1,189.4,61.1,189.4,61.1z M190.6,21.5
		c-0.2,0-0.3,0-0.3,0.1c0,0.1,0,0.1,0.1,0.1c0,0,0.1,0,0.2-0.1C190.7,21.5,190.7,21.5,190.6,21.5z M191.3,44.4
		c0-0.2-0.2-0.3-0.4-0.3c-0.2-0.1-0.3,0-0.3,0.2c0.1,0.2,0.2,0.3,0.4,0.3C191.1,44.6,191.2,44.6,191.3,44.4z M191.4,48
		c-0.1-0.1-0.2-0.2-0.3-0.2c-0.1,0-0.1,0.1-0.1,0.2c0,0.1,0,0.2,0.2,0.2C191.3,48.2,191.4,48.1,191.4,48z M191,55.9L191,55.9
		L191,55.9L191,55.9z M191.1,40.8L191.1,40.8L191.1,40.8L191.1,40.8z M191.3,19.3L191.3,19.3L191.3,19.3L191.3,19.3z M192.4,55
		c0-0.1,0-0.2-0.1-0.2c-0.1-0.1-0.1-0.1-0.1,0.1c0,0.1,0,0.1,0.1,0.1H192.4L192.4,55z M193.5,21.8c-0.2,0-0.3,0.1-0.3,0.2
		c0,0.2,0.1,0.3,0.2,0.3c0.2,0,0.3-0.1,0.3-0.2C193.7,22,193.6,21.9,193.5,21.8z M193.9,52.6L193.9,52.6l-0.1-0.1
		c-0.1,0-0.2,0-0.3,0.1c-0.1,0.1,0,0.2,0.1,0.2C193.8,52.8,193.9,52.7,193.9,52.6z M193.6,20.1L193.6,20.1L193.6,20.1L193.6,20.1
		L193.6,20.1z M195.3,26.2C195.3,26.2,195.4,26.1,195.3,26.2c0.1-0.1,0.1-0.1,0.1-0.1V26l-0.1-0.1c-0.1-0.1-0.2-0.1-0.2,0.1
		L195.3,26.2z"/>
	<path class="st0" d="M10.5,84.1h0.4c0.1,0.1,0.3,0.2,0.6,0.2c0.8,0,1.6,0,2.4,0c0.8,0,1.6,0,2.4,0c0.4,0,0.8,0,1.1,0
		c0.4,0.1,0.7,0,1-0.3h0.9c0.2,0.2,0.5,0.4,0.7,0.5c0.2,0.2,0.5,0.3,0.8,0.4c0.5,0.1,0.8,0.5,0.9,1.2c0.1,0.2,0.1,0.5,0.1,0.8
		c0,0.3,0,0.6,0.2,0.8v0.9c-0.9,1.5-2.2,2.3-4,2.2c-0.6,0-1.3,0.1-1.9,0.4c-1.2,0.6-1.8,1.6-1.9,3c0,0.5,0,1.1,0,1.6
		c0,0.5,0,1.1,0,1.6c0,0.5,0.1,1.1,0.1,1.6c0,0.6,0.1,1.1,0.1,1.6c0,0.5-0.1,0.9-0.1,1.4c0,0.5,0,0.9,0,1.3c0,1,0,2,0.1,3
		c0,1,0,2,0,3c0,0.3,0,0.5,0.1,0.6c0.1,0.3,0.1,0.5,0.1,0.6c-0.2,0.3-0.3,0.6-0.3,0.9c0,0.3,0.1,0.6,0.1,0.9c0,0.4,0,0.9,0,1.3
		c-0.1,0.8-0.2,1.6-0.1,2.5c0.1,0.8,0.1,1.7,0,2.6c0,0.2,0,0.5,0,0.8c0,0.3,0,0.6-0.1,0.9c-0.1,0.3-0.1,0.6,0,0.8
		c0.1,0.4,0.2,0.9,0.2,1.3c0,0.5,0,0.9,0,1.3c0,0.2,0,0.5,0,0.8c-0.1,0.3-0.1,0.5-0.1,0.8c0.1,0.8,0.1,1.5,0.1,2.3s-0.1,1.6-0.3,2.4
		c-0.1,0.2-0.1,0.4,0,0.6c0.1,0.4,0.2,0.7,0.2,1.1c0,0.3,0,0.7,0,1.1c0,1-0.4,1.7-1.3,2.1c-0.2,0.1-0.4,0.2-0.5,0.3
		c-0.2,0.1-0.3,0.3-0.4,0.5h-1.9c-0.1-0.1-0.3-0.3-0.6-0.4c-0.9-0.3-1.4-1.1-1.6-2.2c-0.1-0.8-0.1-1.6,0-2.4c0.1-0.8,0.1-1.6,0-2.4
		c-0.1-0.9-0.1-1.7,0-2.6c0.1-0.9,0.1-1.8,0-2.6c0-0.6-0.1-1.2,0-1.7c0-0.6,0-1.2,0-1.7c0-0.9,0-1.8,0-2.7s0-1.8-0.1-2.7
		c0-0.3,0-0.7,0-1c0-0.3,0.1-0.7,0.1-1.1c0-0.6,0.1-1.2,0.1-1.8c0-0.6,0-1.2,0-1.8c-0.1-0.6-0.2-1.2-0.2-1.8c0-0.6,0-1.2,0.1-1.8
		c0.1-0.6,0.1-1.2,0.1-1.9c0-0.6-0.1-1.2-0.1-1.9c0-0.4,0-0.8,0-1.2c0-0.4,0-0.9-0.1-1.3c0-0.7,0-1.3,0.1-1.9
		C7.9,96.3,8,95.6,7.9,95c0-0.5-0.1-0.9-0.3-1.4c-0.2-0.4-0.2-0.9-0.1-1.4h0.1l-0.1,0.1c-0.1-0.1-0.3-0.3-0.4-0.4
		c-0.1-0.1-0.3-0.3-0.5-0.4c-0.5-0.2-0.9-0.5-1.4-0.7c-0.5-0.2-1-0.3-1.5-0.2c-1,0.1-1.8-0.1-2.5-0.7c-0.1-0.1-0.4-0.3-0.6-0.4
		c-0.3-0.1-0.2-0.4,0.1-0.8c0-0.1,0-0.2-0.1-0.2c-0.2,0-0.3-0.1-0.3-0.3c0-0.2-0.1-0.3-0.3-0.4v-1.3c0.2-0.2,0.3-0.3,0.4-0.4
		c0.4-0.8,1-1.3,1.7-1.5c0.7-0.2,1.4-0.3,2.2-0.2c0.4,0,0.8,0.1,1.1,0.1c0.4,0,0.7-0.1,1-0.3h1.1c0.3,0.3,0.6,0.3,0.9,0h0.9
		C9.6,84.4,10,84.4,10.5,84.1z M1.4,85.8v-0.1c0,0,0,0-0.1-0.1v0.2C1.3,85.8,1.4,85.8,1.4,85.8z M6.4,86.5c0-0.1,0-0.2-0.1-0.2
		c-0.1,0-0.3,0-0.4,0.2c0,0.2,0.1,0.3,0.2,0.3C6.3,86.8,6.4,86.7,6.4,86.5z M6.8,88.6v-0.1C6.7,88.5,6.7,88.5,6.8,88.6L6.8,88.6
		L6.8,88.6z M8.4,85.5c0,0,0,0.1-0.1,0.1c0,0.1,0,0.2,0.1,0.2c0.1,0,0.2,0,0.2-0.1L8.4,85.5z M8.6,107.6
		C8.6,107.5,8.6,107.5,8.6,107.6c-0.1-0.1-0.1-0.1-0.1-0.1c0,0-0.1,0-0.1,0.1v0.1C8.5,107.6,8.5,107.6,8.6,107.6
		C8.5,107.6,8.5,107.6,8.6,107.6z M8.9,115.8c0-0.1-0.1-0.1-0.2-0.1s-0.2,0-0.2,0.1c0,0.1,0.1,0.2,0.3,0.2
		C8.9,116.1,8.9,116,8.9,115.8z M8.9,87.1c0.2,0,0.4-0.3,0.4-0.6c0-0.2,0-0.2-0.1-0.1c-0.3,0.2-0.5,0.4-0.5,0.6
		C8.6,87,8.7,87.1,8.9,87.1z M9.4,97.9c-0.1,0-0.2,0.1-0.2,0.2c0,0,0.1,0,0.1,0.1c0,0,0,0.1,0.1,0.1c0.1,0,0.2,0,0.2-0.1
		C9.6,98,9.5,97.9,9.4,97.9z M9.6,122.5L9.6,122.5L9.6,122.5L9.6,122.5L9.6,122.5z M10.2,115c0-0.1-0.1-0.2-0.2-0.2
		c-0.1,0-0.1,0-0.1,0.1c-0.1,0.1,0,0.2,0.1,0.2C10.1,115.1,10.1,115.1,10.2,115z M10.4,95.8c-0.1,0-0.2,0.1-0.2,0.2
		c0,0.1,0,0.2,0.1,0.2c0.1,0,0.2-0.1,0.2-0.2C10.6,95.9,10.5,95.8,10.4,95.8z M10.6,94.1c-0.2,0.1-0.3,0.2-0.3,0.4
		c0.1,0.2,0.2,0.3,0.3,0.2c0.2,0,0.3-0.1,0.3-0.3C10.9,94.2,10.8,94.1,10.6,94.1z M10.5,92.6l-0.1,0.1l0.1,0.1l0.1-0.1
		C10.6,92.7,10.6,92.7,10.5,92.6C10.5,92.7,10.5,92.6,10.5,92.6z M10.5,117.5l-0.1,0.1c0,0.2,0.1,0.2,0.2,0.1l0.1-0.1L10.5,117.5z
		 M10.8,102c0,0-0.1,0-0.1,0c0,0-0.1,0.1-0.1,0.1l0.1,0.1C10.8,102.2,10.8,102.1,10.8,102z M11,89.6c-0.2-0.1-0.3,0-0.3,0.2
		c0,0.2,0.1,0.3,0.2,0.3c0.2,0,0.3-0.1,0.3-0.2C11.2,89.7,11.2,89.6,11,89.6z M10.9,86.4c-0.1,0-0.1,0-0.1,0.1l0.1,0.1
		c0,0,0.1,0,0.1,0c0,0,0,0,0.1,0L10.9,86.4z M12.3,87.2c0-0.3-0.1-0.4-0.4-0.4c-0.3,0-0.5,0.1-0.5,0.4c0.1,0.2,0.3,0.4,0.6,0.4
		C12.2,87.7,12.3,87.5,12.3,87.2z M11.7,88.8c0-0.1,0-0.1-0.1-0.1c-0.1-0.1-0.2-0.1-0.2,0.1l0.1,0.1C11.7,89.1,11.7,89,11.7,88.8z
		 M11.9,106.3c0.2,0,0.3-0.1,0.3-0.4c0-0.1,0-0.2,0-0.3c0-0.1-0.1-0.2-0.3-0.3c-0.2-0.1-0.4,0-0.4,0.2
		C11.5,105.9,11.6,106.2,11.9,106.3z M11.8,94c0,0,0-0.1,0-0.2c0,0-0.1,0-0.1,0.1c-0.1,0-0.1,0,0,0.1H11.8z M11.9,126.4
		c0.1,0,0.2,0,0.2-0.1c0-0.1,0-0.1-0.1-0.1c-0.1-0.1-0.2-0.1-0.2,0.1C11.6,126.3,11.7,126.4,11.9,126.4z M12,130.8L12,130.8
		L12,130.8L12,130.8z M12.4,124.7C12.4,124.8,12.4,124.8,12.4,124.7c-0.1,0.1-0.1,0.1-0.1,0.1l0.1,0.1c0,0,0.1,0,0.1,0
		c0,0,0,0,0.1,0L12.4,124.7z M12.8,116c0.1,0,0.2-0.1,0.1-0.2c0,0,0-0.1-0.1-0.1c-0.1-0.1-0.2-0.1-0.2,0.1
		C12.6,115.9,12.7,116,12.8,116z M12.7,92.7L12.7,92.7L12.7,92.7L12.7,92.7z M13.3,112.9l-0.1,0.1v0.1C13.3,113,13.3,113,13.3,112.9
		L13.3,112.9z M15.3,90.4c-0.1,0-0.2,0-0.2,0.1c0,0.1,0,0.1,0.1,0.1c0,0,0.1,0,0.2-0.1C15.4,90.5,15.4,90.4,15.3,90.4z M16,87L16,87
		c0.1,0,0.1,0,0.1-0.1c0-0.1,0-0.2-0.1-0.2c-0.1,0-0.1,0-0.1,0.1C15.7,87,15.8,87,16,87z M17.8,86.8c0-0.3-0.1-0.5-0.4-0.5
		c-0.1,0-0.2,0.2-0.2,0.5s0.1,0.4,0.4,0.4C17.8,87.3,17.9,87.2,17.8,86.8z M19,89.6l0.1-0.1c0-0.1,0-0.2-0.1-0.3
		c-0.1,0-0.2,0-0.3,0.1C18.8,89.4,18.9,89.5,19,89.6z M19,85.9L18.9,86c0,0.1,0,0.2,0.1,0.1c0,0,0.1,0,0.1-0.1
		C19.1,85.9,19.1,85.9,19,85.9z M19.8,85.5C19.7,85.5,19.7,85.5,19.8,85.5c0,0.1,0.1,0.1,0.1,0.1v-0.1H19.8
		C19.8,85.4,19.8,85.5,19.8,85.5z M20.3,88.3l-0.1-0.1l-0.2,0.2c0,0.1,0,0.2,0.1,0.1C20.1,88.4,20.2,88.4,20.3,88.3z"/>
	<path class="st0" d="M74.1,110.8c0,16.7-10.2,25.6-22.5,25.6c-12.8,0-21.8-9.9-21.8-24.6c0-15.4,9.6-25.5,22.5-25.5
		C65.5,86.3,74.1,96.4,74.1,110.8z M36.4,111.6c0,10.4,5.6,19.7,15.5,19.7c9.9,0,15.6-9.1,15.6-20.2c0-9.6-5-19.7-15.5-19.7
		C41.6,91.4,36.4,100.9,36.4,111.6z"/>
	<path class="st0" d="M76.8,93.5v-1.1c0.2-0.8,0.3-1.5,0.3-2.3c0-0.7-0.1-1.5-0.3-2.3V87c0.3-0.5,0.6-1,1-1.5s0.8-0.9,1.4-1.2H80
		h0.2h0.2c0.1,0.1,0.2,0.1,0.3,0.1c0.1,0,0.2,0,0.3,0.1c0.7,0.1,1.2,0.5,1.6,1.1c0.4,0.6,0.6,1.2,0.5,1.9c0,0.4,0,0.7,0,1
		c0,0.3,0,0.7,0,1c-0.1,0.7-0.1,1.3,0,1.9c0.1,0.6,0,1.3-0.1,1.9h-0.2c0,0-0.1,0-0.1,0c0,0-0.1,0-0.2,0c0,0,0.1,0.1,0.1,0.2
		c0.1,0,0.2,0,0.3-0.1c0-0.1,0-0.1,0.1-0.1c0.1,0.2,0.2,0.4,0.2,0.5c0,0.2,0,0.3,0,0.5c0,0.4,0,0.8-0.1,1.1c-0.1,0.4-0.1,0.7,0,1
		c0.2,0.6,0.3,1.2,0.3,1.7c0,0.6,0,1.2-0.1,1.7c-0.1,1.2-0.2,2.5-0.2,3.7s0,2.5,0,3.7c0,0.8,0,1.7,0.1,2.5c0.1,0.9,0.1,1.7,0,2.5
		c0,0.3-0.1,0.6-0.1,0.9c0,0.3,0,0.6,0.1,0.9c0.1,0.3,0.2,0.7,0.2,1c0,0.3-0.1,0.6-0.5,0.8c-0.1,0.1-0.1,0.2,0,0.4
		c0.1,1,0.2,2,0.3,3.1c0,1,0,2.1,0,3.1c-0.1,1,0,1.9,0.4,2.8c0.5,1.4,1.2,2.4,2.2,3.1c1,0.6,2.3,0.7,3.9,0.3
		c0.8-0.2,1.3-0.6,1.7-1.2c0.4-0.5,0.7-1.1,0.9-1.7c0.1-0.2,0.2-0.4,0.2-0.6c0-0.2,0-0.4-0.1-0.5c-0.3-0.7-0.4-1.4-0.3-2.1
		c0.1-0.7,0.1-1.5,0-2.3c-0.1-0.5-0.1-1,0-1.4c0.1-0.5,0.1-1,0-1.5c-0.1-0.6-0.1-1.3-0.1-1.9c0-0.6,0.1-1.3,0.1-1.9c0-0.3,0-0.7,0-1
		c-0.1-0.3-0.1-0.7,0-1c0.1-0.4,0.2-0.9,0.2-1.3c0-0.4,0-0.8-0.1-1.3c0-0.5-0.1-0.9-0.1-1.4c0-0.5,0-0.9,0.1-1.5
		c0.1-0.4,0.1-0.9,0.1-1.4c0-0.5-0.1-0.9-0.2-1.4c-0.1-0.7-0.1-1.4-0.1-2.1c0-0.7,0.1-1.4,0.1-2.1c0-0.6,0.1-1.2,0.2-1.8
		c0.1-0.6,0-1.2-0.3-1.8c-0.1-0.3-0.1-0.7,0.1-1.1l0.1-0.1l-0.1,0.1l-0.1-0.1c0-1,0.1-1.9,0.1-2.9c0-1,0-1.9-0.1-2.9
		c-0.1-0.7-0.1-1.3,0-2c0.1-0.6,0.5-1.2,1.2-1.8c0.3-0.2,0.6-0.3,0.9-0.5c0.3-0.1,0.6-0.3,0.8-0.4h1.1c0.2,0.1,0.5,0.2,0.7,0.4
		c0.2,0.1,0.4,0.3,0.7,0.4c0.1,0.1,0.3,0.2,0.4,0.4c0.1,0.4,0.2,0.8,0.4,1.2c0.1,0.4,0.2,0.8,0.1,1.2c-0.1,0.8-0.1,1.6,0,2.4
		c0,0.4,0,0.7,0,1.1c0,0.3,0,0.7,0.1,1c0.1,0.2,0.1,0.5,0.1,0.8c0,0.3,0,0.5,0,0.8c0,0.5,0,1.1,0,1.6c0,0.6,0,1.1-0.1,1.6
		c0,0.8,0,1.5,0,2.3c0,0.7,0.1,1.5,0.1,2.3c0,0.3,0,0.6-0.1,0.8c-0.1,0.3-0.1,0.5,0,0.8c0.2,1.5,0.3,3,0.1,4.3
		c-0.1,0.4-0.1,0.9,0,1.3c0.1,0.4,0,0.8-0.2,1.2c0-0.1,0-0.2,0-0.4c0-0.1-0.1-0.2-0.4-0.2l-0.1,0.1c0,0.2,0,0.4,0.2,0.4
		s0.3,0,0.4,0.1c0,0.2,0,0.5,0.1,0.8c0.1,0.3,0.1,0.5,0.1,0.8c-0.1,0.8-0.1,1.5-0.1,2.3c0,0.7,0,1.5,0,2.3c0,0.4,0,0.7,0.1,1
		c0,0.3,0,0.7,0,1c-0.2,1.2-0.3,2.3-0.3,3.4c0.1,1.1,0.2,2.2,0.3,3.3c0.1,0.5,0.1,1.1,0.1,1.6c0,0.5-0.1,1.1-0.4,1.6v0.1v-0.1
		c0.1,0.1,0.1,0.2,0.1,0.3c-0.2,0.3-0.3,0.7-0.5,1c-0.1,0.4-0.3,0.7-0.5,1c-0.4,0.3-0.7,0.8-0.9,1.4c-0.1,0.2-0.2,0.5-0.4,0.7
		c-0.2,0.2-0.5,0.4-0.8,0.5c-0.3,0.1-0.6,0.2-0.7,0.4c-0.2,0.4-0.6,0.6-1,0.8c-0.4,0.1-0.8,0.3-1.2,0.5c-0.4,0.2-0.9,0.3-1.3,0.4
		c-0.4,0.1-0.9,0.2-1.3,0.4c-0.6,0.3-1.3,0.4-2,0.3c-0.5-0.1-1.1-0.2-1.6-0.3c-0.6-0.1-1.1-0.2-1.6-0.4c-0.5-0.1-1-0.3-1.5-0.5
		c-0.5-0.2-0.9-0.5-1.3-0.9c-0.3-0.3-0.7-0.7-1-1c-0.3-0.3-0.7-0.6-1.2-0.8c-0.2-0.1-0.4-0.2-0.5-0.4c-0.1-0.2-0.2-0.4-0.3-0.6
		c-0.3-0.7-0.6-1.3-1-2c-0.4-0.7-0.6-1.4-0.7-2.2c0-0.3-0.1-0.5-0.3-0.6v-1.3c0.1-0.2,0.2-0.4,0.2-0.5c0-0.2,0-0.3-0.2-0.5v-1.5
		v-0.2v-1.3c0.2-0.3,0.3-0.6,0.3-0.8c-0.1-0.3-0.2-0.5-0.3-0.8v-0.6c0.1-0.6,0.2-1.2,0.3-1.7c0-0.6,0-1.2-0.3-1.7v-0.4
		c0.2-0.2,0.2-0.4,0-0.6v-1.3c0.1-0.1,0.2-0.3,0.2-0.6c0-0.8,0.1-1.6,0.1-2.3c0-0.7,0-1.5-0.1-2.3c0-0.1,0-0.3-0.1-0.5v-0.2
		c0.2-0.4,0.3-0.7,0.3-1.1c0-0.3-0.1-0.7-0.3-1.1v-0.6c0.1-0.2,0.2-0.5,0.3-0.6c0.1-0.2,0-0.4-0.3-0.6v-0.9c0.3-0.2,0.3-0.5,0-0.9
		v-1.1c0.1-0.1,0.1-0.2,0.1-0.2s0-0.1,0.1-0.2c0.1-0.5,0.2-1.1,0-1.6c-0.1-0.5-0.1-1.1,0-1.6v0.1c0,0-0.1-0.1-0.1-0.1
		c0,0-0.1,0-0.1-0.1v-1.7C77.1,94,77.1,93.7,76.8,93.5z M77.3,100.7c0.2,0,0.3-0.1,0.4-0.3c0-0.2-0.1-0.3-0.2-0.3
		c-0.2,0-0.4,0.1-0.4,0.2C77.1,100.6,77.2,100.7,77.3,100.7z M77.4,118.6l-0.1-0.1c0,0-0.1,0-0.1,0c0,0-0.1,0-0.1,0l0.1,0.1
		C77.4,118.7,77.4,118.6,77.4,118.6z M77.8,119.5h0.3c0.2,0,0.4,0,0.4-0.1c0-0.1,0-0.2-0.1-0.3c-0.2-0.1-0.4-0.1-0.5,0.2L77.8,119.5
		c-0.2,0.1-0.3,0.1-0.3,0.3l0.1,0.1C77.7,119.9,77.7,119.8,77.8,119.5z M77.8,105.3C77.8,105.3,77.8,105.3,77.8,105.3
		c0.1-0.1,0.1-0.1,0.1-0.1l-0.1-0.1c-0.1,0-0.2,0-0.2,0.1L77.8,105.3z M78,111.5C77.9,111.5,77.9,111.6,78,111.5L78,111.5L78,111.5z
		 M78.3,113.8v-0.1h-0.1l-0.1,0.1H78.3z M79.1,88.6c-0.1-0.1-0.2-0.2-0.2-0.4c0-0.1,0-0.2-0.1-0.3c-0.2,0-0.3,0.1-0.3,0.4
		c-0.1,0.3,0,0.4,0.3,0.4C79,88.8,79.1,88.8,79.1,88.6z M79.1,122.3c0-0.2-0.1-0.3-0.2-0.3c-0.1,0-0.1,0-0.1,0.1
		c-0.1,0.2-0.1,0.4,0.1,0.4C78.9,122.6,79,122.5,79.1,122.3z M78.8,123.1L78.8,123.1C79,123.1,78.9,123,78.8,123.1L78.8,123.1z
		 M79.4,109.9c0.1-0.1,0.1-0.2,0.1-0.2c0-0.1,0-0.1-0.1-0.1c0,0-0.1,0-0.2,0.1C79.2,109.8,79.3,109.9,79.4,109.9z M79.3,85.5
		c-0.1,0.1-0.1,0.2-0.1,0.2l0.1,0.3c0.1,0,0.2-0.1,0.2-0.1c0,0,0-0.1,0-0.2C79.6,85.5,79.5,85.4,79.3,85.5z M79.8,115.2
		C79.7,115.2,79.7,115.2,79.8,115.2l-0.1-0.1c-0.1,0.1-0.1,0.2-0.1,0.3c0,0,0.1,0,0.1,0.1c0,0,0,0.1,0.1,0.1L79.8,115.2z M79.9,98.4
		c-0.2,0-0.3,0.1-0.4,0.2c0,0.2,0.1,0.3,0.2,0.3c0.1,0,0.3,0,0.4-0.2C80.1,98.5,80.1,98.4,79.9,98.4z M79.9,104
		c-0.1,0-0.3,0.1-0.4,0.3c0,0.2,0,0.3,0.1,0.4c0.1,0,0.3,0,0.4-0.3C80.1,104.1,80.1,104,79.9,104z M80.2,120.8L80.2,120.8l-0.1-0.1
		c-0.2,0-0.3,0.2-0.3,0.4c-0.1,0.2-0.1,0.3,0.1,0.2C80,121.2,80.1,121.1,80.2,120.8z M79.9,93.6l0.1-0.1v-0.1v-0.1
		c-0.1,0-0.2,0-0.3,0.1C79.8,93.5,79.8,93.5,79.9,93.6L79.9,93.6z M80.6,122.1c-0.1-0.1-0.2-0.1-0.2-0.1c-0.1,0.1-0.1,0.2-0.1,0.2
		c0,0.1,0,0.2,0.1,0.1C80.4,122.3,80.5,122.3,80.6,122.1z M80.6,96.5c-0.2,0-0.3,0.1-0.3,0.2c0,0.1,0,0.2,0.1,0.1c0,0,0.1,0,0.2-0.1
		C80.8,96.6,80.8,96.5,80.6,96.5z M80.3,115.7c0,0.1,0,0.2,0.1,0.1c0,0,0.1,0,0.1-0.1c0-0.1,0-0.1-0.1-0.1
		C80.3,115.6,80.3,115.6,80.3,115.7z M80.9,130c0-0.1-0.1-0.2-0.2-0.2c-0.2,0-0.3,0.1-0.3,0.2c0,0.1,0,0.2,0.1,0.2
		C80.6,130.2,80.8,130.2,80.9,130z M81,116.9c0,0-0.1-0.1-0.2-0.1c-0.1,0-0.2,0-0.1,0.1l0.1,0.1C80.9,117.1,80.9,117,81,116.9
		C80.9,117,81,116.9,81,116.9z M80.9,124.7v-0.1C80.8,124.6,80.8,124.6,80.9,124.7C80.9,124.8,80.9,124.8,80.9,124.7L80.9,124.7z
		 M81.4,128.4c0-0.2-0.1-0.3-0.3-0.3c-0.1,0-0.2,0.1-0.2,0.2c0,0.2,0.1,0.3,0.2,0.3C81.2,128.6,81.3,128.6,81.4,128.4z M81.9,109.7
		c0-0.1,0-0.2-0.1-0.2c-0.1,0-0.2,0.1-0.3,0c-0.1,0-0.2,0-0.3,0.1c-0.1,0.1,0,0.2,0.1,0.2C81.6,109.9,81.8,109.8,81.9,109.7z
		 M81.2,111.7L81.2,111.7v-0.1C81.2,111.5,81.1,111.6,81.2,111.7L81.2,111.7z M81.6,116.3c0-0.2-0.1-0.3-0.2-0.3s-0.2,0-0.2,0.1
		c-0.1,0.2,0,0.3,0.2,0.3C81.5,116.4,81.6,116.4,81.6,116.3z M81.4,93.2L81.4,93.2L81.4,93.2L81.4,93.2c0.1,0.1,0.1,0.1,0.1,0.1
		c0.1,0,0.2,0,0.1-0.1H81.4z M81.7,103.4l-0.1,0.1c0,0.1,0,0.2,0.1,0.2c0.1,0,0.1-0.1,0.1-0.2C81.7,103.5,81.7,103.4,81.7,103.4z
		 M82.1,104.8L82.1,104.8L82.1,104.8L82.1,104.8h0.1H82.1z M82.2,113L82.2,113c-0.1,0.1,0,0.1,0,0.1h0.1
		C82.3,113.1,82.3,113,82.2,113z M82.2,128.2L82.2,128.2c-0.1,0-0.1,0-0.1,0S82.1,128.3,82.2,128.2L82.2,128.2z M82.4,95.3
		c0-0.1,0-0.1-0.1-0.1c-0.1-0.1-0.1-0.1-0.1,0.1c-0.1,0.1-0.1,0.2,0.1,0.2C82.4,95.5,82.4,95.4,82.4,95.3z M83.1,128L83.1,128
		c0.1,0,0.1,0,0.1,0c0,0,0,0,0.1,0l-0.1-0.1L83.1,128z M83.2,129.4L83.2,129.4c-0.2,0.1-0.1,0.1,0,0.1
		C83.3,129.5,83.3,129.5,83.2,129.4C83.3,129.4,83.3,129.4,83.2,129.4z M85.4,133.4c0.2,0,0.3-0.1,0.3-0.3c0-0.2,0-0.3,0-0.5
		c0.1-0.2,0.1-0.4,0-0.4c-0.2,0.1-0.5,0.4-0.6,0.8C85.1,133.3,85.2,133.4,85.4,133.4z M86.5,133.6L86.5,133.6
		C86.4,133.8,86.5,133.8,86.5,133.6L86.5,133.6L86.5,133.6z M89.7,129.7L89.7,129.7c0,0-0.1,0-0.2,0l0.1,0.1
		C89.6,129.7,89.7,129.7,89.7,129.7z M90.2,130.8c0-0.2,0-0.2-0.1-0.1c-0.1,0-0.1,0-0.1,0.1c0,0.1,0,0.2,0.1,0.2
		C90.2,131,90.2,131,90.2,130.8z M90.7,134.9L90.7,134.9c-0.1-0.2-0.1-0.2-0.1-0.1C90.6,134.8,90.6,134.9,90.7,134.9L90.7,134.9z
		 M92.3,130.5c0-0.3-0.1-0.4-0.3-0.4c-0.1,0-0.2,0.1-0.2,0.2c0,0.2,0.1,0.3,0.4,0.4c0.1,0,0.2,0,0.1-0.1
		C92.3,130.6,92.3,130.5,92.3,130.5z M92.4,114.3C92.4,114.2,92.4,114.2,92.4,114.3L92.4,114.3L92.4,114.3L92.4,114.3z M93,95.5
		c0.1-0.1,0.1-0.2,0.1-0.2c0-0.1,0-0.2-0.1-0.2c0,0-0.1,0-0.1,0c-0.3,0-0.3,0.1-0.1,0.3C92.8,95.5,92.9,95.5,93,95.5z M92.9,111.5
		c0,0,0.1-0.1,0.2-0.1l-0.1-0.1h-0.1c0,0,0,0.1,0,0.1C92.9,111.4,92.9,111.5,92.9,111.5z M93.3,115.2c-0.1-0.1-0.2-0.1-0.2-0.1
		c-0.1,0-0.2,0.1-0.2,0.2c0.1,0.1,0.2,0.1,0.2,0.1C93.2,115.4,93.3,115.3,93.3,115.2z M93.5,90.5l-0.1-0.1c-0.2,0.1-0.2,0.1-0.1,0.1
		c0,0,0.1,0.1,0.1,0.1C93.5,90.6,93.6,90.6,93.5,90.5z M93.7,103.8c0-0.2-0.1-0.3-0.2-0.3s-0.2,0.1-0.2,0.2c0,0.1,0.1,0.2,0.2,0.2
		S93.7,103.8,93.7,103.8z M93.9,116.4c0-0.1,0-0.1-0.1-0.1c-0.1-0.1-0.1-0.1-0.1,0.1c0,0,0,0.1,0.1,0.2
		C93.8,116.6,93.9,116.5,93.9,116.4z M93.7,133.2L93.7,133.2v0.1C93.7,133.3,93.7,133.3,93.7,133.2
		C93.7,133.3,93.7,133.2,93.7,133.2L93.7,133.2z M93.9,111.3c-0.1,0-0.1,0.1-0.1,0.2c0,0.1,0,0.1,0.1,0.1c0.1,0,0.2,0,0.2-0.1
		C94.2,111.4,94.1,111.3,93.9,111.3z M94,106.8c-0.1,0-0.2,0.1-0.2,0.3c0,0.2,0.1,0.3,0.4,0.3s0.3-0.1,0.3-0.3
		C94.4,106.9,94.3,106.8,94,106.8z M94.2,87c0-0.1,0-0.2-0.1-0.2c-0.1,0-0.1,0-0.1,0.1V87H94.2z M94.4,118.1c-0.1,0-0.2,0.1-0.2,0.3
		c0,0.1,0.1,0.2,0.2,0.2c0.1,0,0.2-0.1,0.2-0.3C94.6,118.2,94.5,118.1,94.4,118.1z M94.4,102.8c-0.2,0.1-0.2,0.2-0.1,0.4
		c0,0,0.1,0.1,0.1,0.1c0.1,0,0.1-0.2,0.1-0.4C94.5,102.8,94.4,102.8,94.4,102.8z M94.2,100.2c0.1,0,0.2,0,0.2-0.1
		c0-0.1,0-0.1-0.1-0.1c-0.1,0-0.1,0-0.1,0.1V100.2z M94.7,129.7c0,0-0.1-0.1-0.1-0.1l-0.1,0.1c0,0,0,0.1,0.1,0.1
		C94.6,129.7,94.7,129.7,94.7,129.7z M95.5,104.1c-0.1-0.2-0.2-0.4-0.4-0.4c-0.3,0-0.4,0.1-0.4,0.3c0,0.1,0,0.2,0.1,0.2
		c0.1,0,0.2,0.1,0.3,0.1C95.3,104.4,95.4,104.4,95.5,104.1z M95,87.7L95,87.7L95,87.7L95,87.7z M95.3,105.3c-0.2,0-0.3,0.1-0.3,0.2
		c-0.1,0.2,0,0.4,0.2,0.4c0.2,0,0.3-0.1,0.3-0.2C95.5,105.5,95.5,105.4,95.3,105.3z M95.4,99.1l0.2-0.2c0-0.1-0.1-0.2-0.4-0.2
		c0,0-0.1,0-0.1,0.1c0,0,0,0.1,0,0.1C95.1,99,95.2,99.1,95.4,99.1z M95.9,86.9c0.1-0.4,0-0.6-0.2-0.6c-0.2,0-0.3,0.1-0.3,0.2
		c0,0.1,0,0.3-0.1,0.4c0,0.2,0.1,0.4,0.3,0.4c0.2,0,0.3,0,0.3-0.1C95.9,87.1,95.9,87,95.9,86.9z M95.4,90.8L95.4,90.8
		c0.2-0.2,0.1-0.2,0-0.2l-0.1,0.1C95.3,90.7,95.4,90.8,95.4,90.8z M95.9,130.2c0-0.2,0-0.3-0.1-0.3s-0.2,0-0.2,0.1
		c-0.1,0.1,0,0.2,0.1,0.2C95.8,130.2,95.9,130.2,95.9,130.2z M95.7,107.8L95.7,107.8L95.7,107.8L95.7,107.8z M96,112.8L96,112.8
		L96,112.8L96,112.8z M96.6,107.7c-0.1-0.2-0.2-0.3-0.3-0.3c-0.2,0-0.3,0.1-0.2,0.3c0,0.1,0.1,0.2,0.3,0.2
		C96.6,107.9,96.6,107.9,96.6,107.7z M96.6,117.5c0.1-0.1,0.1-0.2,0.1-0.2c0.1-0.1,0.1-0.2-0.1-0.2c-0.1,0-0.2,0.1-0.2,0.3
		C96.3,117.5,96.4,117.5,96.6,117.5z M96.9,116.1c-0.1,0.1-0.2,0.2-0.2,0.3c0,0.1,0.1,0.2,0.2,0.2c0.2,0,0.3-0.1,0.3-0.2
		C97.2,116.2,97.1,116.1,96.9,116.1z M97.3,86c0-0.1,0-0.2-0.1-0.2s-0.1,0-0.1,0.1c-0.1,0.1-0.1,0.2,0.1,0.2
		C97.3,86.2,97.3,86.1,97.3,86z M97.4,89.4c-0.1-0.1-0.2-0.1-0.2-0.1c-0.1,0-0.2,0.1-0.2,0.2c0,0.1,0.1,0.2,0.3,0.2
		C97.4,89.5,97.4,89.4,97.4,89.4z M97,107.9L97,107.9l0.1,0.1L97,107.9z M97.1,102.8L97.1,102.8v-0.1V102.8L97.1,102.8L97.1,102.8z
		 M97.6,92.2c0-0.2,0-0.4-0.1-0.4c-0.2,0-0.3,0.1-0.3,0.3c0,0.1,0.1,0.2,0.2,0.2C97.5,92.3,97.5,92.3,97.6,92.2L97.6,92.2z
		 M97.3,106.1L97.3,106.1L97.3,106.1L97.3,106.1z"/>
	<path class="st0" d="M116.8,83.7c0.2,0.1,0.4,0.2,0.6,0.2c0.2,0,0.4,0,0.6,0c0.6,0,1.2,0.1,1.8,0.2c0.6,0.1,1.1,0.3,1.6,0.6
		c0.7,0.2,1.3,0.6,1.8,1c0.6,0.4,1.1,0.8,1.6,1.3c1.5,1.5,2.6,3.4,3.1,5.6c0.1,0.8,0.2,1.6,0.1,2.4s-0.1,1.6,0,2.4
		c0.1,0.7,0.1,1.4,0,2.2c-0.1,0.7-0.1,1.4,0.1,2.1c0,0.4-0.1,0.6-0.3,0.8c-0.3,0.1-0.3,0.4-0.2,0.6c0.1,0.3,0.2,0.6,0.1,0.9
		c-0.1,0.2-0.2,0.5-0.4,0.7c-0.2,0.4-0.4,0.9-0.5,1.5c-0.1,0.3-0.2,0.6-0.4,0.9c-0.1,0.3-0.4,0.5-0.7,0.7c-0.2,0.1-0.4,0.4-0.5,0.6
		c-0.3,0.5-0.8,0.9-1.4,1.2c-0.4,0.2-0.8,0.5-1.2,0.9c-0.4,0.4-0.6,0.9-0.8,1.4c-0.2,0.5-0.3,1-0.3,1.5c0,0.5,0.1,1,0.3,1.4
		c0.3,0.6,0.5,1.2,0.6,1.8c0,0.4,0.2,0.9,0.6,1.4c0.4,0.8,0.7,1.7,0.9,2.7c0.1,0.3,0.2,0.7,0.3,1c0.1,0.3,0.3,0.6,0.5,0.8
		c0.1,0.1,0.3,0.3,0.4,0.6c0.2,0.8,0.4,1.5,0.8,2.2c0.3,0.7,0.5,1.5,0.7,2.3c0.1,0.3,0.2,0.5,0.4,0.7c0.2,0.2,0.3,0.4,0.4,0.7
		c0.2,0.8,0.5,1.5,0.8,2.1c0.4,0.6,0.6,1.4,0.7,2.2c0,0.1,0.1,0.2,0.1,0.3c0,0.1,0.1,0.2,0.2,0.3c0.4,0.5,0.7,1,0.9,1.5
		c0.2,0.6,0.5,1.1,0.7,1.6c0,0.1,0,0.2,0.1,0.3c0.1,0.3,0.3,0.6,0.4,0.8c0.1,0.3,0.4,0.5,0.8,0.7c0.3,0.1,0.6,0.4,0.9,0.8
		c0.3,0.4,0.5,0.7,0.8,1c0.2,0.2,0.4,0.4,0.5,0.6c0.1,0.1,0.3,0.3,0.5,0.5c1.8,1.5,3.9,2.5,6.1,3c0.4,0.1,0.8,0.2,1.2,0.3
		c0.4,0.1,0.8,0.2,1.2,0.3c0.3,0,0.6,0,0.9-0.2c0.2-0.2,0.5-0.2,0.9-0.1c0.7,0.2,1.4,0,2.2-0.4c0.3-0.1,0.6-0.2,0.8-0.3
		c0.3-0.1,0.5-0.1,0.8-0.1c0.2,0,0.5-0.1,0.7-0.2s0.4-0.3,0.7-0.4c0.8-0.5,1.8-0.8,2.9-1.1c0.5-0.1,1,0,1.4,0.2
		c0.4,0.2,0.8,0.5,1,0.9c0.1,0.2,0.3,0.4,0.4,0.6c0.1,0.2,0.3,0.3,0.5,0.4v0.8c-0.2,0.1-0.2,0.3,0,0.4v0.2c-0.2,1.1-0.7,1.8-1.4,2.3
		c-0.7,0.5-1.5,0.9-2.3,1.2c-0.8,0.3-1.6,0.6-2.5,0.8s-1.7,0.4-2.5,0.7c-0.2,0.1-0.5,0.2-0.7,0.3c-0.2,0.1-0.4,0.1-0.7,0.1
		c-0.6,0-1.2,0-1.9,0.1c-0.6,0.1-1.3,0-1.9-0.1c-0.7-0.2-1.5-0.3-2.3-0.2c-0.8,0-1.6-0.2-2.3-0.6c0,0-0.1-0.1-0.1,0c0,0-0.1,0-0.1,0
		c-1.2-0.4-2.4-0.8-3.5-1.4c-1.1-0.5-2.1-1.2-3.1-2c-1-0.9-1.9-1.8-2.7-2.7c-0.9-0.9-1.7-1.9-2.4-3c-0.2-0.4-0.4-0.8-0.6-1.2
		c-0.2-0.4-0.4-0.7-0.7-1.1c-0.4-0.4-0.7-0.8-0.7-1.2c-0.1-0.3-0.2-0.6-0.3-0.9c-0.1-0.3-0.3-0.6-0.4-0.9c-0.2-0.4-0.4-0.8-0.5-1.2
		c-0.2-0.4-0.3-0.8-0.5-1.2c-0.3-0.6-0.5-1.2-0.7-1.8c-0.2-0.6-0.4-1.2-0.6-1.8c-0.5-1.2-1-2.5-1.5-3.7s-1-2.5-1.4-3.7
		c-0.1-0.4-0.3-0.7-0.5-1c-0.2-0.3-0.3-0.6-0.4-1c-0.1-1-0.4-1.9-0.9-2.7s-0.9-1.7-1.3-2.6c-0.3-0.6-0.8-0.9-1.5-0.8
		c-0.6,0.1-0.9,0.6-0.9,1.4c0,0.6,0,1.1,0,1.7c0,0.6,0,1.1,0.1,1.7c0.1,0.5,0.1,1,0,1.5c-0.1,0.5-0.1,1,0.1,1.5c0,0,0,0.1,0,0.1
		c0,0,0,0.1,0,0.1c-0.2,0.6-0.3,1.2-0.1,1.9c0.2,0.6,0.2,1.2,0.1,1.8c-0.1,0.6-0.1,1.2,0,1.8c0.1,0.7,0.1,1.4,0,2.1
		c-0.1,0.7-0.1,1.4-0.2,2.1c0,0.3-0.1,0.7-0.4,1.1c-0.3,0.4-0.6,0.7-0.9,0.9c-0.3,0.2-0.7,0.4-1.3,0.5c-1.1,0.2-2-0.1-2.9-0.8
		c-0.4-0.4-0.6-0.8-0.8-1.3c-0.1-0.5-0.2-0.9-0.2-1.5c0-0.2,0-0.5,0-0.6c0-0.2-0.1-0.4-0.3-0.6V130c0.3-0.3,0.4-0.7,0.3-1
		c-0.1-0.3-0.2-0.6-0.3-1v-0.8c0.1-0.3,0.2-0.7,0.3-1c0-0.3,0-0.7,0-1c0-0.2,0-0.5,0-0.8c0-0.3-0.1-0.6-0.3-0.8v-0.6
		c0.5-0.7,0.5-1.4,0-2.2v-0.6c0.3-0.4,0.3-0.9,0-1.4v-0.2c0.3-0.5,0.3-0.9,0-1.3v-0.9c0.2-0.3,0.2-0.7,0-1.1v-1.5
		c0.3-0.4,0.3-0.9,0-1.3v-0.9c0.1-0.2,0.1-0.4,0-0.6V109c0.1-0.4,0.2-0.7,0.3-1.1c0.1-0.3,0-0.7-0.3-1.1V106c0.3-0.7,0.3-1.2,0-1.7
		v-1.1c0.1-0.3,0.2-0.6,0.3-0.9c0-0.3,0-0.6-0.3-0.8v-0.9c0.2-0.5,0.3-0.9,0.3-1.4c0-0.5-0.1-0.9-0.3-1.4v-1.9
		c0.2-0.2,0.2-0.5,0-0.9v-0.9c0.3-0.5,0.4-1,0.3-1.4c-0.1-0.5-0.2-1-0.3-1.5v-1.9c0.2-0.3,0.3-0.6,0.3-0.9c0-0.3-0.1-0.7-0.1-1
		c0.1-0.8,0.3-1.5,0.6-2.2c0.3-0.7,0.9-1.1,1.9-1.2c0.2,0,0.4-0.1,0.6-0.2h2.7c1.3,0.4,2.6,0.4,3.9,0H116.8z M107.2,100.2
		c0-0.2-0.1-0.3-0.3-0.3c-0.1,0-0.2,0.1-0.2,0.4c0,0.1,0.1,0.1,0.2,0.1C107.1,100.5,107.2,100.4,107.2,100.2z M107.3,115.8
		c-0.2,0-0.3,0.1-0.2,0.3c0.1,0.3,0.3,0.5,0.6,0.4c0.1,0,0.2-0.1,0.2-0.3c0-0.2-0.1-0.3-0.2-0.3C107.5,116,107.4,115.9,107.3,115.8z
		 M108.1,113.6c-0.1-0.2-0.2-0.3-0.4-0.3c-0.2,0-0.4,0.2-0.4,0.5c0,0.2,0.1,0.3,0.3,0.2C107.9,114,108.1,113.9,108.1,113.6z
		 M108.5,96.1c-0.1-0.1-0.2-0.2-0.2-0.2c-0.2,0.1-0.3,0.2-0.2,0.3c0,0.1,0.1,0.1,0.2,0.1C108.4,96.3,108.5,96.3,108.5,96.1z
		 M108.9,115.1c-0.2,0-0.3,0.1-0.3,0.3c0,0.2,0.1,0.4,0.4,0.4c0.2,0,0.3-0.1,0.3-0.2C109.1,115.2,109,115.1,108.9,115.1z
		 M109.4,110.5c0-0.1-0.1-0.3-0.2-0.4c-0.2,0-0.3,0.1-0.4,0.3c0,0.2,0.1,0.3,0.2,0.3C109.2,110.7,109.4,110.7,109.4,110.5z
		 M109.7,117c-0.1-0.2-0.2-0.4-0.4-0.4c-0.2,0-0.3,0.1-0.3,0.4c0,0.1,0.1,0.2,0.3,0.2C109.5,117.3,109.6,117.2,109.7,117z
		 M109.9,118.1L109.9,118.1L109.9,118.1L109.9,118.1z M110.7,99.4c0-0.2,0-0.4-0.1-0.4c-0.1,0-0.3,0.1-0.4,0.4
		c-0.1,0.2,0,0.3,0.2,0.3C110.6,99.7,110.7,99.6,110.7,99.4z M110.9,95.6c0-0.2-0.1-0.3-0.2-0.3c-0.1,0.1-0.1,0.2-0.1,0.3
		c0,0.2,0.1,0.2,0.2,0.1C110.8,95.8,110.8,95.7,110.9,95.6C110.8,95.6,110.8,95.6,110.9,95.6z M110.8,92.8c-0.1,0-0.2,0.2-0.2,0.4
		c0,0.2,0.1,0.3,0.2,0.3c0.2,0,0.3-0.1,0.2-0.4C111,92.9,111,92.8,110.8,92.8z M110.7,113.9L110.7,113.9h-0.1H110.7L110.7,113.9z
		 M111.2,120.7c0-0.1-0.1-0.3-0.2-0.4c-0.1,0-0.3,0.1-0.4,0.3c0,0.2,0.1,0.3,0.3,0.3C111,121,111.1,120.9,111.2,120.7z M111.6,110.8
		c0,0-0.1-0.1-0.1-0.1v-0.1c-0.2,0-0.4,0.1-0.4,0.4c0,0.1,0,0.2,0.1,0.2C111.5,111.2,111.6,111.1,111.6,110.8z M111.5,126.1
		l-0.1-0.1c-0.1,0-0.1,0-0.1,0.1C111.2,126.2,111.3,126.2,111.5,126.1L111.5,126.1z M112.7,102c0,0.7,0,1.1,0,1.3s0.3,0.6,0.6,1.2
		c0.4,0.5,0.7,0.9,1.1,1c0.3,0.2,0.8,0.2,1.5,0.1c0.1,0,0.3,0,0.4,0c0.1,0,0.3,0,0.5,0c0.8,0.2,1.7,0,2.6-0.6
		c0.9-0.6,1.5-1.3,1.8-2.1c0.4-1.4,0.5-2.9,0.4-4.2c-0.1-0.8-0.1-1.6-0.1-2.3s0-1.5,0.1-2.3c0-0.3-0.1-0.6-0.2-0.9
		c-0.8-1.3-1.9-2.1-3.2-2.5c-0.4-0.1-0.9-0.2-1.3-0.1c-0.4,0-0.9,0-1.4,0c-0.8-0.1-1.5,0.2-2.1,0.8c-0.6,0.6-0.9,1.3-0.9,2.1
		c0,1.1,0.1,2.1,0.1,3.1c0,1,0,2.1-0.1,3.1c0,0.2,0,0.4,0.1,0.5c0.2,0.3,0.3,0.7,0.3,1C112.7,101.3,112.7,101.6,112.7,102z
		 M112.9,109.7c0.1-0.1,0.1-0.1-0.1-0.1c-0.1,0-0.1,0-0.1,0.1c0,0.1,0,0.1,0.1,0.1C112.8,109.7,112.8,109.7,112.9,109.7
		C112.8,109.7,112.8,109.7,112.9,109.7z M112.8,107.2l0.1,0.1c0.1,0.1,0.2,0,0.2-0.1c0-0.1,0-0.1-0.1-0.1
		C112.9,107,112.8,107.1,112.8,107.2z M114.4,108.9c-0.1,0.1-0.2,0.2-0.1,0.3l0.1,0.1c0,0,0.1-0.1,0.1-0.1
		C114.6,108.9,114.5,108.9,114.4,108.9z M114.5,107.5C114.4,107.5,114.4,107.5,114.5,107.5c-0.1,0.1-0.1,0.1-0.1,0.1l0.1,0.1
		C114.5,107.6,114.6,107.6,114.5,107.5L114.5,107.5z M115.5,112.8L115.5,112.8v0.1C115.5,112.9,115.5,112.9,115.5,112.8
		C115.5,112.9,115.6,112.9,115.5,112.8L115.5,112.8z M116.4,110.8c-0.1-0.2-0.2-0.3-0.3-0.3c-0.2,0-0.3,0.1-0.4,0.2
		c0,0.1-0.1,0.3-0.2,0.4c0,0.2,0.1,0.3,0.2,0.3C116,111.4,116.3,111.2,116.4,110.8z M115.8,114.3c-0.2,0-0.3,0.1-0.3,0.3
		c0,0.2,0.1,0.4,0.3,0.4c0.3,0.1,0.4,0,0.4-0.2C116.3,114.4,116.1,114.3,115.8,114.3z M117.6,86.7c0-0.1,0-0.2-0.1-0.3
		c-0.1,0-0.2,0-0.2,0.1c0,0,0,0.1,0.1,0.2C117.5,86.7,117.5,86.7,117.6,86.7z M118.1,87.6c-0.1-0.2-0.2-0.3-0.3-0.2
		c-0.2,0-0.2,0.1-0.1,0.2c0,0.1,0.1,0.1,0.2,0.1C118,87.8,118.1,87.7,118.1,87.6z M118.2,106.6C118.2,106.6,118.2,106.6,118.2,106.6
		c0-0.1,0-0.1-0.1-0.1v0.1C118.1,106.7,118.1,106.7,118.2,106.6z M118.2,118.9c0.1,0,0.2-0.1,0.3-0.2c0-0.1-0.1-0.2-0.2-0.2
		c-0.1,0.1-0.2,0.2-0.2,0.3C118,118.9,118.1,118.9,118.2,118.9z M118.7,120.2c0-0.1-0.1-0.2-0.2-0.2c-0.1,0-0.2,0.1-0.2,0.2
		c0,0.1,0,0.1,0.1,0.1C118.5,120.3,118.6,120.3,118.7,120.2z M120.5,109.5c-0.2,0-0.4,0.1-0.4,0.3c-0.1,0.2,0,0.3,0.1,0.3
		c0.3,0.1,0.4,0,0.4-0.3C120.7,109.6,120.7,109.5,120.5,109.5z M121.7,109.4c0-0.2-0.1-0.3-0.3-0.3c-0.1,0-0.2,0.1-0.2,0.3
		c0,0.1,0.1,0.1,0.2,0.1C121.5,109.6,121.6,109.5,121.7,109.4z M122.5,96.4L122.5,96.4C122.5,96.5,122.5,96.5,122.5,96.4
		C122.6,96.5,122.6,96.5,122.5,96.4L122.5,96.4z M123.4,128.9c0-0.1-0.1-0.2-0.3-0.2c-0.2,0-0.4,0.1-0.4,0.3c0,0.1,0.1,0.2,0.2,0.2
		C123.2,129.2,123.4,129.1,123.4,128.9z M123,87.2C123,87.2,123,87.2,123,87.2C123,87.1,123,87.1,123,87.2L123,87.2L123,87.2z
		 M124.8,107.4c-0.1-0.1-0.2-0.2-0.4-0.2c-0.2,0-0.4-0.1-0.5-0.2c0,0-0.1,0-0.1,0c0,0,0,0.1,0,0.1c0,0.2,0.2,0.4,0.3,0.4
		s0.3,0,0.5,0.1C124.7,107.7,124.7,107.6,124.8,107.4z M124.8,95.3c0.1,0,0.2-0.1,0.2-0.2c0.1-0.2,0-0.4-0.3-0.4
		c-0.2-0.1-0.3,0-0.3,0.1C124.4,95.1,124.5,95.2,124.8,95.3z M125.6,137.6L125.6,137.6l-0.2-0.1v0.1
		C125.4,137.6,125.5,137.6,125.6,137.6z M126.4,94.8l-0.1-0.1c-0.1,0-0.2,0-0.1,0.1c0,0,0.1,0.1,0.1,0.1
		C126.3,94.8,126.3,94.8,126.4,94.8z M126.9,97.1c0.1,0,0.1-0.1,0.1-0.2c0-0.1,0-0.2-0.1-0.2c-0.1,0-0.2,0.1-0.2,0.2
		C126.6,97,126.7,97.1,126.9,97.1z M127.6,132.7c0.1,0,0.1-0.1,0.1-0.2c0,0,0-0.1-0.1-0.1c-0.2,0-0.2,0.1-0.1,0.2
		C127.5,132.6,127.5,132.6,127.6,132.7z M128.1,135.9L128.1,135.9L128.1,135.9L128.1,135.9z M129.1,143.9c-0.1-0.2-0.2-0.3-0.3-0.3
		c-0.1,0.1-0.2,0.2-0.1,0.2c0,0.2,0.1,0.4,0.3,0.4C129,144.2,129.1,144.1,129.1,143.9z M131.3,139.5c-0.1,0-0.1,0-0.1,0.1
		c0,0.1,0,0.2,0.1,0.1c0,0,0.1,0,0.1-0.1v-0.1C131.4,139.6,131.4,139.6,131.3,139.5C131.3,139.6,131.3,139.6,131.3,139.5z
		 M131.3,141.6L131.3,141.6L131.3,141.6L131.3,141.6z M135.3,147.7l-0.1,0.1l0.1,0.1L135.3,147.7
		C135.3,147.7,135.3,147.7,135.3,147.7z M139.5,147c-0.1,0-0.2,0-0.2,0.1c0,0.2,0.1,0.3,0.2,0.3c0.1,0,0.2,0,0.2-0.1
		C139.8,147,139.7,147,139.5,147z M142.6,148.3L142.6,148.3L142.6,148.3L142.6,148.3z M145.6,146.2c0-0.2-0.1-0.3-0.2-0.2l-0.2,0.2
		c0,0.2,0.1,0.3,0.2,0.3C145.5,146.5,145.6,146.4,145.6,146.2z M148.8,148.8c0-0.3-0.1-0.4-0.4-0.3c-0.1,0-0.2,0.1-0.2,0.2
		c0.1,0.2,0.2,0.4,0.4,0.4C148.7,149.1,148.8,149,148.8,148.8z M149,147.8L149,147.8C149,147.7,149,147.7,149,147.8L149,147.8z
		 M150.9,144.9c0-0.1-0.2-0.2-0.4-0.2c-0.1,0-0.2,0-0.2,0.1c0.1,0.2,0.2,0.3,0.4,0.3c0,0,0.1-0.1,0.1-0.1
		C150.8,144.9,150.9,144.9,150.9,144.9z M152.6,146.2C152.5,146.2,152.5,146.2,152.6,146.2v0.1V146.2L152.6,146.2z M153.5,145.2
		C153.5,145.2,153.5,145.2,153.5,145.2L153.5,145.2C153.5,145.3,153.5,145.3,153.5,145.2z"/>
</g>
<g>
	<path class="st0" d="M184.8,84.8c-0.4,0-0.8,0-1.1,0.1c-0.1,0-0.2,0.1-0.2,0.3c0,0.1,0,0.3,0.1,0.3c1.2,0.8,1.9,2.1,1.9,3.5
		c0,1.9-1.3,3.5-3.1,4c-0.1,0-0.2,0.1-0.2,0.3c0,0.1,0,0.3,0.1,0.3c0.8,0.5,1.6,0.7,2.5,0.7c2.6,0,4.8-2.1,4.8-4.8
		C189.5,86.9,187.4,84.8,184.8,84.8z"/>
	<g>
		<path class="st0" d="M151.1,96.6l-1-0.1l-0.6-0.8c0-0.1-0.1-0.1-0.2-0.1c-0.1,0-0.1,0.1-0.2,0.1l-0.4,0.9l-0.9,0.4
			c-0.1,0-0.1,0.1-0.1,0.2c0,0.1,0,0.1,0.1,0.2l0.7,0.7l0.1,1c0,0.1,0,0.1,0.1,0.2c0,0,0.1,0,0.1,0c0,0,0.1,0,0.1,0l0.9-0.5l1,0.3
			c0.1,0,0.1,0,0.2-0.1c0.1-0.1,0.1-0.1,0.1-0.2l-0.2-1l0.5-0.8c0-0.1,0-0.1,0-0.2C151.2,96.6,151.1,96.6,151.1,96.6z"/>
		<g>
			<path class="st0" d="M156.8,90.5c0-0.1-0.1-0.1-0.2-0.1l-1-0.1l-0.6-0.8c0-0.1-0.1-0.1-0.2-0.1c-0.1,0-0.1,0.1-0.2,0.1l-0.4,0.9
				l-0.9,0.4c-0.1,0-0.1,0.1-0.1,0.2c0,0.1,0,0.1,0.1,0.2l0.7,0.7l0.1,1c0,0.1,0,0.1,0.1,0.2c0,0,0.1,0,0.1,0c0,0,0.1,0,0.1,0
				l0.9-0.5l1,0.3c0.1,0,0.1,0,0.2-0.1s0.1-0.1,0.1-0.2l-0.2-1l0.5-0.8C156.8,90.6,156.8,90.5,156.8,90.5z"/>
			<path class="st0" d="M145.5,90.4l-1-0.1l-0.6-0.8c0-0.1-0.1-0.1-0.2-0.1c-0.1,0-0.1,0.1-0.2,0.1l-0.4,0.9l-0.9,0.4
				c-0.1,0-0.1,0.1-0.1,0.2c0,0.1,0,0.1,0.1,0.2l0.7,0.7l0.1,1c0,0.1,0,0.1,0.1,0.2c0,0,0.1,0,0.1,0c0,0,0.1,0,0.1,0l0.9-0.5l1,0.3
				c0.1,0,0.1,0,0.2-0.1c0.1-0.1,0.1-0.1,0.1-0.2l-0.2-1l0.5-0.8c0-0.1,0-0.1,0-0.2C145.6,90.4,145.6,90.4,145.5,90.4z"/>
		</g>
	</g>
	<path class="st0" d="M197.9,124.6h-5.1l-23.6-33.2l3.5-5.4c0.3-0.4,0.1-0.9-0.2-1.2c-0.4-0.3-0.9-0.1-1.2,0.2l-3.2,4.9l-3.2-4.9
		c-0.3-0.4-0.8-0.5-1.2-0.2c-0.4,0.3-0.5,0.8-0.2,1.2l3.5,5.4l-23.6,33.2h-5.1c-0.7,0-1.3,0.6-1.3,1.3s0.6,1.3,1.3,1.3h59.8
		c0.7,0,1.3-0.6,1.3-1.3C199.2,125.2,198.6,124.6,197.9,124.6z M168,108l6.6,16.6h-13.1L168,108z"/>
</g>
</svg>
