<svg width="86" height="37" xmlns="http://www.w3.org/2000/svg"><defs><linearGradient x1="100%" y1="50%" x2="0%" y2="50%" id="a"><stop stop-color="#FE9A8B" offset="0%"/><stop stop-color="#FD868C" offset="40.85%"/><stop stop-color="#F9748F" offset="73.151%"/><stop stop-color="#F78CA0" offset="100%"/></linearGradient><linearGradient x1="50%" y1="100%" x2="50%" y2="0%" id="b"><stop stop-color="#9B23EA" offset="0%"/><stop stop-color="#5F72BD" offset="100%"/></linearGradient></defs><g transform="translate(-1)" fill="none" fill-rule="evenodd"><path d="M23.561 22.59h-4.247c-.424 0-.78-.11-1.07-.333-.289-.222-.557-.55-.805-.984l-4.294-7.316a2.727 2.727 0 0 0-.395-.543c-.14-.144-.29-.26-.45-.348a1.636 1.636 0 0 0-.542-.179 4.457 4.457 0 0 0-.674-.046H8.65v9.75H4V.1h4.65v9.284h2.03a2.4 2.4 0 0 0 1.055-.216c.3-.145.578-.414.837-.806l4.541-7.037a2.97 2.97 0 0 1 .79-.884C18.213.214 18.585.1 19.02.1h3.983l-5.828 8.944a3.788 3.788 0 0 1-.915 1 4.505 4.505 0 0 1-1.162.627c.661.176 1.22.462 1.674.86.455.398.883.953 1.287 1.666l5.502 9.393zM45.597.1v22.49h-4.681V9.183c0-.558.016-1.144.047-1.76a23 23 0 0 1 .186-1.944 18.788 18.788 0 0 1-1.473 3.084L31.88 21.164a3.381 3.381 0 0 1-.372.512 3.954 3.954 0 0 1-.473.457c-.17.14-.357.25-.558.334a1.678 1.678 0 0 1-.643.123H26.33V.1h4.68v13.408c0 .558-.015 1.144-.046 1.759a23 23 0 0 1-.186 1.945 18.788 18.788 0 0 1 1.473-3.085L40.048 1.51c.103-.165.227-.333.372-.503.145-.17.302-.323.473-.457a2.32 2.32 0 0 1 .558-.326A1.67 1.67 0 0 1 42.094.1h3.503zm8.822 3.643v5.781h7.502v3.519H54.42v5.905h9.641v3.642H49.738V.1H64.06v3.643h-9.64zm23.176 15.283c.744 0 1.356-.09 1.836-.272.48-.18.866-.42 1.155-.72.29-.3.49-.644.605-1.031.113-.388.17-.788.17-1.201 0-.455-.067-.863-.201-1.225a2.186 2.186 0 0 0-.651-.922c-.3-.253-.69-.447-1.17-.582-.481-.134-1.073-.201-1.775-.201H73.61v6.154h3.984zM73.61 3.634V9.71h3.054c.65 0 1.23-.054 1.736-.163.506-.108.93-.281 1.27-.519.342-.238.602-.55.783-.938.181-.387.272-.855.272-1.402 0-.559-.075-1.034-.225-1.426a2.109 2.109 0 0 0-.69-.946c-.31-.238-.703-.41-1.178-.52-.475-.108-1.038-.162-1.69-.162H73.61zM75.944.1c1.508 0 2.797.142 3.867.426 1.07.284 1.942.687 2.62 1.21a4.615 4.615 0 0 1 1.48 1.898c.31.744.465 1.576.465 2.496a4.92 4.92 0 0 1-.225 1.487c-.15.476-.383.923-.698 1.341-.315.419-.72.798-1.216 1.14a7.41 7.41 0 0 1-1.767.867c1.529.362 2.66.951 3.394 1.768.734.816 1.1 1.875 1.1 3.177 0 .95-.183 1.834-.55 2.65a5.995 5.995 0 0 1-1.604 2.124c-.703.6-1.568 1.067-2.596 1.403-1.028.336-2.209.503-3.542.503h-8.71V.1h7.982z" fill="url(#a)"/><rect fill="url(#b)" x="1" y="25" width="86" height="12" rx="1"/><text font-family="LucidaGrande-Bold, Lucida Grande" font-size="8" font-weight="bold" letter-spacing="2.77" fill="#FFF"><tspan x="4" y="34">ТИПОГРАФИ</tspan> <tspan x="81.145" y="34">Я</tspan></text></g></svg>