<svg xmlns="http://www.w3.org/2000/svg" viewBox="0 0 222.833 92.663"><path fill="#D8315B" d="M24.336 22.823c.191-.288.648-.263 1.368.072.72.336 1.476.792 2.268 1.368s1.487 1.188 2.088 1.836c.6.648.875 1.141.828 1.476a150.65 150.65 0 0 0-1.836 6.372 815.184 815.184 0 0 0-1.62 6.228l1.872-.216a18.566 18.566 0 0 0 5.76-2.304 21.463 21.463 0 0 0 4.824-3.96 19.627 19.627 0 0 0 3.348-5.076 15.564 15.564 0 0 0 1.404-5.724c.047-1.584-.216-2.819-.792-3.708-.576-.887-1.321-1.523-2.232-1.908a8.035 8.035 0 0 0-2.952-.612 23.59 23.59 0 0 0-2.952.108c-3.024.336-6.109 1.08-9.252 2.232-3.145 1.152-6.012 2.628-8.604 4.428-2.592 1.8-4.752 3.888-6.48 6.264s-2.712 4.957-2.952 7.74c.096.672-.012 1.092-.324 1.26-.313.169-.876.133-1.692-.108-1.44-.384-2.545-1.176-3.312-2.376-.769-1.199-1.224-2.544-1.368-4.032-.144-1.487 0-2.976.432-4.464.432-1.487 1.127-2.736 2.088-3.744 1.775-2.592 4.176-4.788 7.2-6.588a38.431 38.431 0 0 1 9.792-4.104 47.31 47.31 0 0 1 10.656-1.584c3.6-.119 6.876.205 9.828.972 2.952.768 5.411 1.956 7.38 3.564 1.968 1.608 3.048 3.661 3.24 6.156.144 1.584-.084 3.252-.684 5.004-.601 1.753-1.476 3.492-2.628 5.22-1.152 1.728-2.533 3.373-4.14 4.932a31.8 31.8 0 0 1-5.292 4.14 27.466 27.466 0 0 1-6.084 2.844c-2.137.696-4.284 1.021-6.444.972h-.936c-1.105 4.944-1.92 9.396-2.448 13.356-.529 3.96-.673 6.995-.432 9.108-.144.335-.624.432-1.44.288a13.433 13.433 0 0 1-2.592-.756 14.153 14.153 0 0 1-2.484-1.26c-.745-.48-1.116-.913-1.116-1.296-.192-3.312-.036-6.756.468-10.332a116.9 116.9 0 0 1 1.98-10.548c-1.249-.527-2.304-1.343-3.168-2.448-.864-1.104-1.416-2.592-1.656-4.464a7.112 7.112 0 0 1 .036-1.584c.072-.576.18-1.02.324-1.332.144-.312.312-.42.504-.324.191.097.407.576.648 1.44.24 1.057.708 1.957 1.404 2.7.695.745 1.692 1.308 2.988 1.692.96-3.647 1.932-6.948 2.916-9.9a319.879 319.879 0 0 0 2.268-7.02zm29.735 16.632c-.144.769-.313 1.404-.504 1.908a34.232 34.232 0 0 0-.72 2.196c.72.192 1.404.288 2.052.288s1.379.121 2.196.36c.864.336 1.464.84 1.8 1.512a4.94 4.94 0 0 1 .504 2.232c0 .576-.048 1.116-.144 1.62-.097.504-.216.972-.36 1.404-.769 2.16-1.285 3.672-1.548 4.536-.265.864-.445 1.417-.54 1.656-.288 1.152-.421 1.933-.396 2.34.023.408.155.564.396.468.239-.096.551-.36.936-.792.383-.432.767-.936 1.152-1.512.384-.576.744-1.14 1.08-1.692.335-.551.6-.972.792-1.26.479-.911.959-1.836 1.44-2.772.479-.936.911-1.824 1.296-2.664.384-.839.731-1.62 1.044-2.34.312-.72.563-1.296.756-1.728.288-.335.6-.54.936-.612.335-.072.648-.036.936.108.288.144.516.396.684.756.167.36.204.756.108 1.188-.192.48-.444 1.08-.756 1.8-.313.72-.648 1.501-1.008 2.34-.36.84-.756 1.717-1.188 2.628-.432.912-.864 1.8-1.296 2.664a81.907 81.907 0 0 1-1.8 3.096 26.946 26.946 0 0 1-2.124 3.024c-.745.912-1.537 1.595-2.376 2.052-.84.456-1.717.492-2.628.108-1.728-.817-2.905-1.884-3.528-3.204-.625-1.319-.936-2.675-.936-4.068 0-1.631.275-3.228.828-4.788a43.934 43.934 0 0 0 1.404-4.86 12.458 12.458 0 0 1-2.52-.396 6.376 6.376 0 0 1-2.196-1.044 5.568 5.568 0 0 1-1.584-1.836c-.408-.744-.612-1.644-.612-2.7 0-.576.083-1.211.252-1.908a9.568 9.568 0 0 1 .756-2.052 6.873 6.873 0 0 1 1.296-1.8 4.654 4.654 0 0 1 1.944-1.152c.623-.191 1.224-.18 1.8.036a3.305 3.305 0 0 1 1.44 1.044c.384.48.672 1.057.864 1.728.191.673.216 1.368.072 2.088z"/><path fill="#D8315B" d="M72.214 39.095c1.343-.623 2.711-.936 4.104-.936.959 0 1.919.144 2.88.432.96.288 1.8.72 2.52 1.296a5.943 5.943 0 0 1 1.692 2.196c.407.889.54 1.933.396 3.132-.48 2.64-1.44 4.705-2.88 6.192-1.44 1.488-3.145 2.664-5.112 3.528a29.14 29.14 0 0 1-4.176 1.512 37.442 37.442 0 0 1-3.816.864c.096.961.456 1.789 1.08 2.484.623.696 1.392 1.044 2.304 1.044 1.584 0 3.155-.443 4.716-1.332 1.559-.888 3.024-2.04 4.392-3.456 1.368-1.416 2.628-3.035 3.78-4.86a35.91 35.91 0 0 0 2.88-5.544c.191-.479.468-.804.828-.972.36-.167.695-.204 1.008-.108.312.097.576.313.792.648.216.336.275.745.18 1.224-.288 1.92-1.008 3.936-2.16 6.048a25.474 25.474 0 0 1-4.392 5.832 24.776 24.776 0 0 1-6.12 4.464 17.238 17.238 0 0 1-7.416 1.944c-3.121.096-5.497-.732-7.128-2.484-1.632-1.751-2.256-4.187-1.872-7.308a18.268 18.268 0 0 1 1.332-5.148 20.14 20.14 0 0 1 2.628-4.536 21.997 21.997 0 0 1 3.528-3.636c1.296-1.055 2.639-1.895 4.032-2.52zm2.232 12.672a15.037 15.037 0 0 0 2.016-1.224 9.498 9.498 0 0 0 1.764-1.62c.504-.6.9-1.248 1.188-1.944a5.506 5.506 0 0 0 .432-2.124c-.048-1.152-.493-1.847-1.332-2.088-.84-.239-1.812.048-2.916.864-2.016 1.393-3.54 2.88-4.572 4.464-1.033 1.584-1.861 3.433-2.484 5.544a24.853 24.853 0 0 0 3.06-.792 29.08 29.08 0 0 0 2.844-1.08z"/><path fill="#D8315B" d="M90.501 56.375c-.48 1.296-.708 2.221-.684 2.772.024.552.191.84.504.864.312.025.743-.155 1.296-.54a14.214 14.214 0 0 0 1.692-1.404 15.61 15.61 0 0 0 1.584-1.764c.479-.623.839-1.152 1.08-1.584a85.552 85.552 0 0 0 2.88-5.4 161.715 161.715 0 0 0 1.944-4.104c.288-.335.6-.54.936-.612.335-.072.648-.036.936.108.288.144.515.385.684.72.167.336.204.72.108 1.152a324.749 324.749 0 0 1-2.304 4.932 124.986 124.986 0 0 1-2.376 4.716 60.673 60.673 0 0 1-1.44 2.304 22.93 22.93 0 0 1-2.16 2.808 15.657 15.657 0 0 1-2.664 2.376c-.961.671-1.944 1.008-2.952 1.008-1.632 0-2.856-.444-3.672-1.332-.817-.889-1.344-1.98-1.584-3.276-.241-1.296-.277-2.664-.108-4.104.167-1.44.396-2.711.684-3.816.191-.72.432-1.595.72-2.628.288-1.032.624-2.279 1.008-3.744.383-1.463.815-3.204 1.296-5.22.479-2.016 1.032-4.368 1.656-7.056-.72-.047-1.272-.263-1.656-.648a2.76 2.76 0 0 1-.756-1.404 5.365 5.365 0 0 1-.072-1.764 5.717 5.717 0 0 1 .468-1.728c.576.097 1.127.156 1.656.18.528.025 1.127.036 1.8.036l1.872-6.912a7.254 7.254 0 0 1 1.908-.18 6.603 6.603 0 0 1 1.98.396c.815.336 1.404.853 1.764 1.548.36.696.515 1.476.468 2.34a9.224 9.224 0 0 1-.216 1.368l-.288 1.152c.864-.047 1.5.013 1.908.18.407.169.672.408.792.72.12.313.144.684.072 1.116a7.87 7.87 0 0 0-.108 1.296c0 .385-.097.817-.288 1.296-.192.48-.409.984-.648 1.512-.72-.335-1.309-.515-1.764-.54a14.47 14.47 0 0 0-1.692.036 1192.304 1192.304 0 0 0-4.752 17.424 264.766 264.766 0 0 1-.972 3.6 41.447 41.447 0 0 1-.54 1.8z"/><path fill="#D8315B" d="M104.252 56.375c-.48 1.296-.708 2.221-.684 2.772.024.552.191.84.504.864.312.025.743-.155 1.296-.54a14.214 14.214 0 0 0 1.692-1.404 15.61 15.61 0 0 0 1.584-1.764c.479-.623.839-1.152 1.08-1.584a85.552 85.552 0 0 0 2.88-5.4 161.715 161.715 0 0 0 1.944-4.104c.288-.335.6-.54.936-.612.335-.072.648-.036.936.108.288.144.515.385.684.72.167.336.204.72.108 1.152a324.749 324.749 0 0 1-2.304 4.932 124.986 124.986 0 0 1-2.376 4.716 60.673 60.673 0 0 1-1.44 2.304 22.93 22.93 0 0 1-2.16 2.808 15.657 15.657 0 0 1-2.664 2.376c-.961.671-1.944 1.008-2.952 1.008-1.632 0-2.856-.444-3.672-1.332-.817-.889-1.344-1.98-1.584-3.276-.241-1.296-.277-2.664-.108-4.104.167-1.44.396-2.711.684-3.816.191-.72.432-1.595.72-2.628.288-1.032.624-2.279 1.008-3.744.383-1.463.815-3.204 1.296-5.22.479-2.016 1.032-4.368 1.656-7.056-.72-.047-1.272-.263-1.656-.648a2.76 2.76 0 0 1-.756-1.404 5.365 5.365 0 0 1-.072-1.764 5.717 5.717 0 0 1 .468-1.728c.576.097 1.127.156 1.656.18.528.025 1.127.036 1.8.036l1.872-6.912a7.254 7.254 0 0 1 1.908-.18 6.603 6.603 0 0 1 1.98.396c.815.336 1.404.853 1.764 1.548.36.696.515 1.476.468 2.34a9.224 9.224 0 0 1-.216 1.368l-.288 1.152c.864-.047 1.5.013 1.908.18.407.169.672.408.792.72.12.313.144.684.072 1.116a7.87 7.87 0 0 0-.108 1.296c0 .385-.097.817-.288 1.296-.192.48-.409.984-.648 1.512-.72-.335-1.309-.515-1.764-.54a14.47 14.47 0 0 0-1.692.036 1192.304 1192.304 0 0 0-4.752 17.424 264.766 264.766 0 0 1-.972 3.6 40.071 40.071 0 0 1-.54 1.8z"/><path fill="#D8315B" d="M114.908 39.599c-.049-.383.155-.659.612-.828.456-.167 1.019-.252 1.692-.252.288 0 .587.025.9.072.312.048.587.12.828.216.911.336 1.523.864 1.836 1.584.312.72.468 1.512.468 2.376 0 .241-.025.517-.072.828-.048.313-.205.948-.468 1.908-.265.96-.661 2.352-1.188 4.176a679.426 679.426 0 0 1-2.232 7.488c-.288 1.008-.432 1.8-.432 2.376 0 .384.144.48.432.288.288-.191.659-.54 1.116-1.044.456-.504.936-1.116 1.44-1.836.504-.72.972-1.463 1.404-2.232a85.951 85.951 0 0 0 2.484-4.932 83.52 83.52 0 0 0 1.98-4.572h-.072c.384-1.296.695-2.459.936-3.492.24-1.032.36-1.644.36-1.836-.097-.384.083-.671.54-.864.456-.191 1.019-.288 1.692-.288.288 0 .6.024.936.072.335.048.648.121.936.216.815.336 1.392.864 1.728 1.584.335.72.504 1.512.504 2.376 0 .912-.121 1.8-.36 2.664-.241.96-.457 1.836-.648 2.628-.192.792-.385 1.573-.576 2.34a60.81 60.81 0 0 1-.648 2.376c-.241.817-.529 1.753-.864 2.808a34.13 34.13 0 0 0 4.248-4.644c1.296-1.703 2.423-3.636 3.384-5.796.095-.24.312-.335.648-.288.335.048.671.156 1.008.324.335.169.623.385.864.648.239.264.288.516.144.756a29.979 29.979 0 0 1-5.076 8.424 41.614 41.614 0 0 1-7.164 6.624h.144a180.964 180.964 0 0 1-2.844 7.416c-.984 2.4-1.956 4.439-2.916 6.12a16.34 16.34 0 0 1-1.728 2.268 14.13 14.13 0 0 1-2.268 2.016 13.25 13.25 0 0 1-2.664 1.476 7.438 7.438 0 0 1-2.844.576 6.76 6.76 0 0 1-2.592-.504c-1.104-.432-1.908-1.188-2.412-2.268s-.756-2.221-.756-3.42c0-1.584.385-2.952 1.152-4.104.864-1.249 1.991-2.304 3.384-3.168 1.392-.864 3.12-1.825 5.184-2.88a34.475 34.475 0 0 1 1.944-1.044l1.944-.972h-.216c.144-.336.264-.72.36-1.152.096-.432.191-.912.288-1.44v.072-.216c-.432.576-.9 1.116-1.404 1.62s-1.021.924-1.548 1.26c-.529.335-1.08.54-1.656.612a3.35 3.35 0 0 1-1.728-.252c-1.728-.817-2.869-1.8-3.42-2.952-.552-1.152-.828-2.423-.828-3.816 0-1.055.131-2.135.396-3.24.263-1.104.587-2.232.972-3.384l.288-.864h-.072c.288-.96.576-1.991.864-3.096a427.4 427.4 0 0 1 .828-3.132c.263-.983.468-1.824.612-2.52.144-.695.216-1.116.216-1.26zm-2.736 36.504c.576 0 1.188-.168 1.836-.504.648-.336 1.235-.889 1.764-1.656h-.072c1.104-1.776 2.184-3.913 3.24-6.408a40.874 40.874 0 0 0-4.212 2.7c-1.272.936-2.245 1.883-2.916 2.844-.576.96-.864 1.703-.864 2.232 0 .528.407.792 1.224.792z"/><path fill="#FFFAFF" d="M162.788 50.615c.288-.432.839-.756 1.656-.972a8.838 8.838 0 0 1 2.52-.288c.864.025 1.631.18 2.304.468.671.288 1.008.696 1.008 1.224-.72 2.833-1.548 6-2.484 9.504s-2.077 6.972-3.42 10.404c-1.344 3.431-2.893 6.635-4.644 9.612-1.753 2.976-3.805 5.352-6.156 7.128-1.296.959-2.772 1.571-4.428 1.836-1.656.263-3.252.155-4.788-.324-1.537-.48-2.905-1.321-4.104-2.52-1.2-1.2-1.992-2.761-2.376-4.68-.144-.913-.156-1.717-.036-2.412.12-.696.299-1.224.54-1.584.24-.36.479-.54.72-.54.24 0 .36.216.36.648.144 2.256.648 3.984 1.512 5.184.864 1.199 1.859 2.003 2.988 2.412a5.86 5.86 0 0 0 3.456.18c1.176-.288 2.147-.816 2.916-1.584a25.1 25.1 0 0 0 3.672-4.896 41.75 41.75 0 0 0 2.772-5.796 67.165 67.165 0 0 0 2.088-6.3c.6-2.16 1.139-4.32 1.62-6.48a57.987 57.987 0 0 1-2.952 3.672 20.78 20.78 0 0 1-3.204 2.988 13.557 13.557 0 0 1-3.672 1.944c-1.321.456-2.725.659-4.212.612-3.265-.097-5.796-1.021-7.596-2.772-1.8-1.753-3.013-4.008-3.636-6.768-.624-2.76-.72-5.892-.288-9.396.432-3.503 1.271-7.043 2.52-10.62a63.122 63.122 0 0 1 4.788-10.476c1.944-3.408 4.104-6.408 6.48-9 2.376-2.592 4.907-4.632 7.596-6.12 2.688-1.487 5.4-2.135 8.136-1.944 2.688.241 4.835.925 6.444 2.052 1.607 1.128 2.747 2.532 3.42 4.212.671 1.681.923 3.528.756 5.544-.168 2.016-.648 4.021-1.44 6.012a25.574 25.574 0 0 1-3.168 5.688c-1.321 1.8-2.82 3.276-4.5 4.428-.48.432-.948.673-1.404.72-.457.048-.817-.023-1.08-.216-.265-.191-.385-.456-.36-.792.024-.335.299-.672.828-1.008.672-.479 1.428-1.319 2.268-2.52.839-1.199 1.62-2.567 2.34-4.104a27.408 27.408 0 0 0 1.728-4.824c.432-1.68.576-3.228.432-4.644-.144-1.416-.648-2.592-1.512-3.528-.864-.936-2.232-1.427-4.104-1.476-1.488-.047-3.072.552-4.752 1.8-1.681 1.249-3.348 2.916-5.004 5.004-1.656 2.088-3.265 4.477-4.824 7.164a67.107 67.107 0 0 0-4.104 8.352 61.226 61.226 0 0 0-2.808 8.568c-.696 2.833-1.033 5.413-1.008 7.74.024 2.329.456 4.308 1.296 5.94.839 1.631 2.219 2.664 4.14 3.096 1.487.335 2.855.144 4.104-.576 1.248-.72 2.436-1.753 3.564-3.096 1.127-1.343 2.22-2.88 3.276-4.608a115.642 115.642 0 0 1 3.312-5.112c.096-.384.18-.744.252-1.08.071-.335.155-.695.252-1.08zm13.175-11.016c-.097-.383.083-.659.54-.828.456-.167 1.019-.252 1.692-.252.672 0 1.271.097 1.8.288.864.336 1.463.84 1.8 1.512.335.673.504 1.416.504 2.232 0 .529-.048 1.044-.144 1.548-.097.504-.192.948-.288 1.332l-3.096 11.736c-.288 1.105-.408 1.849-.36 2.232.047.385.18.54.396.468.216-.072.504-.335.864-.792.36-.456.744-.959 1.152-1.512.407-.551.78-1.091 1.116-1.62.335-.528.6-.936.792-1.224h-.072a87.649 87.649 0 0 0 2.736-5.364c.815-1.751 1.415-3.107 1.8-4.068.288-.383.6-.612.936-.684.335-.072.648-.023.936.144.288.169.515.421.684.756.167.336.227.745.18 1.224l-.432.936a201.862 201.862 0 0 1-1.764 3.96 128.63 128.63 0 0 1-2.556 5.256c-.432.72-.948 1.596-1.548 2.628a17.497 17.497 0 0 1-2.016 2.808c-.745.839-1.524 1.487-2.34 1.944-.817.456-1.656.492-2.52.108-1.537-.769-2.676-1.8-3.42-3.096a8.24 8.24 0 0 1-1.116-4.176c0-.384.024-.744.072-1.08a10.3 10.3 0 0 1 .216-1.08l1.008-4.608c.288-1.055.576-2.184.864-3.384.288-1.199.551-2.304.792-3.312.24-1.008.432-1.883.576-2.628.144-.743.216-1.211.216-1.404zm1.08-6.408a7.194 7.194 0 0 1 .144-1.44c.24-1.392.828-2.567 1.764-3.528.936-.959 1.908-1.44 2.916-1.44s1.8.373 2.376 1.116c.576.745.864 1.668.864 2.772a7.216 7.216 0 0 1-.144 1.44c-.241 1.393-.817 2.556-1.728 3.492-.912.936-1.92 1.404-3.024 1.404-.961 0-1.728-.36-2.304-1.08-.576-.72-.864-1.631-.864-2.736z"/><path fill="#FFFAFF" d="M192.667 39.455c-.144.769-.313 1.404-.504 1.908a34.232 34.232 0 0 0-.72 2.196c.72.192 1.404.288 2.052.288s1.379.121 2.196.36c.864.336 1.464.84 1.8 1.512a4.94 4.94 0 0 1 .504 2.232c0 .576-.048 1.116-.144 1.62-.097.504-.216.972-.36 1.404-.769 2.16-1.285 3.672-1.548 4.536-.265.864-.445 1.417-.54 1.656-.288 1.152-.421 1.933-.396 2.34.023.408.155.564.396.468.239-.096.551-.36.936-.792.383-.432.767-.936 1.152-1.512.384-.576.744-1.14 1.08-1.692.335-.551.6-.972.792-1.26.479-.911.959-1.836 1.44-2.772.479-.936.911-1.824 1.296-2.664.384-.839.731-1.62 1.044-2.34.312-.72.563-1.296.756-1.728.288-.335.6-.54.936-.612.335-.072.648-.036.936.108.288.144.516.396.684.756.167.36.204.756.108 1.188-.192.48-.444 1.08-.756 1.8-.313.72-.648 1.501-1.008 2.34-.36.84-.756 1.717-1.188 2.628-.432.912-.864 1.8-1.296 2.664a81.907 81.907 0 0 1-1.8 3.096 26.946 26.946 0 0 1-2.124 3.024c-.745.912-1.537 1.595-2.376 2.052-.84.456-1.717.492-2.628.108-1.728-.817-2.905-1.884-3.528-3.204-.625-1.319-.936-2.675-.936-4.068 0-1.631.275-3.228.828-4.788a43.934 43.934 0 0 0 1.404-4.86 12.458 12.458 0 0 1-2.52-.396 6.376 6.376 0 0 1-2.196-1.044 5.568 5.568 0 0 1-1.584-1.836c-.408-.744-.612-1.644-.612-2.7 0-.576.083-1.211.252-1.908a9.568 9.568 0 0 1 .756-2.052 6.873 6.873 0 0 1 1.296-1.8 4.654 4.654 0 0 1 1.944-1.152c.623-.191 1.224-.18 1.8.036a3.305 3.305 0 0 1 1.44 1.044c.384.48.672 1.057.864 1.728.191.673.216 1.368.072 2.088z"/><path fill="#FFFAFF" d="M219.81 46.007c.384-1.055.911-1.584 1.584-1.584.479 0 .864.252 1.152.756s.36 1.092.216 1.764c-.673 2.736-1.609 5.268-2.808 7.596-1.2 2.329-2.353 4.309-3.456 5.94-.913 1.392-1.944 2.448-3.096 3.168-1.152.72-2.304 1.08-3.456 1.08-1.825 0-3.456-.816-4.896-2.448-1.44-1.631-2.304-4.104-2.592-7.416-.241-2.736-.169-5.699.216-8.892a56.776 56.776 0 0 1 2.016-9.576 50.314 50.314 0 0 1 3.78-9.18c1.559-2.927 3.395-5.52 5.508-7.776.623-.624 1.271-1.091 1.944-1.404.672-.312 1.296-.468 1.872-.468 1.104 0 1.991.36 2.664 1.08.672.72 1.032 1.825 1.08 3.312 0 2.064-.277 4.165-.828 6.3a29.031 29.031 0 0 1-2.34 6.12 24.689 24.689 0 0 1-3.636 5.256c-1.416 1.561-2.964 2.772-4.644 3.636a46.49 46.49 0 0 0-1.116 6.66 52.94 52.94 0 0 0-.18 7.092c.047.96.228 1.656.54 2.088.312.432.708.648 1.188.648 1.152 0 2.351-.767 3.6-2.304.191-.239.468-.576.828-1.008.36-.432.767-1.068 1.224-1.908.456-.839.996-1.944 1.62-3.312.623-1.368 1.295-3.107 2.016-5.22zm-1.8-21.888a85.217 85.217 0 0 0-3.744 6.84 58.16 58.16 0 0 0-3.024 7.488c.864-.767 1.68-1.692 2.448-2.772a23.856 23.856 0 0 0 2.052-3.492 36.165 36.165 0 0 0 1.584-3.852 37.794 37.794 0 0 0 1.116-3.852c.047-.239.047-.432 0-.576-.048-.144-.168-.072-.36.216h-.072z"/></svg>