<svg xmlns="http://www.w3.org/2000/svg" viewBox="0 0 371.3 88.1"><path d="M35.9 63.6c0 .9-.1 1.6-.4 2.3-1.7-.2-3.4-.3-5.3-.3-4.6 0-9.1.4-18.4 1.9-2.2-.8-4.5-3.2-6.4-6.3 1.9-4.3 5.9-12.1 11.3-27.9 3.5-10.3 4.7-14.8 7-25.3 3.8.8 6.5 2.7 9.1 6.6-1.4 2.4-5.3 11.5-9.6 23C19 48.8 14.8 58 14.8 60.8c3-.1 4.7-.4 9.1-1.5 3.9-.9 6.1-1.3 10.4-1.6 1 2 1.6 4 1.6 5.9zm10.4-10.3c0 .6-.1 1.2-.1 1.9 0 2.4.6 5.8 3.3 5.8 5.2 0 10.2-5.2 13.2-8.4.5.4.9.8 1.2 1.2-4.3 5.7-9.9 9.8-14.4 10.8-6.6-.7-10.5-5.3-10.5-11 0-11.8 10.8-25.7 20.3-25.7 2.2.3 4.2 1.7 6.2 4.1-.7 11.7-7 16.4-19.2 21.3zm.6-2.8c7.6-3.8 13.3-9.7 13.7-16.3-5.3.8-11.4 7.4-13.7 16.3zm25.7-16.4c-.4-.6-.9-3-.9-4.2 2.5.1 4.8.4 6.8.4 2.9-5.7 7.1-11.9 8.6-12.7 1.9 0 6.6 1.5 7.5 2.6-2.9 3.6-4.7 6.4-7.1 10.4 1.9 0 3.9-.1 5.9-.3.4.4.8 1.2.8 2-2.3.9-5.3 1.4-8.6 1.4C80.9 43 78 52.3 78 58.2c0 2.2.9 3.3 2.4 3.5 2.9-.4 5.5-1.5 7.6-3.1.2.4.4.8.5 1.1-1.1 1.7-6.3 5.1-7.8 5.3-4.8-.1-10.2-4.2-10.2-7.6 0-4.7 2.7-14.4 6.3-23.3h-4.2zm30.2-13c2.4-4 3.4-7.9 3.4-13 0-1.9-.1-4-.4-6.3 4.9.3 9.6 2.7 10.2 5.1-1.8 7.9-5.8 13.6-12 16.9-.6-.5-1.2-1.8-1.2-2.7zm24.7 20.2c-.6-.1-.9-.4-.9-1.1 0-.6 1.2-2.7 1.2-3.9 0-1.4-.7-2.4-1.7-2.4-3.8 0-5.9 5-5.9 14.2 0 .6 0 .7.1.9 2-.1 3.5-.1 5-.1.1.1.1.2.1.6 0 .4-.1.8-.3.9-4.5 1-4.8 1.2-4.8 2.2 0 .7.1 1.4.1 2.6 0 8-4.7 13.2-12.4 14-2.7-.2-6-3-6.8-5.6 0-7.3 6.5-13.5 14.8-14.1 0-4.9-2.2-9.1-2.2-13.1 0-5.1 4.5-10.7 9.5-11.7 2.2.6 7.7 6.2 8.3 8.4-.4 3.6-2.6 8.2-4.1 8.2zm-11.4 11.9c-3.7.5-9.9 6.8-9.9 10.1 0 1.1.5 1.9 1.4 2.6 4.6-1.9 8.5-7.7 8.5-12.7zm75.3-40.7c0-.7.3-2 .6-2.7 1.2.6 3.8.8 7.1.8 9.9 0 26.4-2 28.9-2 3.5 0 4.8 2.9 5.6 7.3-2.4-.2-5.1-.4-6.8-.4-3 0-6.2.2-9.4.6-2.7 5.5-6.6 16-8.8 22.5-4.2 12.7-6.3 21-7.6 29.2-3.3-.5-5.9-2.5-8.1-6 1.6-6 4.2-13.6 9.4-28.1 2-5.5 4.3-12 5.5-16.4-4 .5-7.7.9-10.5.9-3.7-.1-5.9-2.6-5.9-5.7zm33.7 20.3c1.2-3 2.1-4.5 3.2-5.6 2.7.4 6 2.1 7.2 3.5-2.6 3-4.4 6.7-6.4 12.8 5.1-4.6 9-8.5 12.5-13.7.4-.3.7-.4 1.5-.4 1.4 0 2.8.5 3.2 1.2-.9 2.3-1.3 4.5-1.3 6.8 0 2.1.3 3.7.9 4.8-.1.6-1.5 2.5-3 4-2.6-1.3-4.8-3.8-5.7-6.6-9.1 6.3-12.2 11.4-15 24.6-1.7-.1-5.3-2.4-5.9-3.9 1.1-5.7 5.3-19.3 8.8-27.5zm52.2 2.3c-3.9 8.1-6.6 16.6-6.6 21.5 0 2.7.6 4.5 1.9 5.3-1.2.7-3.2 1.3-4.7 1.3-2.6 0-3.9-1.7-3.9-5.3 0-2.7.9-6.6 2.7-11.2-3.9 8.8-10.2 16-14.7 16.7-3.5-.1-6-3.7-6-8.7 0-10.7 10.4-25.4 18.1-25.9 1.9.5 5.2 3.9 5.4 5.7-7.7 1.2-17.1 14-17.1 22.8 0 1 .4 1.5 1 1.7 2.8-.6 6.3-4.6 11.4-13.2 2-3.4 4.9-8.8 7-13.1 2.2-.1 5.6 1.5 5.5 2.4zm12-5.1c1.4 0 3.3.3 4.1 1-.8 3.2-.9 4.4-1.1 10.9-.1 6.6-.4 11.3-1.9 16.4 0 .3.1.3.2.3 2.8-2.2 7.8-8.4 11.2-14 2.3-4 5.5-10.4 7.3-17.3 1.2 0 3.9 1 4.5 1.7-.4 8.2-7.9 17.7-12.5 22.9-4.6 5.4-8.8 9.4-15.3 13.3-2.5-.9-4-2.7-4-4.4 0-2.4 2.6-5.2 2.6-16.1 0-3.2-.2-6.8-.2-8.5-.1-3.5.7-6.2 5.1-6.2zM319 53.3c0 .6-.1 1.2-.1 1.9 0 2.4.6 5.8 3.3 5.8 5.2 0 10.2-5.2 13.2-8.4.5.4.9.8 1.2 1.2-4.3 5.7-9.9 9.8-14.4 10.8-6.6-.7-10.5-5.3-10.5-11 0-11.8 10.8-25.7 20.3-25.7 2.2.3 4.2 1.7 6.2 4.1-.7 11.7-7 16.4-19.2 21.3zm.5-2.8c7.6-3.8 13.3-9.7 13.7-16.3-5.2.8-11.4 7.4-13.7 16.3zm27.7-15.7c5.9-16.1 11.1-26.9 16.1-32.9 2.3.4 7.3 3.3 8.1 4.5-7.5 8.9-12.9 18.6-17.6 31.8-4 11.2-6.2 20.6-6.2 26.6 0 1.7 0 1.7.1 2.1-1.3-.1-2.4-.7-2.7-1.4-.2-.5-1.3-1.7-1.9-2.1-.9-.6-1.5-3.3-1.5-6.4-.2-4.1 1.9-12.1 5.6-22.2z" fill="#f7931e"/><path d="M159.9 28.1l4.1-6.3c.6-.8.3-2-.5-2.5-.8-.6-2-.3-2.5.5l-3.3 5v-.1l-.1.1-3.3-5c-.6-.8-1.7-1.1-2.5-.5-.8.6-1.1 1.7-.5 2.5l4.2 6.3L135 59.3h9.3c.5 0 1-.1 1.5-.3 7.5-2.7 10.4-11.1 11.4-15.6.1-.5.9-.5 1 0 1 4.5 3.9 12.9 11.4 15.6.5.2 1 .3 1.5.3h9.3l-20.5-31.2zm21.6 33h-47.6c-.8 0-1.4.6-1.4 1.3v1c0 .7.6 1.3 1.4 1.3h47.6c.8 0 1.4-.6 1.4-1.3v-1c0-.7-.7-1.3-1.4-1.3z" fill="#0e7388"/></svg>