<?xml version="1.0" encoding="utf-8"?>
<!-- Generator: Adobe Illustrator 22.0.1, SVG Export Plug-In . SVG Version: 6.00 Build 0)  -->
<svg version="1.1" id="Слой_1" xmlns="http://www.w3.org/2000/svg" xmlns:xlink="http://www.w3.org/1999/xlink" x="0px" y="0px"
	 viewBox="0 0 371.3 88.1" style="enable-background:new 0 0 371.3 88.1;" xml:space="preserve">
<style type="text/css">
	.st0{fill:#F7931E;}
	.st1{fill:#0E7388;}
</style>
<g>
	<path class="st0" d="M35.9,63.6c0,0.9-0.1,1.6-0.4,2.3c-1.7-0.2-3.4-0.3-5.3-0.3c-4.6,0-9.1,0.4-18.4,1.9c-2.2-0.8-4.5-3.2-6.4-6.3
		c1.9-4.3,5.9-12.1,11.3-27.9c3.5-10.3,4.7-14.8,7-25.3c3.8,0.8,6.5,2.7,9.1,6.6c-1.4,2.4-5.3,11.5-9.6,23
		c-4.2,11.2-8.4,20.4-8.4,23.2c3-0.1,4.7-0.4,9.1-1.5c3.9-0.9,6.1-1.3,10.4-1.6C35.3,59.7,35.9,61.7,35.9,63.6z"/>
	<path class="st0" d="M46.3,53.3c0,0.6-0.1,1.2-0.1,1.9c0,2.4,0.6,5.8,3.3,5.8c5.2,0,10.2-5.2,13.2-8.4c0.5,0.4,0.9,0.8,1.2,1.2
		c-4.3,5.7-9.9,9.8-14.4,10.8c-6.6-0.7-10.5-5.3-10.5-11c0-11.8,10.8-25.7,20.3-25.7c2.2,0.3,4.2,1.7,6.2,4.1
		C64.8,43.7,58.5,48.4,46.3,53.3z M46.9,50.5c7.6-3.8,13.3-9.7,13.7-16.3C55.3,35,49.2,41.6,46.9,50.5z"/>
	<path class="st0" d="M72.6,34.1c-0.4-0.6-0.9-3-0.9-4.2c2.5,0.1,4.8,0.4,6.8,0.4c2.9-5.7,7.1-11.9,8.6-12.7c1.9,0,6.6,1.5,7.5,2.6
		c-2.9,3.6-4.7,6.4-7.1,10.4c1.9,0,3.9-0.1,5.9-0.3c0.4,0.4,0.8,1.2,0.8,2c-2.3,0.9-5.3,1.4-8.6,1.4C80.9,43,78,52.3,78,58.2
		c0,2.2,0.9,3.3,2.4,3.5c2.9-0.4,5.5-1.5,7.6-3.1c0.2,0.4,0.4,0.8,0.5,1.1c-1.1,1.7-6.3,5.1-7.8,5.3c-4.8-0.1-10.2-4.2-10.2-7.6
		c0-4.7,2.7-14.4,6.3-23.3H72.6z"/>
	<path class="st0" d="M102.8,21.1c2.4-4,3.4-7.9,3.4-13c0-1.9-0.1-4-0.4-6.3c4.9,0.3,9.6,2.7,10.2,5.1c-1.8,7.9-5.8,13.6-12,16.9
		C103.4,23.3,102.8,22,102.8,21.1z"/>
	<path class="st0" d="M127.5,41.3c-0.6-0.1-0.9-0.4-0.9-1.1c0-0.6,1.2-2.7,1.2-3.9c0-1.4-0.7-2.4-1.7-2.4c-3.8,0-5.9,5-5.9,14.2
		c0,0.6,0,0.7,0.1,0.9c2-0.1,3.5-0.1,5-0.1c0.1,0.1,0.1,0.2,0.1,0.6c0,0.4-0.1,0.8-0.3,0.9c-4.5,1-4.8,1.2-4.8,2.2
		c0,0.7,0.1,1.4,0.1,2.6c0,8-4.7,13.2-12.4,14c-2.7-0.2-6-3-6.8-5.6c0-7.3,6.5-13.5,14.8-14.1c0-4.9-2.2-9.1-2.2-13.1
		c0-5.1,4.5-10.7,9.5-11.7c2.2,0.6,7.7,6.2,8.3,8.4C131.2,36.7,129,41.3,127.5,41.3z M116.1,53.2c-3.7,0.5-9.9,6.8-9.9,10.1
		c0,1.1,0.5,1.9,1.4,2.6C112.2,64,116.1,58.2,116.1,53.2z"/>
	<path class="st0" d="M191.4,12.5c0-0.7,0.3-2,0.6-2.7c1.2,0.6,3.8,0.8,7.1,0.8c9.9,0,26.4-2,28.9-2c3.5,0,4.8,2.9,5.6,7.3
		c-2.4-0.2-5.1-0.4-6.8-0.4c-3,0-6.2,0.2-9.4,0.6c-2.7,5.5-6.6,16-8.8,22.5c-4.2,12.7-6.3,21-7.6,29.2c-3.3-0.5-5.9-2.5-8.1-6
		c1.6-6,4.2-13.6,9.4-28.1c2-5.5,4.3-12,5.5-16.4c-4,0.5-7.7,0.9-10.5,0.9C193.6,18.1,191.4,15.6,191.4,12.5z"/>
	<path class="st0" d="M225.1,32.8c1.2-3,2.1-4.5,3.2-5.6c2.7,0.4,6,2.1,7.2,3.5c-2.6,3-4.4,6.7-6.4,12.8c5.1-4.6,9-8.5,12.5-13.7
		c0.4-0.3,0.7-0.4,1.5-0.4c1.4,0,2.8,0.5,3.2,1.2c-0.9,2.3-1.3,4.5-1.3,6.8c0,2.1,0.3,3.7,0.9,4.8c-0.1,0.6-1.5,2.5-3,4
		c-2.6-1.3-4.8-3.8-5.7-6.6c-9.1,6.3-12.2,11.4-15,24.6c-1.7-0.1-5.3-2.4-5.9-3.9C217.4,54.6,221.6,41,225.1,32.8z"/>
	<path class="st0" d="M277.3,35.1c-3.9,8.1-6.6,16.6-6.6,21.5c0,2.7,0.6,4.5,1.9,5.3c-1.2,0.7-3.2,1.3-4.7,1.3
		c-2.6,0-3.9-1.7-3.9-5.3c0-2.7,0.9-6.6,2.7-11.2c-3.9,8.8-10.2,16-14.7,16.7c-3.5-0.1-6-3.7-6-8.7c0-10.7,10.4-25.4,18.1-25.9
		c1.9,0.5,5.2,3.9,5.4,5.7c-7.7,1.2-17.1,14-17.1,22.8c0,1,0.4,1.5,1,1.7c2.8-0.6,6.3-4.6,11.4-13.2c2-3.4,4.9-8.8,7-13.1
		C274,32.6,277.4,34.2,277.3,35.1z"/>
	<path class="st0" d="M289.3,30c1.4,0,3.3,0.3,4.1,1c-0.8,3.2-0.9,4.4-1.1,10.9c-0.1,6.6-0.4,11.3-1.9,16.4c0,0.3,0.1,0.3,0.2,0.3
		c2.8-2.2,7.8-8.4,11.2-14c2.3-4,5.5-10.4,7.3-17.3c1.2,0,3.9,1,4.5,1.7c-0.4,8.2-7.9,17.7-12.5,22.9c-4.6,5.4-8.8,9.4-15.3,13.3
		c-2.5-0.9-4-2.7-4-4.4c0-2.4,2.6-5.2,2.6-16.1c0-3.2-0.2-6.8-0.2-8.5C284.1,32.7,284.9,30,289.3,30z"/>
	<path class="st0" d="M319,53.3c0,0.6-0.1,1.2-0.1,1.9c0,2.4,0.6,5.8,3.3,5.8c5.2,0,10.2-5.2,13.2-8.4c0.5,0.4,0.9,0.8,1.2,1.2
		c-4.3,5.7-9.9,9.8-14.4,10.8c-6.6-0.7-10.5-5.3-10.5-11c0-11.8,10.8-25.7,20.3-25.7c2.2,0.3,4.2,1.7,6.2,4.1
		C337.5,43.7,331.2,48.4,319,53.3z M319.5,50.5c7.6-3.8,13.3-9.7,13.7-16.3C328,35,321.8,41.6,319.5,50.5z"/>
	<path class="st0" d="M347.2,34.8c5.9-16.1,11.1-26.9,16.1-32.9c2.3,0.4,7.3,3.3,8.1,4.5c-7.5,8.9-12.9,18.6-17.6,31.8
		c-4,11.2-6.2,20.6-6.2,26.6c0,1.7,0,1.7,0.1,2.1c-1.3-0.1-2.4-0.7-2.7-1.4c-0.2-0.5-1.3-1.7-1.9-2.1c-0.9-0.6-1.5-3.3-1.5-6.4
		C341.4,52.9,343.5,44.9,347.2,34.8z"/>
</g>
<g>
	<path class="st1" d="M159.9,28.1l4.1-6.3c0.6-0.8,0.3-2-0.5-2.5c-0.8-0.6-2-0.3-2.5,0.5l-3.3,5l0-0.1l-0.1,0.1l-3.3-5
		c-0.6-0.8-1.7-1.1-2.5-0.5c-0.8,0.6-1.1,1.7-0.5,2.5l4.2,6.3l-20.5,31.2h9.3c0.5,0,1-0.1,1.5-0.3c7.5-2.7,10.4-11.1,11.4-15.6
		c0.1-0.5,0.9-0.5,1,0c1,4.5,3.9,12.9,11.4,15.6c0.5,0.2,1,0.3,1.5,0.3h9.3L159.9,28.1z"/>
	<path class="st1" d="M181.5,61.1h-47.6c-0.8,0-1.4,0.6-1.4,1.3v1c0,0.7,0.6,1.3,1.4,1.3h47.6c0.8,0,1.4-0.6,1.4-1.3v-1
		C182.9,61.7,182.2,61.1,181.5,61.1z"/>
</g>
<g>
</g>
<g>
</g>
<g>
</g>
<g>
</g>
<g>
</g>
<g>
</g>
<g>
</g>
<g>
</g>
<g>
</g>
<g>
</g>
<g>
</g>
<g>
</g>
<g>
</g>
<g>
</g>
<g>
</g>
</svg>
