<?xml version="1.0" encoding="utf-8"?>
<!-- Generator: Adobe Illustrator 21.1.0, SVG Export Plug-In . SVG Version: 6.00 Build 0)  -->
<svg version="1.1" xmlns="http://www.w3.org/2000/svg" xmlns:xlink="http://www.w3.org/1999/xlink" x="0px" y="0px"
	 viewBox="0 0 222.833 92.663" enable-background="new 0 0 222.833 92.663" xml:space="preserve">
<g id="Layer_2" display="none">
</g>
<g id="Layer_1">
	<g>
		<path fill="#1C1C1C" d="M24.336,22.823c0.191-0.288,0.648-0.263,1.368,0.072c0.72,0.336,1.476,0.792,2.268,1.368
			s1.487,1.188,2.088,1.836c0.6,0.648,0.875,1.141,0.828,1.476c-0.673,2.16-1.285,4.284-1.836,6.372
			c-0.552,2.088-1.092,4.165-1.62,6.228l1.872-0.216c2.016-0.432,3.935-1.199,5.76-2.304c1.824-1.104,3.431-2.423,4.824-3.96
			c1.392-1.536,2.507-3.228,3.348-5.076c0.839-1.847,1.308-3.755,1.404-5.724c0.047-1.584-0.216-2.819-0.792-3.708
			c-0.576-0.887-1.321-1.523-2.232-1.908c-0.913-0.384-1.897-0.587-2.952-0.612c-1.057-0.023-2.041,0.013-2.952,0.108
			c-3.024,0.336-6.109,1.08-9.252,2.232c-3.145,1.152-6.012,2.628-8.604,4.428c-2.592,1.8-4.752,3.888-6.48,6.264
			s-2.712,4.957-2.952,7.74c0.096,0.672-0.012,1.092-0.324,1.26c-0.313,0.169-0.876,0.133-1.692-0.108
			c-1.44-0.384-2.545-1.176-3.312-2.376c-0.769-1.199-1.224-2.544-1.368-4.032c-0.144-1.487,0-2.976,0.432-4.464
			c0.432-1.487,1.127-2.736,2.088-3.744c1.775-2.592,4.176-4.788,7.2-6.588c3.024-1.8,6.288-3.168,9.792-4.104
			c3.503-0.936,7.056-1.463,10.656-1.584c3.6-0.119,6.876,0.205,9.828,0.972c2.952,0.768,5.411,1.956,7.38,3.564
			c1.968,1.608,3.048,3.661,3.24,6.156c0.144,1.584-0.084,3.252-0.684,5.004c-0.601,1.753-1.476,3.492-2.628,5.22
			c-1.152,1.728-2.533,3.373-4.14,4.932c-1.609,1.56-3.373,2.94-5.292,4.14c-1.92,1.201-3.949,2.149-6.084,2.844
			c-2.137,0.696-4.284,1.021-6.444,0.972h-0.936c-1.105,4.944-1.92,9.396-2.448,13.356c-0.529,3.96-0.673,6.995-0.432,9.108
			c-0.144,0.335-0.624,0.432-1.44,0.288c-0.817-0.144-1.681-0.396-2.592-0.756c-0.913-0.36-1.741-0.781-2.484-1.26
			c-0.745-0.48-1.116-0.913-1.116-1.296c-0.192-3.312-0.036-6.756,0.468-10.332c0.504-3.575,1.164-7.092,1.98-10.548
			c-1.249-0.527-2.304-1.343-3.168-2.448c-0.864-1.104-1.416-2.592-1.656-4.464c-0.048-0.479-0.036-1.008,0.036-1.584
			c0.072-0.576,0.18-1.02,0.324-1.332c0.144-0.312,0.312-0.42,0.504-0.324c0.191,0.097,0.407,0.576,0.648,1.44
			c0.24,1.057,0.708,1.957,1.404,2.7c0.695,0.745,1.692,1.308,2.988,1.692c0.96-3.647,1.932-6.948,2.916-9.9
			C23.051,26.891,23.807,24.551,24.336,22.823z"/>
		<path fill="#1C1C1C" d="M54.071,39.455c-0.144,0.769-0.313,1.404-0.504,1.908c-0.192,0.504-0.432,1.236-0.72,2.196
			c0.72,0.192,1.404,0.288,2.052,0.288s1.379,0.121,2.196,0.36c0.864,0.336,1.464,0.84,1.8,1.512
			c0.335,0.673,0.504,1.417,0.504,2.232c0,0.576-0.048,1.116-0.144,1.62c-0.097,0.504-0.216,0.972-0.36,1.404
			c-0.769,2.16-1.285,3.672-1.548,4.536c-0.265,0.864-0.445,1.417-0.54,1.656c-0.288,1.152-0.421,1.933-0.396,2.34
			c0.023,0.408,0.155,0.564,0.396,0.468c0.239-0.096,0.551-0.36,0.936-0.792c0.383-0.432,0.767-0.936,1.152-1.512
			c0.384-0.576,0.744-1.14,1.08-1.692c0.335-0.551,0.6-0.972,0.792-1.26c0.479-0.911,0.959-1.836,1.44-2.772
			c0.479-0.936,0.911-1.824,1.296-2.664c0.384-0.839,0.731-1.62,1.044-2.34c0.312-0.72,0.563-1.296,0.756-1.728
			c0.288-0.335,0.6-0.54,0.936-0.612c0.335-0.072,0.648-0.036,0.936,0.108c0.288,0.144,0.516,0.396,0.684,0.756
			c0.167,0.36,0.204,0.756,0.108,1.188c-0.192,0.48-0.444,1.08-0.756,1.8c-0.313,0.72-0.648,1.501-1.008,2.34
			c-0.36,0.84-0.756,1.717-1.188,2.628c-0.432,0.912-0.864,1.8-1.296,2.664c-0.528,0.96-1.128,1.992-1.8,3.096
			c-0.673,1.105-1.38,2.112-2.124,3.024c-0.745,0.912-1.537,1.595-2.376,2.052c-0.84,0.456-1.717,0.492-2.628,0.108
			c-1.728-0.817-2.905-1.884-3.528-3.204c-0.625-1.319-0.936-2.675-0.936-4.068c0-1.631,0.275-3.228,0.828-4.788
			c0.551-1.559,1.02-3.179,1.404-4.86c-0.864-0.047-1.705-0.18-2.52-0.396c-0.817-0.216-1.548-0.563-2.196-1.044
			c-0.648-0.479-1.177-1.091-1.584-1.836c-0.408-0.744-0.612-1.644-0.612-2.7c0-0.576,0.083-1.211,0.252-1.908
			c0.167-0.695,0.419-1.379,0.756-2.052c0.335-0.672,0.768-1.271,1.296-1.8c0.527-0.528,1.175-0.912,1.944-1.152
			c0.623-0.191,1.224-0.18,1.8,0.036c0.576,0.216,1.055,0.565,1.44,1.044c0.384,0.48,0.672,1.057,0.864,1.728
			C54.19,38.04,54.215,38.735,54.071,39.455z"/>
		<path fill="#1C1C1C" d="M72.214,39.095c1.343-0.623,2.711-0.936,4.104-0.936c0.959,0,1.919,0.144,2.88,0.432
			c0.96,0.288,1.8,0.72,2.52,1.296c0.72,0.576,1.284,1.309,1.692,2.196c0.407,0.889,0.54,1.933,0.396,3.132
			c-0.48,2.64-1.44,4.705-2.88,6.192c-1.44,1.488-3.145,2.664-5.112,3.528c-1.393,0.625-2.785,1.128-4.176,1.512
			c-1.393,0.385-2.664,0.673-3.816,0.864c0.096,0.961,0.456,1.789,1.08,2.484c0.623,0.696,1.392,1.044,2.304,1.044
			c1.584,0,3.155-0.443,4.716-1.332c1.559-0.888,3.024-2.04,4.392-3.456c1.368-1.416,2.628-3.035,3.78-4.86
			c1.152-1.824,2.112-3.672,2.88-5.544c0.191-0.479,0.468-0.804,0.828-0.972c0.36-0.167,0.695-0.204,1.008-0.108
			c0.312,0.097,0.576,0.313,0.792,0.648c0.216,0.336,0.275,0.745,0.18,1.224c-0.288,1.92-1.008,3.936-2.16,6.048
			c-1.152,2.113-2.617,4.057-4.392,5.832c-1.776,1.776-3.816,3.264-6.12,4.464c-2.304,1.199-4.777,1.847-7.416,1.944
			c-3.121,0.096-5.497-0.732-7.128-2.484c-1.632-1.751-2.256-4.187-1.872-7.308c0.191-1.775,0.636-3.492,1.332-5.148
			c0.695-1.656,1.572-3.168,2.628-4.536c1.055-1.368,2.232-2.58,3.528-3.636C69.478,40.56,70.821,39.72,72.214,39.095z
			 M74.446,51.767c0.672-0.335,1.343-0.744,2.016-1.224c0.671-0.479,1.26-1.02,1.764-1.62c0.504-0.6,0.9-1.248,1.188-1.944
			c0.288-0.695,0.432-1.404,0.432-2.124c-0.048-1.152-0.493-1.847-1.332-2.088c-0.84-0.239-1.812,0.048-2.916,0.864
			c-2.016,1.393-3.54,2.88-4.572,4.464c-1.033,1.584-1.861,3.433-2.484,5.544c1.008-0.191,2.027-0.456,3.06-0.792
			C72.633,52.512,73.582,52.152,74.446,51.767z"/>
		<path fill="#1C1C1C" d="M90.501,56.375c-0.48,1.296-0.708,2.221-0.684,2.772c0.024,0.552,0.191,0.84,0.504,0.864
			c0.312,0.025,0.743-0.155,1.296-0.54c0.551-0.384,1.116-0.852,1.692-1.404c0.576-0.551,1.104-1.14,1.584-1.764
			c0.479-0.623,0.839-1.152,1.08-1.584c1.055-1.824,2.016-3.624,2.88-5.4c0.864-1.775,1.512-3.144,1.944-4.104
			c0.288-0.335,0.6-0.54,0.936-0.612c0.335-0.072,0.648-0.036,0.936,0.108c0.288,0.144,0.515,0.385,0.684,0.72
			c0.167,0.336,0.204,0.72,0.108,1.152c-0.768,1.681-1.537,3.325-2.304,4.932c-0.769,1.609-1.561,3.181-2.376,4.716
			c-0.336,0.576-0.817,1.344-1.44,2.304c-0.624,0.961-1.344,1.897-2.16,2.808c-0.817,0.911-1.705,1.703-2.664,2.376
			c-0.961,0.671-1.944,1.008-2.952,1.008c-1.632,0-2.856-0.444-3.672-1.332c-0.817-0.889-1.344-1.98-1.584-3.276
			c-0.241-1.296-0.277-2.664-0.108-4.104c0.167-1.44,0.396-2.711,0.684-3.816c0.191-0.72,0.432-1.595,0.72-2.628
			c0.288-1.032,0.624-2.279,1.008-3.744c0.383-1.463,0.815-3.204,1.296-5.22c0.479-2.016,1.032-4.368,1.656-7.056
			c-0.72-0.047-1.272-0.263-1.656-0.648c-0.385-0.384-0.637-0.852-0.756-1.404c-0.12-0.551-0.144-1.14-0.072-1.764
			c0.072-0.624,0.227-1.199,0.468-1.728c0.576,0.097,1.127,0.156,1.656,0.18c0.528,0.025,1.127,0.036,1.8,0.036l1.872-6.912
			c0.624-0.144,1.26-0.204,1.908-0.18c0.648,0.024,1.307,0.156,1.98,0.396c0.815,0.336,1.404,0.853,1.764,1.548
			c0.36,0.696,0.515,1.476,0.468,2.34c-0.048,0.529-0.121,0.984-0.216,1.368c-0.097,0.385-0.192,0.769-0.288,1.152
			c0.864-0.047,1.5,0.013,1.908,0.18c0.407,0.169,0.672,0.408,0.792,0.72c0.12,0.313,0.144,0.684,0.072,1.116
			c-0.072,0.432-0.108,0.864-0.108,1.296c0,0.385-0.097,0.817-0.288,1.296c-0.192,0.48-0.409,0.984-0.648,1.512
			c-0.72-0.335-1.309-0.515-1.764-0.54c-0.457-0.023-1.021-0.011-1.692,0.036c-1.249,4.464-2.245,8.076-2.988,10.836
			c-0.745,2.761-1.332,4.957-1.764,6.588c-0.432,1.632-0.756,2.833-0.972,3.6C90.825,55.344,90.645,55.943,90.501,56.375z"/>
		<path fill="#1C1C1C" d="M104.252,56.375c-0.48,1.296-0.708,2.221-0.684,2.772c0.024,0.552,0.191,0.84,0.504,0.864
			c0.312,0.025,0.743-0.155,1.296-0.54c0.551-0.384,1.116-0.852,1.692-1.404c0.576-0.551,1.104-1.14,1.584-1.764
			c0.479-0.623,0.839-1.152,1.08-1.584c1.055-1.824,2.016-3.624,2.88-5.4c0.864-1.775,1.512-3.144,1.944-4.104
			c0.288-0.335,0.6-0.54,0.936-0.612c0.335-0.072,0.648-0.036,0.936,0.108c0.288,0.144,0.515,0.385,0.684,0.72
			c0.167,0.336,0.204,0.72,0.108,1.152c-0.768,1.681-1.537,3.325-2.304,4.932c-0.769,1.609-1.561,3.181-2.376,4.716
			c-0.336,0.576-0.817,1.344-1.44,2.304c-0.624,0.961-1.344,1.897-2.16,2.808c-0.817,0.911-1.705,1.703-2.664,2.376
			c-0.961,0.671-1.944,1.008-2.952,1.008c-1.632,0-2.856-0.444-3.672-1.332c-0.817-0.889-1.344-1.98-1.584-3.276
			c-0.241-1.296-0.277-2.664-0.108-4.104c0.167-1.44,0.396-2.711,0.684-3.816c0.191-0.72,0.432-1.595,0.72-2.628
			c0.288-1.032,0.624-2.279,1.008-3.744c0.383-1.463,0.815-3.204,1.296-5.22c0.479-2.016,1.032-4.368,1.656-7.056
			c-0.72-0.047-1.272-0.263-1.656-0.648c-0.385-0.384-0.637-0.852-0.756-1.404c-0.12-0.551-0.144-1.14-0.072-1.764
			c0.072-0.624,0.227-1.199,0.468-1.728c0.576,0.097,1.127,0.156,1.656,0.18c0.528,0.025,1.127,0.036,1.8,0.036l1.872-6.912
			c0.624-0.144,1.26-0.204,1.908-0.18c0.648,0.024,1.307,0.156,1.98,0.396c0.815,0.336,1.404,0.853,1.764,1.548
			c0.36,0.696,0.515,1.476,0.468,2.34c-0.048,0.529-0.121,0.984-0.216,1.368c-0.097,0.385-0.192,0.769-0.288,1.152
			c0.864-0.047,1.5,0.013,1.908,0.18c0.407,0.169,0.672,0.408,0.792,0.72c0.12,0.313,0.144,0.684,0.072,1.116
			c-0.072,0.432-0.108,0.864-0.108,1.296c0,0.385-0.097,0.817-0.288,1.296c-0.192,0.48-0.409,0.984-0.648,1.512
			c-0.72-0.335-1.309-0.515-1.764-0.54c-0.457-0.023-1.021-0.011-1.692,0.036c-1.249,4.464-2.245,8.076-2.988,10.836
			c-0.745,2.761-1.332,4.957-1.764,6.588c-0.432,1.632-0.756,2.833-0.972,3.6C104.577,55.344,104.396,55.943,104.252,56.375z"/>
		<path fill="#1C1C1C" d="M114.908,39.599c-0.049-0.383,0.155-0.659,0.612-0.828c0.456-0.167,1.019-0.252,1.692-0.252
			c0.288,0,0.587,0.025,0.9,0.072c0.312,0.048,0.587,0.12,0.828,0.216c0.911,0.336,1.523,0.864,1.836,1.584
			c0.312,0.72,0.468,1.512,0.468,2.376c0,0.241-0.025,0.517-0.072,0.828c-0.048,0.313-0.205,0.948-0.468,1.908
			c-0.265,0.96-0.661,2.352-1.188,4.176c-0.529,1.825-1.272,4.32-2.232,7.488c-0.288,1.008-0.432,1.8-0.432,2.376
			c0,0.384,0.144,0.48,0.432,0.288c0.288-0.191,0.659-0.54,1.116-1.044c0.456-0.504,0.936-1.116,1.44-1.836
			c0.504-0.72,0.972-1.463,1.404-2.232c0.864-1.584,1.692-3.228,2.484-4.932c0.792-1.703,1.451-3.228,1.98-4.572h-0.072
			c0.384-1.296,0.695-2.459,0.936-3.492c0.24-1.032,0.36-1.644,0.36-1.836c-0.097-0.384,0.083-0.671,0.54-0.864
			c0.456-0.191,1.019-0.288,1.692-0.288c0.288,0,0.6,0.024,0.936,0.072c0.335,0.048,0.648,0.121,0.936,0.216
			c0.815,0.336,1.392,0.864,1.728,1.584c0.335,0.72,0.504,1.512,0.504,2.376c0,0.912-0.121,1.8-0.36,2.664
			c-0.241,0.96-0.457,1.836-0.648,2.628c-0.192,0.792-0.385,1.573-0.576,2.34c-0.192,0.769-0.409,1.561-0.648,2.376
			c-0.241,0.817-0.529,1.753-0.864,2.808c1.536-1.392,2.952-2.94,4.248-4.644c1.296-1.703,2.423-3.636,3.384-5.796
			c0.095-0.24,0.312-0.335,0.648-0.288c0.335,0.048,0.671,0.156,1.008,0.324c0.335,0.169,0.623,0.385,0.864,0.648
			c0.239,0.264,0.288,0.516,0.144,0.756c-1.249,3.121-2.94,5.929-5.076,8.424c-2.137,2.497-4.525,4.705-7.164,6.624h0.144
			c-0.913,2.543-1.861,5.015-2.844,7.416c-0.984,2.4-1.956,4.439-2.916,6.12c-0.48,0.767-1.056,1.523-1.728,2.268
			c-0.672,0.744-1.429,1.415-2.268,2.016c-0.841,0.6-1.728,1.091-2.664,1.476c-0.936,0.384-1.885,0.576-2.844,0.576
			c-0.912,0-1.776-0.169-2.592-0.504c-1.104-0.432-1.908-1.188-2.412-2.268s-0.756-2.221-0.756-3.42
			c0-1.584,0.385-2.952,1.152-4.104c0.864-1.249,1.991-2.304,3.384-3.168c1.392-0.864,3.12-1.825,5.184-2.88
			c0.576-0.336,1.224-0.684,1.944-1.044c0.72-0.36,1.368-0.684,1.944-0.972h-0.216c0.144-0.336,0.264-0.72,0.36-1.152
			c0.096-0.432,0.191-0.912,0.288-1.44v0.072v-0.072v-0.072v-0.072c-0.432,0.576-0.9,1.116-1.404,1.62s-1.021,0.924-1.548,1.26
			c-0.529,0.335-1.08,0.54-1.656,0.612c-0.576,0.072-1.152-0.012-1.728-0.252c-1.728-0.817-2.869-1.8-3.42-2.952
			c-0.552-1.152-0.828-2.423-0.828-3.816c0-1.055,0.131-2.135,0.396-3.24c0.263-1.104,0.587-2.232,0.972-3.384l0.288-0.864h-0.072
			c0.288-0.96,0.576-1.991,0.864-3.096c0.288-1.104,0.563-2.147,0.828-3.132c0.263-0.983,0.468-1.824,0.612-2.52
			C114.836,40.164,114.908,39.743,114.908,39.599z M112.172,76.103c0.576,0,1.188-0.168,1.836-0.504
			c0.648-0.336,1.235-0.889,1.764-1.656H115.7c1.104-1.776,2.184-3.913,3.24-6.408c-1.537,0.864-2.941,1.764-4.212,2.7
			c-1.272,0.936-2.245,1.883-2.916,2.844c-0.576,0.96-0.864,1.703-0.864,2.232C110.948,75.839,111.355,76.103,112.172,76.103z"/>
		<path fill="#1C1C1C" d="M162.788,50.615c0.288-0.432,0.839-0.756,1.656-0.972c0.816-0.216,1.656-0.312,2.52-0.288
			c0.864,0.025,1.631,0.18,2.304,0.468c0.671,0.288,1.008,0.696,1.008,1.224c-0.72,2.833-1.548,6-2.484,9.504
			s-2.077,6.972-3.42,10.404c-1.344,3.431-2.893,6.635-4.644,9.612c-1.753,2.976-3.805,5.352-6.156,7.128
			c-1.296,0.959-2.772,1.571-4.428,1.836c-1.656,0.263-3.252,0.155-4.788-0.324c-1.537-0.48-2.905-1.321-4.104-2.52
			c-1.2-1.2-1.992-2.761-2.376-4.68c-0.144-0.913-0.156-1.717-0.036-2.412c0.12-0.696,0.299-1.224,0.54-1.584
			c0.24-0.36,0.479-0.54,0.72-0.54c0.24,0,0.36,0.216,0.36,0.648c0.144,2.256,0.648,3.984,1.512,5.184
			c0.864,1.199,1.859,2.003,2.988,2.412c1.127,0.407,2.279,0.468,3.456,0.18c1.176-0.288,2.147-0.816,2.916-1.584
			c1.392-1.44,2.616-3.072,3.672-4.896c1.055-1.825,1.98-3.756,2.772-5.796c0.792-2.041,1.487-4.14,2.088-6.3
			c0.6-2.16,1.139-4.32,1.62-6.48c-0.96,1.296-1.944,2.52-2.952,3.672c-1.008,1.152-2.077,2.147-3.204,2.988
			c-1.128,0.839-2.353,1.487-3.672,1.944c-1.321,0.456-2.725,0.659-4.212,0.612c-3.265-0.097-5.796-1.021-7.596-2.772
			c-1.8-1.753-3.013-4.008-3.636-6.768c-0.624-2.76-0.72-5.892-0.288-9.396c0.432-3.503,1.271-7.043,2.52-10.62
			c1.248-3.575,2.844-7.067,4.788-10.476c1.944-3.408,4.104-6.408,6.48-9c2.376-2.592,4.907-4.632,7.596-6.12
			c2.688-1.487,5.4-2.135,8.136-1.944c2.688,0.241,4.835,0.925,6.444,2.052c1.607,1.128,2.747,2.532,3.42,4.212
			c0.671,1.681,0.923,3.528,0.756,5.544c-0.168,2.016-0.648,4.021-1.44,6.012c-0.792,1.992-1.848,3.888-3.168,5.688
			c-1.321,1.8-2.82,3.276-4.5,4.428c-0.48,0.432-0.948,0.673-1.404,0.72c-0.457,0.048-0.817-0.023-1.08-0.216
			c-0.265-0.191-0.385-0.456-0.36-0.792c0.024-0.335,0.299-0.672,0.828-1.008c0.672-0.479,1.428-1.319,2.268-2.52
			c0.839-1.199,1.62-2.567,2.34-4.104c0.72-1.536,1.296-3.143,1.728-4.824c0.432-1.68,0.576-3.228,0.432-4.644
			c-0.144-1.416-0.648-2.592-1.512-3.528c-0.864-0.936-2.232-1.427-4.104-1.476c-1.488-0.047-3.072,0.552-4.752,1.8
			c-1.681,1.249-3.348,2.916-5.004,5.004c-1.656,2.088-3.265,4.477-4.824,7.164c-1.561,2.689-2.929,5.472-4.104,8.352
			c-1.177,2.88-2.113,5.736-2.808,8.568c-0.696,2.833-1.033,5.413-1.008,7.74c0.024,2.329,0.456,4.308,1.296,5.94
			c0.839,1.631,2.219,2.664,4.14,3.096c1.487,0.335,2.855,0.144,4.104-0.576c1.248-0.72,2.436-1.753,3.564-3.096
			c1.127-1.343,2.22-2.88,3.276-4.608c1.055-1.728,2.16-3.431,3.312-5.112c0.096-0.384,0.18-0.744,0.252-1.08
			C162.607,51.36,162.691,51,162.788,50.615z"/>
		<path fill="#1C1C1C" d="M175.963,39.599c-0.097-0.383,0.083-0.659,0.54-0.828c0.456-0.167,1.019-0.252,1.692-0.252
			c0.672,0,1.271,0.097,1.8,0.288c0.864,0.336,1.463,0.84,1.8,1.512c0.335,0.673,0.504,1.416,0.504,2.232
			c0,0.529-0.048,1.044-0.144,1.548c-0.097,0.504-0.192,0.948-0.288,1.332l-3.096,11.736c-0.288,1.105-0.408,1.849-0.36,2.232
			c0.047,0.385,0.18,0.54,0.396,0.468c0.216-0.072,0.504-0.335,0.864-0.792c0.36-0.456,0.744-0.959,1.152-1.512
			c0.407-0.551,0.78-1.091,1.116-1.62c0.335-0.528,0.6-0.936,0.792-1.224h-0.072c1.008-1.824,1.919-3.611,2.736-5.364
			c0.815-1.751,1.415-3.107,1.8-4.068c0.288-0.383,0.6-0.612,0.936-0.684c0.335-0.072,0.648-0.023,0.936,0.144
			c0.288,0.169,0.515,0.421,0.684,0.756c0.167,0.336,0.227,0.745,0.18,1.224l-0.432,0.936c-0.432,1.008-1.021,2.329-1.764,3.96
			c-0.745,1.632-1.596,3.384-2.556,5.256c-0.432,0.72-0.948,1.596-1.548,2.628c-0.601,1.033-1.272,1.967-2.016,2.808
			c-0.745,0.839-1.524,1.487-2.34,1.944c-0.817,0.456-1.656,0.492-2.52,0.108c-1.537-0.769-2.676-1.8-3.42-3.096
			c-0.745-1.296-1.116-2.688-1.116-4.176c0-0.384,0.024-0.744,0.072-1.08c0.047-0.335,0.119-0.695,0.216-1.08l1.008-4.608
			c0.288-1.055,0.576-2.184,0.864-3.384c0.288-1.199,0.551-2.304,0.792-3.312c0.24-1.008,0.432-1.883,0.576-2.628
			C175.891,40.26,175.963,39.792,175.963,39.599z M177.043,33.191c0-0.24,0.011-0.479,0.036-0.72c0.023-0.24,0.06-0.479,0.108-0.72
			c0.24-1.392,0.828-2.567,1.764-3.528c0.936-0.959,1.908-1.44,2.916-1.44c1.008,0,1.8,0.373,2.376,1.116
			c0.576,0.745,0.864,1.668,0.864,2.772c0,0.241-0.012,0.48-0.036,0.72c-0.024,0.241-0.061,0.48-0.108,0.72
			c-0.241,1.393-0.817,2.556-1.728,3.492c-0.912,0.936-1.92,1.404-3.024,1.404c-0.961,0-1.728-0.36-2.304-1.08
			C177.331,35.207,177.043,34.296,177.043,33.191z"/>
		<path fill="#1C1C1C" d="M192.667,39.455c-0.144,0.769-0.313,1.404-0.504,1.908c-0.192,0.504-0.432,1.236-0.72,2.196
			c0.72,0.192,1.404,0.288,2.052,0.288s1.379,0.121,2.196,0.36c0.864,0.336,1.464,0.84,1.8,1.512
			c0.335,0.673,0.504,1.417,0.504,2.232c0,0.576-0.048,1.116-0.144,1.62c-0.097,0.504-0.216,0.972-0.36,1.404
			c-0.769,2.16-1.285,3.672-1.548,4.536c-0.265,0.864-0.445,1.417-0.54,1.656c-0.288,1.152-0.421,1.933-0.396,2.34
			c0.023,0.408,0.155,0.564,0.396,0.468c0.239-0.096,0.551-0.36,0.936-0.792c0.383-0.432,0.767-0.936,1.152-1.512
			c0.384-0.576,0.744-1.14,1.08-1.692c0.335-0.551,0.6-0.972,0.792-1.26c0.479-0.911,0.959-1.836,1.44-2.772
			c0.479-0.936,0.911-1.824,1.296-2.664c0.384-0.839,0.731-1.62,1.044-2.34c0.312-0.72,0.563-1.296,0.756-1.728
			c0.288-0.335,0.6-0.54,0.936-0.612c0.335-0.072,0.648-0.036,0.936,0.108c0.288,0.144,0.516,0.396,0.684,0.756
			c0.167,0.36,0.204,0.756,0.108,1.188c-0.192,0.48-0.444,1.08-0.756,1.8c-0.313,0.72-0.648,1.501-1.008,2.34
			c-0.36,0.84-0.756,1.717-1.188,2.628c-0.432,0.912-0.864,1.8-1.296,2.664c-0.528,0.96-1.128,1.992-1.8,3.096
			c-0.673,1.105-1.38,2.112-2.124,3.024c-0.745,0.912-1.537,1.595-2.376,2.052c-0.84,0.456-1.717,0.492-2.628,0.108
			c-1.728-0.817-2.905-1.884-3.528-3.204c-0.625-1.319-0.936-2.675-0.936-4.068c0-1.631,0.275-3.228,0.828-4.788
			c0.551-1.559,1.02-3.179,1.404-4.86c-0.864-0.047-1.705-0.18-2.52-0.396c-0.817-0.216-1.548-0.563-2.196-1.044
			c-0.648-0.479-1.177-1.091-1.584-1.836c-0.408-0.744-0.612-1.644-0.612-2.7c0-0.576,0.083-1.211,0.252-1.908
			c0.167-0.695,0.419-1.379,0.756-2.052c0.335-0.672,0.768-1.271,1.296-1.8c0.527-0.528,1.175-0.912,1.944-1.152
			c0.623-0.191,1.224-0.18,1.8,0.036c0.576,0.216,1.055,0.565,1.44,1.044c0.384,0.48,0.672,1.057,0.864,1.728
			C192.786,38.04,192.811,38.735,192.667,39.455z"/>
		<path fill="#1C1C1C" d="M219.81,46.007c0.384-1.055,0.911-1.584,1.584-1.584c0.479,0,0.864,0.252,1.152,0.756
			s0.36,1.092,0.216,1.764c-0.673,2.736-1.609,5.268-2.808,7.596c-1.2,2.329-2.353,4.309-3.456,5.94
			c-0.913,1.392-1.944,2.448-3.096,3.168c-1.152,0.72-2.304,1.08-3.456,1.08c-1.825,0-3.456-0.816-4.896-2.448
			c-1.44-1.631-2.304-4.104-2.592-7.416c-0.241-2.736-0.169-5.699,0.216-8.892c0.384-3.191,1.056-6.383,2.016-9.576
			c0.96-3.191,2.22-6.251,3.78-9.18c1.559-2.927,3.395-5.52,5.508-7.776c0.623-0.624,1.271-1.091,1.944-1.404
			c0.672-0.312,1.296-0.468,1.872-0.468c1.104,0,1.991,0.36,2.664,1.08c0.672,0.72,1.032,1.825,1.08,3.312
			c0,2.064-0.277,4.165-0.828,6.3c-0.552,2.136-1.332,4.176-2.34,6.12c-1.008,1.944-2.221,3.697-3.636,5.256
			c-1.416,1.561-2.964,2.772-4.644,3.636c-0.528,2.16-0.9,4.381-1.116,6.66c-0.216,2.28-0.277,4.644-0.18,7.092
			c0.047,0.96,0.228,1.656,0.54,2.088c0.312,0.432,0.708,0.648,1.188,0.648c1.152,0,2.351-0.767,3.6-2.304
			c0.191-0.239,0.468-0.576,0.828-1.008c0.36-0.432,0.767-1.068,1.224-1.908c0.456-0.839,0.996-1.944,1.62-3.312
			C218.417,49.859,219.089,48.12,219.81,46.007z M218.01,24.119c-1.345,2.208-2.592,4.489-3.744,6.84
			c-1.152,2.353-2.16,4.849-3.024,7.488c0.864-0.767,1.68-1.692,2.448-2.772c0.768-1.08,1.451-2.243,2.052-3.492
			c0.6-1.248,1.127-2.531,1.584-3.852c0.456-1.319,0.828-2.603,1.116-3.852c0.047-0.239,0.047-0.432,0-0.576
			c-0.048-0.144-0.168-0.072-0.36,0.216H218.01z"/>
	</g>
	<g>
	</g>
	<g>
	</g>
	<g>
	</g>
	<g>
	</g>
	<g>
	</g>
	<g>
	</g>
	<g>
	</g>
	<g>
	</g>
	<g>
	</g>
	<g>
	</g>
	<g>
	</g>
	<g>
	</g>
	<g>
	</g>
	<g>
	</g>
	<g>
	</g>
	<g>
	</g>
</g>
</svg>
