<svg width="41" height="52" xmlns="http://www.w3.org/2000/svg" xmlns:xlink="http://www.w3.org/1999/xlink"><defs><rect id="a" width="41" height="23" rx="2"/><rect id="b" y="29" width="41" height="23" rx="2"/><rect id="c" x="6" y="36" width="18" height="2" rx="1"/><rect id="d" x="6" y="44" width="5" height="2" rx="1"/><rect id="e" x="13" y="44" width="5" height="2" rx="1"/><rect id="f" x="6" y="40" width="18" height="2" rx="1"/><linearGradient x1="100%" y1="50%" x2="0%" y2="50%" id="h"><stop stop-color="#FE9A8B" offset="0%"/><stop stop-color="#FD868C" offset="40.85%"/><stop stop-color="#F9748F" offset="73.151%"/><stop stop-color="#F78CA0" offset="100%"/></linearGradient><rect id="g" x="17.45" y="8.45" width="7" height="7" rx="2"/><rect id="i" x="28.45" y="37.45" width="7" height="7" rx="2"/></defs><g fill="none" fill-rule="evenodd"><use fill="#E3E3E3" xlink:href="#a"/><rect stroke="#4A4A4A" stroke-width="2" x="1" y="1" width="39" height="21" rx="2"/><use fill="#F1F1F1" xlink:href="#b"/><rect stroke="#4A4A4A" stroke-width="2" x="1" y="30" width="39" height="21" rx="2"/><use fill="#F1F1F1" xlink:href="#c"/><rect stroke="#4A4A4A" stroke-width="2" x="7" y="37" width="16" height="1" rx=".5"/><use fill="#F1F1F1" xlink:href="#d"/><rect stroke="#4A4A4A" stroke-width="2" x="7" y="45" width="3" height="1" rx=".5"/><use fill="#F1F1F1" xlink:href="#e"/><rect stroke="#4A4A4A" stroke-width="2" x="14" y="45" width="3" height="1" rx=".5"/><use fill="#F1F1F1" xlink:href="#f"/><rect stroke="#4A4A4A" stroke-width="2" x="7" y="41" width="16" height="1" rx=".5"/><g transform="rotate(-45 20.95 11.95)"><use fill="#F1F1F1" xlink:href="#g"/><rect stroke="url(#h)" stroke-width="2" x="18.45" y="9.45" width="5" height="5" rx="2"/></g><g transform="rotate(-45 31.95 40.95)"><use fill="#F1F1F1" xlink:href="#i"/><rect stroke="url(#h)" stroke-width="2" x="29.45" y="38.45" width="5" height="5" rx="2"/></g></g></svg>