<svg width="50" height="43" xmlns="http://www.w3.org/2000/svg" xmlns:xlink="http://www.w3.org/1999/xlink"><defs><linearGradient x1="100%" y1="50%" x2="0%" y2="50%" id="a"><stop stop-color="#FE9A8B" offset="0%"/><stop stop-color="#FD868C" offset="40.85%"/><stop stop-color="#F9748F" offset="73.151%"/><stop stop-color="#F78CA0" offset="100%"/></linearGradient><path d="M23 1.01a1 1 0 1 1 2 0v1.98a1 1 0 1 1-2 0V1.01zm13.705 3.802a1 1 0 1 1 1.618 1.176l-1.165 1.603a1 1 0 1 1-1.618-1.176l1.165-1.603zm8.851 11.132c.53-.172 1.098.11 1.27.64a1 1 0 0 1-.652 1.263l-1.884.612a1 1 0 1 1-.618-1.902l1.884-.613zm.618 14.21a1 1 0 1 1-.618 1.902l-1.884-.613a1 1 0 1 1 .618-1.902l1.884.612zm-43.73 1.902a1 1 0 1 1-.618-1.902l1.884-.613a1 1 0 1 1 .618 1.902l-1.884.613zm-.618-14.21a1 1 0 1 1 .618-1.902l1.884.613a1 1 0 1 1-.618 1.902l-1.884-.612zM9.677 5.989a1 1 0 1 1 1.618-1.176l1.165 1.603a1 1 0 1 1-1.618 1.176L9.677 5.988z" id="b"/><rect id="c" x="16" y="32" width="16" height="2" rx="1"/><path d="M20.018 17.47c0-.828.68-1.5 1.506-1.5h13.304c.832 0 2.107.296 2.85.662l.356.176c.742.366.741.966-.005 1.342l-.279.14c-.744.376-2.01.68-2.845.68h-13.39a1.495 1.495 0 0 1-1.497-1.5z" id="d"/></defs><g transform="translate(1 1)" fill="none" fill-rule="evenodd"><path d="M41.043 40.897A23.924 23.924 0 0 0 48 24C48 10.745 37.255 0 24 0S0 10.745 0 24c0 6.585 2.652 12.55 6.946 16.887" stroke="url(#a)" stroke-width="2"/><use fill="url(#a)" xlink:href="#b"/><path stroke="url(#a)" d="M23.5 1.01a.5.5 0 1 1 1 0v1.98a.5.5 0 1 1-1 0V1.01zm13.609 4.096a.5.5 0 1 1 .809.588l-1.164 1.603a.5.5 0 1 1-.809-.588l1.164-1.603zm8.602 11.314a.5.5 0 1 1 .309.951l-1.884.612a.5.5 0 1 1-.309-.951l1.884-.612zm.309 14.209a.5.5 0 1 1-.309.951l-1.884-.612a.5.5 0 1 1 .309-.951l1.884.612zm-43.73.951a.5.5 0 1 1-.309-.951l1.883-.612a.5.5 0 1 1 .309.951l-1.884.612zm-.31-14.209a.5.5 0 1 1 .309-.951l1.884.612a.5.5 0 1 1-.309.951l-1.884-.612zm8.102-11.677a.5.5 0 1 1 .809-.588l1.165 1.603a.5.5 0 1 1-.809.588l-1.165-1.603z"/><use fill="url(#a)" xlink:href="#c"/><rect stroke="url(#a)" x="16.5" y="32.5" width="15" height="1" rx=".5"/><g transform="rotate(-55 29.304 17.47)"><use fill="url(#a)" xlink:href="#d"/><path stroke="url(#a)" stroke-width="2" d="M37.126 17.478c-.629.271-1.606.492-2.221.492h-13.39a.495.495 0 0 1-.497-.5c0-.272.23-.5.506-.5h13.304c.64 0 1.675.232 2.298.508z"/></g><circle stroke="url(#a)" stroke-width="2" fill="url(#a)" cx="24" cy="25" r="2"/></g></svg>